<svg xmlns="http://www.w3.org/2000/svg" xmlns:xlink="http://www.w3.org/1999/xlink" width="841.89" height="595.28" viewBox="0 0 841.89 595.28"><defs><path id="a" d="M16.435 14.492c-.494 0-.897.417-.897.931V39.9c0 .512.403.931.897.931h14.637c.494 0 .897-.418.897-.931V15.422c0-.514-.403-.931-.897-.931H16.435zm14.636 27.669H16.435c-1.203 0-2.182-1.014-2.182-2.261V15.422c0-1.247.979-2.261 2.182-2.261h14.637c1.203 0 2.182 1.015 2.182 2.261V39.9c-.001 1.247-.98 2.261-2.183 2.261z"/></defs><clipPath id="b"><use xlink:href="#a" overflow="visible"/></clipPath><g clip-path="url(#b)"><defs><path id="c" d="M-1247.747-36.839h1440V7914.16h-1440z"/></defs><clipPath id="d"><use xlink:href="#c" overflow="visible"/></clipPath><path clip-path="url(#d)" fill="#FFF" d="M9.253 8.161h29v39h-29z"/></g><defs><path id="e" d="M29.144 26.702c-.4 0-.727.338-.727.754 0 .415.326.753.727.753a.744.744 0 0 0 .729-.753c-.001-.415-.327-.754-.729-.754zm-2.011.755c0-1.149.902-2.084 2.011-2.084 1.11 0 2.013.935 2.013 2.084s-.902 2.084-2.013 2.084c-1.109 0-2.011-.936-2.011-2.084z"/></defs><clipPath id="f"><use xlink:href="#e" overflow="visible"/></clipPath><g clip-path="url(#f)"><defs><path id="g" d="M-1247.747-36.839h1440V7914.16h-1440z"/></defs><clipPath id="h"><use xlink:href="#g" overflow="visible"/></clipPath><path clip-path="url(#h)" fill="#FFF" d="M22.133 20.373h14.023v14.168H22.133z"/></g><defs><path id="i" d="M100.589 108.551l1.988 10.892a.74.74 0 0 1 .012.133c0 .312.227.616.32.616h16.146c.094 0 .318-.305.318-.616 0-.045.005-.089.012-.133l1.988-10.892c-.019-.16-.122-.241-.312-.241h-20.16c-.189 0-.294.081-.312.241zm18.47 13.125h-16.154c-1.036 0-1.768-1.053-1.804-2.025l-1.992-10.915a.748.748 0 0 1-.012-.133c0-1.014.776-1.778 1.805-1.778h20.16c1.029 0 1.805.764 1.805 1.778a.748.748 0 0 1-.012.133l-1.992 10.915c-.037.973-.767 2.025-1.804 2.025z"/></defs><clipPath id="j"><use xlink:href="#i" overflow="visible"/></clipPath><g clip-path="url(#j)"><defs><path id="k" d="M-1214.903 53.667h1440v7951h-1440z"/></defs><clipPath id="l"><use xlink:href="#k" overflow="visible"/></clipPath><path clip-path="url(#l)" fill="#FFF" d="M94.097 101.826h33.77v24.851h-33.77z"/></g><g><defs><path id="m" d="M122.124 109.134a.744.744 0 0 1-.734-.883l.954-4.982a.745.745 0 0 1 .731-.603h3.127a.743.743 0 1 1 0 1.485h-2.511l-.838 4.379a.743.743 0 0 1-.729.604z"/></defs><clipPath id="n"><use xlink:href="#m" overflow="visible"/></clipPath><g clip-path="url(#n)"><defs><path id="o" d="M-1214.903 53.667h1440v7951h-1440z"/></defs><clipPath id="p"><use xlink:href="#o" overflow="visible"/></clipPath><path clip-path="url(#p)" fill="#FFF" d="M116.377 97.667h15.57v16.467h-15.57z"/></g></g><g><defs><path id="q" d="M118.151 126.131h-.003l-15.13-.048c-.411 0-.744-.354-.744-.762 0-.41.333-.752.744-.752l.001-.005 15.131.006c.1-.001.411-.023.646-.114a.747.747 0 0 0 .066-.208l.518-4.953a.74.74 0 0 1 .816-.66.742.742 0 0 1 .664.814l-.515 4.942c-.009.103-.124 1.144-1.011 1.486a4.103 4.103 0 0 1-1.183.254z"/></defs><clipPath id="r"><use xlink:href="#q" overflow="visible"/></clipPath><g clip-path="url(#r)"><defs><path id="s" d="M-1214.903 53.667h1440v7951h-1440z"/></defs><clipPath id="t"><use xlink:href="#s" overflow="visible"/></clipPath><path clip-path="url(#t)" fill="#FFF" d="M97.274 113.631h28.59v17.5h-28.59z"/></g></g><g><defs><path id="u" d="M105.24 127.692c-.854 0-1.552.733-1.552 1.634 0 .9.697 1.633 1.552 1.633.856 0 1.553-.733 1.553-1.633-.001-.901-.697-1.634-1.553-1.634zm0 4.752c-1.677 0-3.041-1.398-3.041-3.118s1.364-3.119 3.041-3.119c1.678 0 3.043 1.4 3.043 3.119s-1.366 3.118-3.043 3.118z"/></defs><clipPath id="v"><use xlink:href="#u" overflow="visible"/></clipPath><g clip-path="url(#v)"><defs><path id="w" d="M-1214.903 53.667h1440v7951h-1440z"/></defs><clipPath id="x"><use xlink:href="#w" overflow="visible"/></clipPath><path clip-path="url(#x)" fill="#FFF" d="M97.199 121.208h16.084v16.237H97.199z"/></g></g><g><defs><path id="y" d="M117.155 127.692c-.855 0-1.552.733-1.552 1.634 0 .9.696 1.633 1.552 1.633.856 0 1.553-.733 1.553-1.633 0-.901-.697-1.634-1.553-1.634zm0 4.752c-1.677 0-3.041-1.398-3.041-3.118s1.364-3.119 3.041-3.119c1.678 0 3.041 1.4 3.041 3.119s-1.363 3.118-3.041 3.118z"/></defs><clipPath id="z"><use xlink:href="#y" overflow="visible"/></clipPath><g clip-path="url(#z)"><defs><path id="A" d="M-1214.903 53.667h1440v7951h-1440z"/></defs><clipPath id="B"><use xlink:href="#A" overflow="visible"/></clipPath><path clip-path="url(#B)" fill="#FFF" d="M109.114 121.208h16.082v16.237h-16.082z"/></g></g></svg>