<svg xmlns="http://www.w3.org/2000/svg" xmlns:xlink="http://www.w3.org/1999/xlink" width="29.667" height="31.448" viewBox="-6.5 0 29.667 31.448"><defs><path id="a" d="M-2.441 7.932l1.822 9.979a.719.719 0 0 1 .011.122c0 .286.208.564.293.564h14.793c.086 0 .292-.279.292-.564 0-.041.004-.081.011-.122l1.822-9.979c-.017-.146-.112-.221-.287-.221H-2.155c-.174 0-.27.074-.286.221zM14.48 19.957H-.32c-.949 0-1.619-.965-1.652-1.856l-1.825-10a.623.623 0 0 1-.012-.122c0-.929.711-1.628 1.653-1.628h18.471c.943 0 1.653.7 1.653 1.628a.622.622 0 0 1-.011.122l-1.825 10c-.033.891-.701 1.856-1.652 1.856z"/></defs><clipPath id="b"><use xlink:href="#a" overflow="visible"/></clipPath><g clip-path="url(#b)"><defs><path id="c" d="M-1207.69-42.354H111.632v7284.677H-1207.69z"/></defs><clipPath id="d"><use xlink:href="#c" overflow="visible"/></clipPath><path clip-path="url(#d)" fill="#FFF" d="M-8.39 1.77h30.939v22.768H-8.39z"/></g><defs><path id="e" d="M17.288 8.465a.681.681 0 0 1-.672-.808l.874-4.565a.683.683 0 0 1 .67-.552h2.865a.682.682 0 1 1 0 1.361h-2.3l-.768 4.012a.682.682 0 0 1-.669.552z"/></defs><clipPath id="f"><use xlink:href="#e" overflow="visible"/></clipPath><g clip-path="url(#f)"><defs><path id="g" d="M-1207.69-42.354H111.632v7284.677H-1207.69z"/></defs><clipPath id="h"><use xlink:href="#g" overflow="visible"/></clipPath><path clip-path="url(#h)" fill="#FFF" d="M12.023-2.041h14.266v15.087H12.023z"/></g><g><defs><path id="i" d="M13.648 24.039h-.003l-13.862-.044a.698.698 0 0 1-.682-.698c0-.375.305-.689.682-.689l.001-.004 13.863.006c.091-.001.376-.021.591-.104a.706.706 0 0 0 .061-.19l.474-4.538a.677.677 0 0 1 .748-.604.679.679 0 0 1 .608.746l-.472 4.528c-.008.094-.114 1.048-.926 1.362a3.853 3.853 0 0 1-1.083.229z"/></defs><clipPath id="j"><use xlink:href="#i" overflow="visible"/></clipPath><g clip-path="url(#j)"><defs><path id="k" d="M-1207.69-42.354H111.632v7284.677H-1207.69z"/></defs><clipPath id="l"><use xlink:href="#k" overflow="visible"/></clipPath><path clip-path="url(#l)" fill="#FFF" d="M-5.479 12.586h26.194V28.62H-5.479z"/></g></g><g><defs><path id="m" d="M1.819 25.469c-.783 0-1.422.671-1.422 1.498 0 .824.639 1.496 1.422 1.496.785 0 1.422-.671 1.422-1.496.001-.827-.637-1.498-1.422-1.498zm0 4.354c-1.536 0-2.786-1.281-2.786-2.856s1.25-2.858 2.786-2.858c1.537 0 2.788 1.283 2.788 2.858s-1.251 2.856-2.788 2.856z"/></defs><clipPath id="n"><use xlink:href="#m" overflow="visible"/></clipPath><g clip-path="url(#n)"><defs><path id="o" d="M-1207.69-42.354H111.632v7284.677H-1207.69z"/></defs><clipPath id="p"><use xlink:href="#o" overflow="visible"/></clipPath><path clip-path="url(#p)" fill="#FFF" d="M-5.548 19.527H9.188v14.876H-5.548z"/></g></g><g><defs><path id="q" d="M12.736 25.469c-.784 0-1.422.671-1.422 1.498 0 .824.638 1.496 1.422 1.496.785 0 1.422-.671 1.422-1.496 0-.827-.637-1.498-1.422-1.498zm0 4.354c-1.536 0-2.786-1.281-2.786-2.856s1.25-2.858 2.786-2.858c1.537 0 2.786 1.283 2.786 2.858s-1.249 2.856-2.786 2.856z"/></defs><clipPath id="r"><use xlink:href="#q" overflow="visible"/></clipPath><g clip-path="url(#r)"><defs><path id="s" d="M-1207.69-42.354H111.632v7284.677H-1207.69z"/></defs><clipPath id="t"><use xlink:href="#s" overflow="visible"/></clipPath><path clip-path="url(#t)" fill="#FFF" d="M5.369 19.527h14.734v14.876H5.369z"/></g></g></svg>