<svg xmlns="http://www.w3.org/2000/svg" xmlns:xlink="http://www.w3.org/1999/xlink" width="102" height="88" viewBox="0 0 102 88"><defs><path id="a" d="M44.564 71.937l-4.004-9.322c-6.109-.719-12.006-1.119-17.783-2.168-5.889-1.07-11.312-3.492-15.898-8.149 0 1.597.115 2.716-.02 3.808-.619 4.99 1.969 8.174 5.895 10.596 1.176.729 2.41 1.391 3.688 1.918 9.021 3.727 18.406 4.434 28.122 3.317zm-4.222-23.329c-5.748-.689-11.682-1.153-17.518-2.17-5.916-1.031-11.295-3.513-15.945-8.093 0 2.464.078 4.47-.02 6.466-.139 2.781.877 5.064 2.904 6.845 1.346 1.183 2.816 2.282 4.385 3.136 5.4 2.934 11.289 4.225 17.359 4.646 2.854.197 5.729.033 8.305.033.192-3.9.37-7.554.53-10.863zM6.879 25.038c0 2.167.088 3.892-.02 5.604-.207 3.299 1.205 5.814 3.717 7.728 1.535 1.168 3.184 2.261 4.928 3.075 7.873 3.676 16.25 4.522 24.811 4.127.455-.021 1.1-.316 1.305-.682 2.066-3.646 4.061-7.338 5.957-10.806-7.018 1.093-14.494 1.198-21.936-.18-6.838-1.264-13.334-3.364-18.762-8.866zm30.359 7.453c1.443-.062 3.484.027 5.467-.279 3.418-.533 6.896-1.013 10.166-2.074 3.195-1.039 6.121-2.877 9.242-4.185 4.391-1.841 6.463-7.692 3.389-11.261-2.061-2.387-4.844-4.498-7.73-5.753C46.33 3.966 34.436 3.831 22.438 6.673c-4.781 1.131-9.297 2.93-12.906 6.426-3.551 3.441-3.703 7.61-.104 10.965 1.943 1.812 4.314 3.311 6.729 4.449 6.464 3.049 13.431 3.877 21.081 3.978zm32.03 50.586c14.762.662 27.926-11.263 28.738-25.902.891-16.143-10.965-28.857-25.768-29.89-16.332-1.136-28.701 11.169-29.814 25.557-1.315 16.954 11.92 29.933 26.844 30.235zm.263-58.368c7.012.136 13.158 1.995 18.6 6.017 9.762 7.222 14.512 19.713 11.443 31.441-3.299 12.608-11.506 20.479-24.379 22.814-10.623 1.926-19.764-1.438-27.193-9.26-1.102-1.16-2.035-1.587-3.729-1.4-9.941 1.1-19.727.4-29.016-3.645-2.326-1.012-4.521-2.461-6.535-4.02-2.895-2.238-4.346-5.274-4.326-9.059.062-12.471.076-24.941-.004-37.412-.027-4.422 1.785-7.771 5.213-10.365C14.863 5.843 21 4.049 27.367 3.167c10.111-1.402 20.146-.993 29.775 2.795 2.553 1.004 4.994 2.443 7.25 4.021 3.529 2.466 5.301 5.978 5.145 10.372-.047 1.376-.006 2.759-.006 4.354z"/></defs><use xlink:href="#a" overflow="visible" fill-rule="evenodd" clip-rule="evenodd" fill="#515151"/><clipPath id="b"><use xlink:href="#a" overflow="visible"/></clipPath><g clip-path="url(#b)"><defs><path id="c" d="M-947.607-7375.573h1440v7951h-1440z"/></defs><use xlink:href="#c" overflow="visible" fill="#515151"/><clipPath id="d"><use xlink:href="#c" overflow="visible"/></clipPath><path clip-path="url(#d)" fill="#515151" d="M-.607-2.574h106.105v93.088H-.607z"/></g><g><defs><path id="e" d="M51.943 57.403v-4.306c-1.025-.05-2.008.032-2.916-.19-.461-.111-1.215-.615-1.178-1.182.039-.553.932-1.053 1.285-.986 1.352.256 3.312-.017 3.312-.017s.91-2.153 1.465-3.378C59.377 35.3 75.434 33.36 84.049 43.568c.658.782 1.545 1.53.492 2.597-.816.824-1.725-.432-2.246-1.023-6.412-7.278-16.6-7.877-23.223-1.109-1.689 1.726-3.172 3.656-4.035 6.506 1.305.09 1.465.133 2.047.135 5.918.009 11.834-.007 17.752.018.898.004 2.221.108 2.076 1.594-.043.456-1.383.651-2.162.664-5.916.092-11.836.05-17.75.05h-2.379v4.372h2.232c5.988 0 11.975-.043 17.959.053.76.011 2.27.273 2.26 1.121-.012.869-1.553 1.082-2.336 1.096-5.637.096-11.275.051-16.914.051h-2.783c.693 1.495 1.119 2.703 1.771 3.771 5.533 9.057 18.514 9.987 25.324 1.842.223-.268 1.357-1.902 2.492-1.121.504.349.244 1.391-.039 1.812-2.102 3.106-5.078 5.134-8.576 6.331-9.242 3.169-19.234-1.482-22.68-10.622-.596-1.58-1.305-2.279-2.963-2.031-.535.081-1.15.066-1.641-.128-.367-.146-.865-.701-.814-.982.08-.429.541-1.045.918-1.108.944-.161 1.933-.054 3.112-.054z"/></defs><use xlink:href="#e" overflow="visible" fill-rule="evenodd" clip-rule="evenodd" fill="#515151"/><clipPath id="f"><use xlink:href="#e" overflow="visible"/></clipPath><g clip-path="url(#f)"><defs><path id="g" d="M-947.607-7375.573h1440v7951h-1440z"/></defs><use xlink:href="#g" overflow="visible" fill="#515151"/><clipPath id="h"><use xlink:href="#g" overflow="visible"/></clipPath><path clip-path="url(#h)" fill="#515151" d="M42.85 31.974h47.178v46.348H42.85z"/></g></g></svg>