<svg xmlns="http://www.w3.org/2000/svg" xmlns:xlink="http://www.w3.org/1999/xlink" width="113.73" height="100.384" viewBox="0 0 113.73 100.384"><defs><path id="a" d="M21.56 15.586c-2.111 0-3.379 2.019-3.379 4.5v57c0 2.481 1.268 4.5 3.379 4.5h78.242c2.11 0 3.379-2.019 3.379-4.5v-57c0-2.481-1.269-4.5-3.379-4.5H21.56zm78.242 69H21.56c-3.518 0-6.379-3.364-6.379-7.5v-57c0-4.136 2.861-7.5 6.379-7.5h78.242c3.518 0 6.379 3.364 6.379 7.5v57c0 4.136-2.861 7.5-6.379 7.5z"/></defs><clipPath id="b"><use xlink:href="#a" overflow="visible"/></clipPath><g clip-path="url(#b)"><defs><path id="c" d="M-373.819-7379.414h1440v7951h-1440z"/></defs><clipPath id="d"><use xlink:href="#c" overflow="visible"/></clipPath><path clip-path="url(#d)" fill="#2E1D51" d="M10.181 7.586h101v82h-101z"/></g><g><defs><path id="e" d="M60.396 51.557c-6.211 0-13.186-6.939-13.479-7.235L16.684 17.28c-.561-.501-.669-1.443-.242-2.102.427-.66 1.226-.787 1.787-.286l30.29 27.095c.121.118 6.612 6.569 11.878 6.569 3.709 0 11.428-6.367 14.089-8.822l28.084-24.847c.563-.498 1.363-.365 1.787.297.424.662.311 1.603-.252 2.101L76.042 42.114c-1.033.95-10.395 9.443-15.646 9.443z"/></defs><clipPath id="f"><use xlink:href="#e" overflow="visible"/></clipPath><g clip-path="url(#f)"><defs><path id="g" d="M-373.819-7379.414h1440v7951h-1440z"/></defs><clipPath id="h"><use xlink:href="#g" overflow="visible"/></clipPath><path clip-path="url(#h)" fill="#2E1D51" d="M11.181 9.586h98.433v46.971H11.181z"/></g></g></svg>