<svg xmlns="http://www.w3.org/2000/svg" xmlns:xlink="http://www.w3.org/1999/xlink" width="85.497" height="63" viewBox="0 0 85.497 63"><defs><path id="a" d="M11.702 39.691c.065.235.393 1.194 1.799 2.534 5.658 5.392 17.025 14.469 29.579 14.664l.393.004c12.212 0 23.583-8.803 29.273-14.053 1.58-1.456 2.111-2.563 2.269-2.976-.117-.389-.551-1.486-2.017-2.935-5.292-5.239-16.22-14.054-29.951-14.239l-.425-.005c-13.561 0-24.039 8.802-29.078 14.049-1.464 1.524-1.778 2.646-1.842 2.957zm31.771 19.466l-.427-.003c-13.325-.209-25.207-9.669-31.105-15.29C9.66 41.69 9.45 40.078 9.43 39.778a1.011 1.011 0 0 1-.001-.11c.007-.203.138-2.058 2.483-4.5 5.288-5.506 16.312-14.743 30.71-14.743l.456.004c14.525.196 25.978 9.415 31.512 14.892 2.47 2.442 2.699 4.293 2.718 4.498.009.1.005.201-.014.301-.036.198-.424 1.999-3.015 4.386-5.932 5.471-17.825 14.651-30.806 14.651z"/></defs><use xlink:href="#a" overflow="visible" fill-rule="evenodd" clip-rule="evenodd" fill="#FFF"/><clipPath id="b"><use xlink:href="#a" overflow="visible"/></clipPath><g clip-path="url(#b)"><defs><path id="c" d="M-756.186-1018.244H330.005v5997.425H-756.186z"/></defs><use xlink:href="#c" overflow="visible" fill="#FFF"/><clipPath id="d"><use xlink:href="#c" overflow="visible"/></clipPath><path clip-path="url(#d)" fill="#FFF" d="M5.656 16.652h75.428v46.276H5.656z"/></g><defs><path id="e" d="M42.562 30.23c-5.376 0-9.75 4.374-9.75 9.75 0 5.377 4.373 9.75 9.75 9.75 5.376 0 9.75-4.373 9.75-9.75 0-5.376-4.374-9.75-9.75-9.75zm0 21.763c-6.624 0-12.014-5.391-12.014-12.014 0-6.624 5.39-12.013 12.014-12.013s12.013 5.389 12.013 12.013c-.001 6.624-5.389 12.014-12.013 12.014z"/></defs><use xlink:href="#e" overflow="visible" fill-rule="evenodd" clip-rule="evenodd" fill="#FFF"/><clipPath id="f"><use xlink:href="#e" overflow="visible"/></clipPath><g clip-path="url(#f)"><defs><path id="g" d="M-756.186-1018.244H330.005v5997.425H-756.186z"/></defs><use xlink:href="#g" overflow="visible" fill="#FFF"/><clipPath id="h"><use xlink:href="#g" overflow="visible"/></clipPath><path clip-path="url(#h)" fill="#FFF" d="M26.776 24.195h31.569v31.57H26.776z"/></g><g><defs><path id="i" d="M13.808 27.949c-.284 0-.568-.108-.789-.322l-9.282-9.033a1.13 1.13 0 1 1 1.578-1.621l9.284 9.033a1.132 1.132 0 0 1-.791 1.943z"/></defs><use xlink:href="#i" overflow="visible" fill-rule="evenodd" clip-rule="evenodd" fill="#FFF"/><clipPath id="j"><use xlink:href="#i" overflow="visible"/></clipPath><g clip-path="url(#j)"><defs><path id="k" d="M-756.186-1018.244H330.005v5997.425H-756.186z"/></defs><use xlink:href="#k" overflow="visible" fill="#FFF"/><clipPath id="l"><use xlink:href="#k" overflow="visible"/></clipPath><path clip-path="url(#l)" fill="#FFF" d="M-.378 12.882h19.089V31.72H-.378z"/></g></g><g><defs><path id="m" d="M42.24 15.587a1.131 1.131 0 0 1-1.132-1.133V2.699a1.131 1.131 0 1 1 2.263 0v11.756c0 .626-.507 1.132-1.131 1.132z"/></defs><use xlink:href="#m" overflow="visible" fill-rule="evenodd" clip-rule="evenodd" fill="#FFF"/><clipPath id="n"><use xlink:href="#m" overflow="visible"/></clipPath><g clip-path="url(#n)"><defs><path id="o" d="M-756.186-1018.244H330.005v5997.425H-756.186z"/></defs><use xlink:href="#o" overflow="visible" fill="#FFF"/><clipPath id="p"><use xlink:href="#o" overflow="visible"/></clipPath><path clip-path="url(#p)" fill="#FFF" d="M37.337-2.205h9.806v21.562h-9.806z"/></g></g><g><defs><path id="q" d="M73.921 28.125a1.131 1.131 0 0 1-.847-1.882l8.162-9.21a1.132 1.132 0 0 1 1.694 1.502l-8.162 9.209a1.126 1.126 0 0 1-.847.381z"/></defs><use xlink:href="#q" overflow="visible" fill-rule="evenodd" clip-rule="evenodd" fill="#FFF"/><clipPath id="r"><use xlink:href="#q" overflow="visible"/></clipPath><g clip-path="url(#r)"><defs><path id="s" d="M-756.186-1018.244H330.005v5997.425H-756.186z"/></defs><use xlink:href="#s" overflow="visible" fill="#FFF"/><clipPath id="t"><use xlink:href="#s" overflow="visible"/></clipPath><path clip-path="url(#t)" fill="#FFF" d="M69.019 12.882h17.967v19.014H69.019z"/></g></g><g><defs><path id="u" d="M58.835 19.214a1.13 1.13 0 0 1-1.034-1.588l4.794-10.859a1.132 1.132 0 0 1 2.07.914L59.87 18.539a1.13 1.13 0 0 1-1.035.675z"/></defs><use xlink:href="#u" overflow="visible" fill-rule="evenodd" clip-rule="evenodd" fill="#FFF"/><clipPath id="v"><use xlink:href="#u" overflow="visible"/></clipPath><g clip-path="url(#v)"><defs><path id="w" d="M-756.186-1018.244H330.005v5997.425H-756.186z"/></defs><use xlink:href="#w" overflow="visible" fill="#FFF"/><clipPath id="x"><use xlink:href="#w" overflow="visible"/></clipPath><path clip-path="url(#x)" fill="#FFF" d="M53.933 2.322h14.602v20.663H53.933z"/></g></g><g><defs><path id="y" d="M26.583 18.895c-.409 0-.805-.222-1.006-.609l-5.463-10.54a1.133 1.133 0 0 1 2.009-1.042l5.462 10.54a1.13 1.13 0 0 1-1.002 1.651z"/></defs><use xlink:href="#y" overflow="visible" fill-rule="evenodd" clip-rule="evenodd" fill="#FFF"/><clipPath id="z"><use xlink:href="#y" overflow="visible"/></clipPath><g clip-path="url(#z)"><defs><path id="A" d="M-756.186-1018.244H330.005v5997.425H-756.186z"/></defs><use xlink:href="#A" overflow="visible" fill="#FFF"/><clipPath id="B"><use xlink:href="#A" overflow="visible"/></clipPath><path clip-path="url(#B)" fill="#FFF" d="M16.217 2.322h15.269v20.346H16.217z"/></g></g></svg>