<svg xmlns="http://www.w3.org/2000/svg" width="49.158" height="47.21" viewBox="0 0 49.158 47.21"><path fill="#A52832" d="M26.215 40.257c-8.906 0-16.129-7.22-16.129-16.128C10.086 15.221 17.309 8 26.215 8c8.908 0 16.129 7.221 16.129 16.129 0 8.908-7.22 16.128-16.129 16.128z"/><path fill="#FFF" d="M21.276 20.895h2.117v-1.92c0-.846.021-2.15.682-2.959.693-.855 1.646-1.438 3.287-1.438 2.668 0 3.793.354 3.793.354l-.529 2.926s-.881-.237-1.703-.237c-.824 0-1.561.275-1.561 1.043v2.231h3.375l-.237 2.858h-3.139v9.928h-3.969v-9.928h-2.117v-2.858z"/></svg>