<svg xmlns="http://www.w3.org/2000/svg" width="64" height="59.337" viewBox="0 0 64 59.337"><path fill="#FFF" d="M31.127 59.337c-2.604 0-4.415-2.665-4.726-3.155L3.358 25.907l-.164-.216-.518-.68.026-.013A15.886 15.886 0 0 1 0 16.08C0 7.213 7.213 0 16.08 0c6.694 0 12.74 4.204 15.074 10.47a.232.232 0 0 0 .05.046.744.744 0 0 0 .032-.06l.032-.093C33.784 4.068 39.787 0 46.563 0c9.081 0 16.469 7.388 16.469 16.469 0 3.847-1.357 7.591-3.819 10.544L35.664 56.46c-.302.444-2.074 2.877-4.537 2.877zm-25.304-33.6l22.308 29.315c.383.616 1.672 2.219 2.996 2.219 1.242 0 2.5-1.476 2.843-1.994l.054-.074 23.589-29.497a14.442 14.442 0 0 0 3.354-9.238c0-7.942-6.462-14.404-14.404-14.404A14.338 14.338 0 0 0 33.2 11.092c-.192.588-.793 1.511-1.929 1.511-1.104 0-1.771-.792-1.992-1.26l-.036-.085c-2.015-5.499-7.305-9.194-13.164-9.194-7.728 0-14.015 6.287-14.015 14.015a13.87 13.87 0 0 0 2.997 8.655l.781.992-.019.011z"/><path fill="#FFF" d="M31.03 35.48a1.032 1.032 0 0 1-.881-1.57l2.952-4.84-6.424-4.785a1.03 1.03 0 0 1-.415-.845 1.03 1.03 0 0 1 .442-.831l7.097-4.949-4.248-5.898a1.033 1.033 0 0 1 1.675-1.208l4.861 6.75a1.03 1.03 0 0 1-.247 1.451l-6.782 4.729 6.03 4.492c.428.319.542.911.264 1.366l-3.442 5.643a1.032 1.032 0 0 1-.882.495z"/></svg>