<svg xmlns="http://www.w3.org/2000/svg" width="130" height="130" viewBox="0 0 130 130"><circle fill="#116280" cx="65.526" cy="64.593" r="48.854"/><path fill-rule="evenodd" clip-rule="evenodd" fill="#FFF" d="M55.009 59.786c.275.598.43 1.119.725 1.545 1.117 1.611 2.184 3.268 3.44 4.764 2.712 3.223 5.503 6.379 8.317 9.516.698.779 1.604 1.371 2.559 2.17.252-.865.409-1.469.607-2.063.162-.484.331-.975.568-1.426 1.078-2.053 2.769-2.807 4.971-2.082 4.09 1.346 7.742 3.5 11.035 6.262 1.991 1.67 1.881 3.707.814 5.545-1.418 2.449-3.426 4.338-5.914 5.686-2.027 1.096-4.211.992-6.382.613-5.698-.988-10.609-3.672-15.033-7.266-7.488-6.086-13.039-13.564-15.966-22.85a27.829 27.829 0 0 1-1.272-8.672c.036-3.607 1.614-6.363 4.517-8.367 1.221-.844 2.527-1.615 3.896-2.168 1.885-.758 3.938-.516 5.191 1.699a40.389 40.389 0 0 1 2.303 4.746c.922 2.287 1.768 4.615 2.031 7.1.291 2.738-.941 4.404-3.664 4.904-.837.153-1.69.213-2.743.344zm22.119 28.879c.805-.02 1.648.107 2.412-.084 3.426-.85 5.659-3.18 7.187-6.217.432-.861.181-1.789-.683-2.486-3.066-2.484-6.387-4.518-10.135-5.793-1.672-.568-2.508-.174-3.188 1.459-.329.787-.507 1.633-.78 2.443-.454 1.34-1.503 1.852-2.771 1.207a10.172 10.172 0 0 1-2.438-1.725c-4.199-4.068-7.924-8.557-11.359-13.275a15.738 15.738 0 0 1-2.017-3.793c-.487-1.328.272-2.299 1.671-2.512.82-.125 1.658-.152 2.469-.326 1.758-.377 2.34-1.174 2.047-2.932-.651-3.924-2.068-7.578-4.049-11.023-.424-.738-1.025-1.125-1.861-1.045-.525.049-1.068.15-1.555.35-1.698.695-3.143 1.77-4.473 3.031-1.316 1.246-1.961 2.766-2.124 4.541-.312 3.375.185 6.664 1.284 9.828C50.554 71.208 57.543 79.514 67.46 85.34c2.971 1.747 6.192 2.919 9.668 3.325z"/></svg>