<svg xmlns="http://www.w3.org/2000/svg" width="130" height="130" viewBox="0 0 130 130"><circle fill="#116280" cx="65.139" cy="65.353" r="48.854"/><g fill-rule="evenodd" clip-rule="evenodd" fill="#FFF"><path d="M84.466 57.835c-.117 5.325-1.533 10.324-3.697 15.137a89.341 89.341 0 0 1-10.021 16.969c-2.604 3.473-6.763 4.221-10.061 1.938-.581-.402-1.156-.875-1.577-1.437-5.519-7.351-10.264-15.14-12.847-24.042-1.332-4.593-1.91-9.296-.558-14.029 2.583-9.039 11.973-15.164 21.308-13.914 9.057 1.215 15.79 7.631 17.232 16.455.156.96.151 1.947.221 2.923zM64.599 40.888c-.373.021-.861.052-1.349.078-6.665.346-13.209 5.586-15.034 12.014-1.151 4.055-.689 8.079.367 12.036 2.295 8.609 6.877 16.069 12.053 23.185 2.382 3.275 5.815 3.207 8.232-.063a89.403 89.403 0 0 0 9.5-16.104c1.803-3.961 2.924-8.091 3.401-12.447 1.15-10.443-7.41-18.687-17.17-18.699z"/><path d="M64.722 65.737c-4.409.018-8.058-3.611-8.081-8.037-.023-4.408 3.622-8.066 8.043-8.072 4.437-.006 8.083 3.622 8.073 8.033-.009 4.447-3.6 8.057-8.035 8.076zm-.023-13.495c-3.052.003-5.457 2.404-5.451 5.441.005 3.004 2.474 5.477 5.46 5.47 2.994-.01 5.462-2.489 5.453-5.48-.009-3.043-2.415-5.434-5.462-5.431z"/></g></svg>