<svg xmlns="http://www.w3.org/2000/svg" width="130" height="130" viewBox="0 0 130 130"><circle fill="#F6A827" cx="65.999" cy="65.093" r="59"/><g fill="#FFF"><path d="M65.886 43.324h27.342c4.635 0 7.959 3.11 7.992 7.754.074 10.448.069 20.898.001 31.347-.026 4.348-3.34 7.549-7.701 7.556-18.384.028-36.77.028-55.153 0-4.429-.007-7.712-3.396-7.716-7.81a23045 23045 0 0 1 .001-31.111c.002-4.391 3.365-7.731 7.777-7.735 9.152-.004 18.305-.001 27.457-.001zm.068 43.174c8.991 0 17.982.005 26.973-.003 3.189-.003 4.701-1.517 4.701-4.668.002-10.013-.069-20.026.043-30.038.035-3.012-1.838-4.855-4.834-4.844-17.903.067-35.809.032-53.714.033-3.44.001-4.936 1.501-4.937 4.959v29.566c0 3.51 1.493 4.992 5.028 4.993 8.912.004 17.826.002 26.74.002z"/><path d="M66.582 69.178c-.966-.328-1.853-.471-2.57-.896-7.894-4.689-15.76-9.425-23.638-14.138-.853-.51-1.328-1.27-.937-2.152.24-.546.923-1.072 1.512-1.232.454-.124 1.117.25 1.605.54A4834.02 4834.02 0 0 1 65.49 65.003c.696.42 1.183.43 1.882-.01 7.238-4.559 14.5-9.08 21.756-13.608.366-.228.729-.477 1.128-.63.834-.32 1.573-.095 2.071.633.528.771.469 1.572-.204 2.246-.301.301-.683.525-1.048.753-7.217 4.52-14.426 9.048-21.661 13.535-.876.541-1.897.849-2.832 1.256z"/></g></svg>