<svg xmlns="http://www.w3.org/2000/svg" width="130" height="130" viewBox="0 0 130 130"><circle fill="#9A172F" cx="65.96" cy="64.848" r="59"/><g fill-rule="evenodd" clip-rule="evenodd" fill="#FFF"><path d="M89.302 55.77c-.143 6.431-1.852 12.469-4.466 18.281a107.787 107.787 0 0 1-12.103 20.492c-3.145 4.193-8.167 5.097-12.15 2.34-.702-.486-1.396-1.059-1.905-1.734-6.665-8.879-12.395-18.285-15.515-29.037-1.609-5.545-2.307-11.226-.673-16.942 3.12-10.917 14.459-18.313 25.733-16.803 10.938 1.465 19.068 9.214 20.811 19.873.19 1.159.182 2.352.268 3.53zM65.308 35.303c-.45.025-1.04.062-1.628.093-8.049.417-15.953 6.746-18.157 14.51-1.391 4.897-.833 9.757.443 14.536 2.771 10.397 8.305 19.406 14.556 28 2.876 3.955 7.023 3.873 9.942-.076 4.494-6.081 8.338-12.563 11.473-19.448 2.178-4.782 3.531-9.771 4.108-15.031 1.388-12.614-8.949-22.569-20.737-22.584z"/><path d="M65.456 65.312c-5.325.023-9.731-4.36-9.759-9.705-.028-5.323 4.375-9.742 9.713-9.75 5.358-.006 9.763 4.375 9.75 9.702-.011 5.371-4.347 9.73-9.704 9.753zm-.027-16.297c-3.685.003-6.59 2.903-6.583 6.571.006 3.628 2.988 6.615 6.595 6.605 3.615-.01 6.596-3.005 6.585-6.617-.011-3.674-2.918-6.562-6.597-6.559z"/></g></svg>