<svg xmlns="http://www.w3.org/2000/svg" width="130" height="130" viewBox="0 0 130 130"><circle fill="#9A172F" cx="64.823" cy="64.249" r="59"/><path fill-rule="evenodd" clip-rule="evenodd" fill="#FFF" d="M52.121 58.443c.332.724.519 1.354.875 1.867 1.349 1.945 2.638 3.946 4.155 5.752 3.274 3.893 6.646 7.706 10.043 11.494.844.939 1.938 1.655 3.092 2.619.304-1.045.494-1.774.733-2.489.195-.586.399-1.179.687-1.724 1.303-2.477 3.344-3.39 6.002-2.514 4.939 1.625 9.351 4.228 13.328 7.563 2.404 2.017 2.271 4.476.984 6.696-1.714 2.956-4.139 5.238-7.144 6.864-2.448 1.325-5.086 1.197-7.707.742-6.882-1.194-12.813-4.434-18.156-8.775-9.044-7.35-15.748-16.381-19.281-27.595-1.071-3.4-1.569-6.891-1.538-10.472.043-4.356 1.95-7.685 5.456-10.107 1.473-1.018 3.052-1.949 4.706-2.617 2.276-.917 4.755-.624 6.269 2.053a48.678 48.678 0 0 1 2.782 5.731c1.113 2.762 2.134 5.575 2.453 8.575.35 3.306-1.138 5.318-4.426 5.921-1.011.187-2.041.261-3.313.416zm26.712 34.878c.973-.023 1.992.13 2.913-.1 4.138-1.028 6.835-3.841 8.68-7.511.521-1.04.218-2.159-.824-3.003-3.703-2.999-7.713-5.456-12.24-6.994-2.019-.687-3.028-.212-3.849 1.763-.398.948-.612 1.971-.943 2.949-.548 1.619-1.814 2.237-3.345 1.458a12.251 12.251 0 0 1-2.944-2.081c-5.07-4.915-9.569-10.334-13.719-16.035a18.943 18.943 0 0 1-2.436-4.581c-.588-1.603.33-2.775 2.018-3.032.991-.15 2.003-.184 2.982-.395 2.122-.456 2.826-1.417 2.472-3.54-.787-4.739-2.499-9.153-4.891-13.314-.511-.891-1.238-1.358-2.248-1.262-.633.062-1.291.184-1.877.423-2.051.839-3.795 2.138-5.402 3.66-1.59 1.506-2.367 3.34-2.564 5.486-.375 4.076.222 8.046 1.551 11.868 4.576 13.159 13.017 23.189 24.992 30.226 3.586 2.11 7.477 3.526 11.674 4.015z"/></svg>