<svg xmlns="http://www.w3.org/2000/svg" width="130" height="130" viewBox="0 0 130 130"><circle fill="#116280" cx="65.24" cy="64.608" r="48.854"/><g fill-rule="evenodd" clip-rule="evenodd" fill="#FFF"><path d="M65.146 46.584c7.547 0 15.094-.002 22.64 0 3.837 0 6.59 2.576 6.617 6.42.062 8.651.058 17.304.001 25.956-.022 3.6-2.766 6.25-6.377 6.256-15.223.023-30.446.023-45.668 0-3.667-.006-6.386-2.811-6.389-6.467-.005-8.588-.006-17.174.001-25.761.002-3.635 2.786-6.4 6.439-6.404 7.579-.004 15.158 0 22.736 0zm.056 35.747c7.445 0 14.891.004 22.335-.002 2.641-.002 3.893-1.256 3.893-3.865.001-8.291-.058-16.582.035-24.871.029-2.495-1.521-4.021-4.002-4.011-14.825.057-29.651.027-44.478.027-2.849.002-4.087 1.242-4.088 4.106v24.48c0 2.906 1.236 4.135 4.163 4.135 7.38.003 14.761.001 22.142.001z"/><path d="M65.723 67.991c-.8-.273-1.534-.391-2.128-.744-6.536-3.883-13.05-7.803-19.573-11.705-.706-.424-1.1-1.053-.775-1.783.199-.45.765-.888 1.252-1.021.376-.102.925.207 1.329.447a3914.522 3914.522 0 0 1 18.991 11.347c.577.348.979.355 1.559-.008 5.993-3.775 12.006-7.518 18.015-11.269.303-.188.604-.395.934-.521.69-.264 1.303-.078 1.715.525.438.638.388 1.302-.169 1.858-.249.25-.565.436-.868.625-5.975 3.742-11.944 7.492-17.936 11.207-.727.45-1.573.704-2.346 1.042z"/></g></svg>