<svg xmlns="http://www.w3.org/2000/svg" width="49.158" height="47.21" viewBox="0 0 49.158 47.21"><path fill="#A52832" d="M26.044 39.767h.154c8.906 0 16.129-7.22 16.129-16.128v-.155c0-8.907-7.223-16.128-16.129-16.128h-.154c-8.908 0-16.129 7.221-16.129 16.128v.155c0 8.908 7.221 16.128 16.129 16.128z"/><path fill="#FFF" d="M20.048 15.391h12.148c1.152 0 2.096.943 2.096 2.099v12.146a2.1 2.1 0 0 1-2.096 2.095H20.048a2.1 2.1 0 0 1-2.098-2.095V17.489c0-1.155.944-2.098 2.098-2.098zm9.808 1.814a.738.738 0 0 0-.736.737v1.761c0 .404.33.734.736.734h1.846c.406 0 .736-.33.736-.734v-1.761a.738.738 0 0 0-.736-.737h-1.846zm2.588 5.097h-1.438c.137.445.211.916.211 1.403 0 2.717-2.275 4.921-5.08 4.921-2.807 0-5.08-2.204-5.08-4.921 0-.487.074-.958.209-1.403h-1.498v6.903a.65.65 0 0 0 .648.648h11.379a.648.648 0 0 0 .648-.648v-6.903zm-6.306-1.956c-1.812 0-3.281 1.423-3.281 3.181 0 1.757 1.469 3.181 3.281 3.181s3.283-1.424 3.283-3.181c0-1.758-1.471-3.181-3.283-3.181z"/></svg>