<svg xmlns="http://www.w3.org/2000/svg" width="100" height="100" viewBox="0 0 100 100"><path fill-rule="evenodd" clip-rule="evenodd" fill="#2C0C52" d="M33.636 38.337c.473 1.034.741 1.936 1.25 2.67 1.928 2.781 3.771 5.642 5.94 8.224 4.682 5.568 9.503 11.019 14.362 16.433 1.205 1.345 2.77 2.368 4.418 3.746.436-1.494.707-2.538 1.049-3.561.279-.837.572-1.684.982-2.463 1.862-3.543 4.779-4.848 8.582-3.595 7.062 2.325 13.369 6.046 19.055 10.813 3.44 2.885 3.249 6.401 1.408 9.574-2.449 4.229-5.916 7.491-10.213 9.816-3.5 1.895-7.272 1.713-11.021 1.062-9.839-1.71-18.32-6.342-25.959-12.549-12.93-10.509-22.516-23.422-27.568-39.455-1.532-4.863-2.244-9.854-2.198-14.975.061-6.229 2.788-10.988 7.8-14.451 2.105-1.456 4.364-2.788 6.728-3.741 3.254-1.311 6.799-.893 8.962 2.934a69.555 69.555 0 0 1 3.979 8.194c1.591 3.95 3.052 7.971 3.507 12.261.5 4.728-1.626 7.605-6.328 8.467-1.444.268-2.917.373-4.735.596zM71.83 88.206c1.391-.034 2.846.185 4.164-.144 5.916-1.471 9.773-5.49 12.41-10.737.746-1.487.312-3.088-1.178-4.294-5.295-4.287-11.029-7.801-17.502-10.001-2.887-.981-4.328-.303-5.504 2.519-.568 1.357-.875 2.82-1.347 4.218-.785 2.317-2.596 3.199-4.783 2.085-1.52-.773-2.989-1.789-4.211-2.975-7.248-7.027-13.68-14.777-19.613-22.928a27.006 27.006 0 0 1-3.481-6.549c-.841-2.292.47-3.969 2.883-4.335 1.417-.215 2.864-.264 4.264-.565 3.036-.651 4.042-2.028 3.536-5.061-1.125-6.777-3.572-13.088-6.993-19.038-.73-1.274-1.77-1.942-3.213-1.804-.906.087-1.845.262-2.684.604-2.933 1.201-5.426 3.058-7.724 5.234-2.273 2.154-3.384 4.777-3.667 7.844-.537 5.828.318 11.507 2.218 16.969 6.542 18.814 18.611 33.156 35.735 43.217 5.126 3.016 10.688 5.041 16.69 5.741z"/></svg>