<svg xmlns="http://www.w3.org/2000/svg" xmlns:xlink="http://www.w3.org/1999/xlink" width="841.89" height="595.28" viewBox="0 0 841.89 595.28"><defs><path id="a" d="M16.435 14.492c-.494 0-.897.417-.897.931V39.9c0 .512.403.931.897.931h14.637c.494 0 .897-.418.897-.931V15.422c0-.514-.403-.931-.897-.931H16.435zm14.636 27.669H16.435c-1.203 0-2.182-1.014-2.182-2.261V15.422c0-1.247.979-2.261 2.182-2.261h14.637c1.203 0 2.182 1.015 2.182 2.261V39.9c-.001 1.247-.98 2.261-2.183 2.261z"/></defs><clipPath id="b"><use xlink:href="#a" overflow="visible"/></clipPath><g clip-path="url(#b)"><defs><path id="c" d="M-1247.747-36.839h1440V7914.16h-1440z"/></defs><clipPath id="d"><use xlink:href="#c" overflow="visible"/></clipPath><path clip-path="url(#d)" fill="#FFF" d="M9.253 8.161h29v39h-29z"/></g><g><defs><path id="e" d="M29.144 26.702c-.4 0-.727.338-.727.754 0 .415.326.753.727.753a.744.744 0 0 0 .729-.753c-.001-.415-.327-.754-.729-.754zm-2.011.755c0-1.149.902-2.084 2.011-2.084 1.11 0 2.013.935 2.013 2.084s-.902 2.084-2.013 2.084c-1.109 0-2.011-.936-2.011-2.084z"/></defs><clipPath id="f"><use xlink:href="#e" overflow="visible"/></clipPath><g clip-path="url(#f)"><defs><path id="g" d="M-1247.747-36.839h1440V7914.16h-1440z"/></defs><clipPath id="h"><use xlink:href="#g" overflow="visible"/></clipPath><path clip-path="url(#h)" fill="#FFF" d="M22.133 20.373h14.023v14.168H22.133z"/></g></g></svg>