<svg xmlns="http://www.w3.org/2000/svg" width="164.5" height="43" viewBox="0 0 164.5 43"><g fill="#FFF"><path d="M50.263 12.237c0-5.658-4.604-10.263-10.263-10.263-3.939 0-7.364 2.23-9.084 5.494l-.002-.001-4.696 8.645-4.729-8.647-.004.003c-1.72-3.263-5.146-5.493-9.082-5.493-5.66 0-10.264 4.604-10.264 10.263 0 2.025.592 3.917 1.611 5.508a.915.915 0 0 0 .259.536l.526.537c.344.41.721.794 1.125 1.146l2.265 2.309c.256.434 1.422 2.674-.583 4.372a.94.94 0 0 0-.11 1.328.937.937 0 0 0 1.328.109c2.195-1.856 2.027-4.276 1.417-5.875.778.189 1.589.292 2.426.292 5.259 0 9.604-3.979 10.192-9.084l2.553 4.665-5.609 10.325a8.07 8.07 0 0 0-1.409 4.562c0 .058.007.114.009.172l-.62-.717-.053-.057c-.145-.142-1.475-1.408-3.181-1.372-.933.012-1.807.411-2.527 1.153a.944.944 0 0 0 1.355 1.313c1.242-1.282 2.679-.082 3.008.229l3.524 4.077a.945.945 0 0 0 .2.169 8.096 8.096 0 0 0 6.397 3.142c2.924 0 5.482-1.562 6.91-3.887l.001.002 14.458-18.074-.002-.003a10.212 10.212 0 0 0 2.654-6.878zm-21.11 13.168a8.03 8.03 0 0 0-2.911-.55 8.022 8.022 0 0 0-2.931.558l2.913-5.362 2.929 5.354zm3.79 3.003l-5.649-10.329 2.518-4.633C30.412 18.538 34.75 22.5 40 22.5c.974 0 1.913-.139 2.806-.394l-8.467 10.587a8.053 8.053 0 0 0-1.396-4.285zM40 3.86c4.618 0 8.378 3.759 8.378 8.377 0 4.619-3.76 8.377-8.378 8.377-4.619 0-8.378-3.758-8.378-8.377 0-4.618 3.759-8.377 8.378-8.377zM12.402 20.614a8.333 8.333 0 0 1-5.438-2.012L5.92 17.54a8.341 8.341 0 0 1-1.896-5.303c0-4.618 3.759-8.377 8.378-8.377 4.618 0 8.377 3.759 8.377 8.377 0 4.619-3.758 8.377-8.377 8.377zm13.84 18.577a6.233 6.233 0 0 1-6.227-6.224 6.235 6.235 0 0 1 6.227-6.228c3.432 0 6.224 2.794 6.224 6.228a6.231 6.231 0 0 1-6.224 6.224zM60.468 8.327c.781 0 1.395.614 1.395 1.396s-.614 1.396-1.395 1.396c-.782 0-1.397-.615-1.397-1.396s.615-1.396 1.397-1.396zm-.978 7.092c0-.699.364-1.033 1.033-1.033.699 0 1.09.334 1.09 1.033V29.21c0 .698-.364 1.033-1.063 1.033-.696 0-1.06-.335-1.06-1.033V15.419zM66.386 15.725c0-.809.335-1.228 1.034-1.228.669 0 1.032.391 1.032 1.146v1.088c.753-1.48 2.401-2.484 4.049-2.484 1.841 0 3.517 1.173 4.215 2.933.894-1.76 2.82-2.933 4.914-2.933 2.847 0 5.221 2.01 5.221 4.941v9.995c0 .67-.334 1.005-1.032 1.005-.699 0-1.062-.335-1.062-1.005v-9.101c0-2.012-1.2-3.688-3.238-3.688-2.373 0-3.908 2.039-3.908 4.386v8.402c0 .697-.336 1.033-1.006 1.033-.697 0-1.033-.336-1.033-1.033v-9.101c0-2.038-1.229-3.63-3.266-3.63-2.373 0-3.88 1.981-3.88 4.328v8.402c0 .697-.336 1.033-1.005 1.033-.699 0-1.034-.336-1.034-1.033V15.725zM90.758 15.335c0-.727.336-1.089 1.034-1.089.696 0 1.032.362 1.032 1.089v2.123c.615-1.761 2.709-3.212 4.606-3.212 4.328 0 6.505 4.215 6.505 8.264 0 4.048-2.177 8.068-6.505 8.068-1.981 0-3.797-1.005-4.606-2.764v7.733c0 .698-.501 1.116-1.061 1.116-.669 0-1.005-.39-1.005-1.144V15.335zm11.085 7.286c0-2.763-1.116-6.31-4.215-6.31-3.24 0-4.635 3.268-4.635 6.198 0 2.987 1.395 6.17 4.635 6.17 3.099.001 4.215-3.238 4.215-6.058zM113.54 14.358c3.714 0 5.667 2.233 5.667 5.053v10.023c0 .529-.363 1.032-1.032 1.032-.67 0-1.006-.475-1.032-1.005-.029-.53-.029-.698-.029-.95-1.2 1.285-2.987 1.955-4.774 1.955-2.736 0-5.36-1.535-5.36-4.662 0-3.268 2.987-4.943 5.919-4.943 1.591 0 3.294.476 4.215 1.397v-2.652c0-1.927-1.562-3.212-4.188-3.212-1.813 0-2.986.671-3.853.671-.473 0-.949-.223-.949-.865 0-.363.308-.809.783-1.005 1.228-.504 2.708-.837 4.633-.837zm-.837 14.154c2.121 0 4.383-1.116 4.383-3.043 0-1.702-2.122-2.68-4.187-2.68-1.955 0-3.826.894-3.826 2.848 0 2.01 1.732 2.875 3.63 2.875zM122.391 15.614c0-.727.334-1.088 1.005-1.088.698 0 1.032.361 1.032 1.088v1.34c1.033-1.841 2.988-2.708 4.887-2.708 1.48 0 2.038.67 2.038 1.284a1.09 1.09 0 0 1-1.09 1.09c-.753 0-.948-.196-1.897-.196-1.814 0-3.938 1.898-3.938 4.048v8.768c0 .669-.334 1.004-1.032 1.004-.671 0-1.005-.335-1.005-1.004V15.614zM145.954 21.198c0 1.507-.252 2.262-1.564 2.262h-9.436c0 2.511 2.512 5.052 4.998 5.052 1.562 0 2.541-.307 3.796-1.424.362-.333.81-.501 1.2-.501.531 0 .921.307.921.949 0 .222-.055.419-.194.558-1.313 1.647-3.238 2.484-5.724 2.484-4.606 0-7.205-3.742-7.205-8.151 0-4.104 2.403-8.209 6.758-8.209 4.132 0 6.45 2.904 6.45 6.98zm-2.067.252c0-2.849-1.647-5.166-4.299-5.166-2.68 0-4.606 2.373-4.606 5.166h8.905zM155.417 28.485c1.509 0 3.435-.614 3.435-2.43 0-1.368-1.732-2.15-3.21-2.681-2.541-.922-5.612-2.149-5.612-4.522 0-3.155 2.652-4.551 5.612-4.551 1.451 0 2.986.278 4.327 1.006.363.194.531.585.531.977 0 .643-.419.977-.949.977-.196 0-.419-.055-.616-.168-.669-.391-2.037-.725-3.35-.725-1.646 0-3.35.586-3.35 2.233 0 1.284 2.178 1.953 4.271 2.819 2.289.949 4.634 1.925 4.634 4.439 0 3.434-3.015 4.69-5.778 4.69-2.011 0-3.629-.671-5.166-1.647-.25-.166-.362-.502-.362-.838 0-.781.39-1.146.92-1.146.251 0 .531.113.81.309.978.644 2.29 1.258 3.853 1.258z"/></g></svg>