<svg xmlns="http://www.w3.org/2000/svg" width="201.79" height="65.631" viewBox="0 0 201.79 65.631"><g fill="#FFF"><path d="M66.666 25.008c0-6.134-4.992-11.128-11.128-11.128-4.271 0-7.984 2.419-9.851 5.958l-.002-.002-5.092 9.374-5.128-9.377-.005.004c-1.865-3.538-5.58-5.957-9.848-5.957-6.137 0-11.129 4.994-11.129 11.128 0 2.197.642 4.248 1.747 5.973.028.212.118.418.281.583l.57.582c.373.445.782.861 1.22 1.243l2.456 2.504c.278.469 1.542 2.899-.632 4.739a1.021 1.021 0 1 0 1.32 1.559c2.38-2.014 2.198-4.638 1.537-6.369.843.204 1.723.314 2.63.314 5.703 0 10.414-4.313 11.052-9.85l2.768 5.058-6.081 11.198a8.741 8.741 0 0 0-1.528 4.945c0 .062.008.123.01.186l-.672-.776-.058-.062c-.157-.152-1.6-1.527-3.449-1.488-1.012.014-1.959.445-2.74 1.252a1.024 1.024 0 0 0 1.469 1.423c1.347-1.391 2.905-.088 3.262.249l3.822 4.42c.063.072.137.132.217.184 1.61 2.068 4.117 3.406 6.936 3.406 3.17 0 5.944-1.693 7.493-4.216l.001.003L63.79 32.471l-.002-.004a11.077 11.077 0 0 0 2.878-7.459zM43.775 39.287a8.719 8.719 0 0 0-3.156-.596c-1.122 0-2.19.219-3.178.604l3.159-5.813 3.175 5.805zm4.11 3.255l-6.126-11.199 2.73-5.023c.651 5.52 5.354 9.816 11.048 9.816 1.056 0 2.074-.15 3.042-.426l-9.182 11.48a8.724 8.724 0 0 0-1.512-4.648zm7.652-26.616c5.007 0 9.084 4.075 9.084 9.083 0 5.01-4.077 9.083-9.084 9.083-5.008 0-9.085-4.073-9.085-9.083 0-5.008 4.077-9.083 9.085-9.083zM25.612 34.091a9.031 9.031 0 0 1-5.896-2.181l-1.133-1.152a9.047 9.047 0 0 1-2.057-5.75c0-5.007 4.077-9.083 9.085-9.083 5.007 0 9.083 4.075 9.083 9.083.001 5.011-4.074 9.083-9.082 9.083zm15.007 20.145c-3.722 0-6.751-3.027-6.751-6.748a6.759 6.759 0 0 1 6.751-6.752c3.722 0 6.749 3.028 6.749 6.752a6.756 6.756 0 0 1-6.749 6.748zM77.731 20.769c.847 0 1.513.666 1.513 1.514a1.5 1.5 0 0 1-1.513 1.514 1.5 1.5 0 0 1-1.515-1.514 1.5 1.5 0 0 1 1.515-1.514zm-1.06 7.689c0-.758.395-1.119 1.12-1.119.757 0 1.182.361 1.182 1.119v14.956c0 .757-.395 1.119-1.153 1.119-.754 0-1.149-.362-1.149-1.119V28.458zM84.149 28.791c0-.876.362-1.332 1.121-1.332.726 0 1.12.424 1.12 1.242v1.179c.817-1.605 2.604-2.693 4.39-2.693 1.996 0 3.813 1.271 4.57 3.18.969-1.91 3.059-3.18 5.328-3.18 3.087 0 5.661 2.179 5.661 5.357v10.838c0 .726-.363 1.09-1.119 1.09-.758 0-1.152-.364-1.152-1.09v-9.868c0-2.183-1.301-3.999-3.511-3.999-2.573 0-4.238 2.21-4.238 4.756v9.11c0 .757-.364 1.118-1.09 1.118-.756 0-1.121-.361-1.121-1.118v-9.868c0-2.21-1.333-3.937-3.541-3.937-2.573 0-4.208 2.149-4.208 4.694v9.11c0 .757-.364 1.118-1.09 1.118-.758 0-1.121-.361-1.121-1.118V28.791zM110.576 28.369c0-.79.364-1.182 1.121-1.182.755 0 1.119.392 1.119 1.182v2.3c.667-1.909 2.938-3.481 4.995-3.481 4.693 0 7.053 4.569 7.053 8.96 0 4.389-2.359 8.749-7.053 8.749-2.148 0-4.117-1.091-4.995-2.997v8.386c0 .757-.544 1.212-1.15 1.212-.726 0-1.09-.424-1.09-1.241V28.369zm12.019 7.899c0-2.995-1.209-6.841-4.569-6.841-3.514 0-5.026 3.544-5.026 6.721 0 3.239 1.513 6.689 5.026 6.689 3.36 0 4.569-3.51 4.569-6.569zM135.278 27.309c4.027 0 6.146 2.422 6.146 5.479v10.868c0 .574-.395 1.121-1.12 1.121s-1.091-.516-1.119-1.091c-.032-.575-.032-.758-.032-1.031-1.301 1.394-3.238 2.122-5.176 2.122-2.968 0-5.812-1.666-5.812-5.057 0-3.543 3.239-5.359 6.419-5.359 1.726 0 3.572.515 4.569 1.514V33c0-2.09-1.693-3.482-4.541-3.482-1.967 0-3.238.728-4.178.728-.513 0-1.029-.243-1.029-.938 0-.395.334-.877.85-1.091 1.332-.547 2.936-.908 5.023-.908zm-.906 15.346c2.299 0 4.752-1.209 4.752-3.298 0-1.848-2.301-2.906-4.54-2.906-2.12 0-4.149.969-4.149 3.088 0 2.179 1.877 3.116 3.937 3.116zM144.876 28.67c0-.788.361-1.18 1.09-1.18.757 0 1.119.392 1.119 1.18v1.452c1.12-1.996 3.24-2.935 5.299-2.935 1.604 0 2.21.727 2.21 1.392 0 .604-.484 1.182-1.182 1.182-.817 0-1.028-.214-2.058-.214-1.968 0-4.27 2.06-4.27 4.39v9.508c0 .726-.362 1.088-1.119 1.088-.729 0-1.09-.362-1.09-1.088V28.67zM170.426 34.726c0 1.635-.272 2.453-1.695 2.453H158.5c0 2.721 2.725 5.476 5.418 5.476 1.695 0 2.756-.331 4.117-1.542.393-.362.879-.545 1.302-.545.576 0 .999.333.999 1.029 0 .242-.06.455-.211.604-1.424 1.788-3.512 2.695-6.207 2.695-4.994 0-7.811-4.058-7.811-8.84 0-4.45 2.605-8.9 7.328-8.9 4.478.001 6.991 3.149 6.991 7.57zm-2.24.272c0-3.088-1.786-5.602-4.662-5.602-2.905 0-4.994 2.574-4.994 5.602h9.656zM180.688 42.626c1.636 0 3.725-.666 3.725-2.633 0-1.484-1.878-2.332-3.481-2.908-2.756-1-6.086-2.331-6.086-4.904 0-3.421 2.877-4.935 6.086-4.935 1.573 0 3.238.302 4.691 1.09.395.211.576.635.576 1.06 0 .697-.454 1.059-1.029 1.059-.212 0-.454-.059-.667-.182-.727-.425-2.209-.785-3.632-.785-1.785 0-3.633.633-3.633 2.42 0 1.392 2.361 2.119 4.632 3.057 2.481 1.029 5.024 2.087 5.024 4.814 0 3.723-3.27 5.086-6.266 5.086-2.18 0-3.936-.727-5.6-1.787-.272-.18-.394-.543-.394-.909 0-.847.423-1.241.997-1.241.273 0 .576.123.879.336 1.061.696 2.483 1.362 4.178 1.362z"/></g></svg>