<svg xmlns="http://www.w3.org/2000/svg" xmlns:xlink="http://www.w3.org/1999/xlink" width="113.73" height="100.384" viewBox="0 0 113.73 100.384"><defs><path id="a" d="M50.497 78.404l-4.004-9.322c-6.11-.719-12.007-1.119-17.784-2.169-5.888-1.07-11.312-3.491-15.897-8.148 0 1.596.115 2.716-.02 3.807-.619 4.991 1.969 8.174 5.894 10.597 1.176.728 2.411 1.391 3.688 1.918 9.02 3.727 18.406 4.434 28.123 3.317zm-4.223-23.328c-5.748-.69-11.682-1.153-17.519-2.171-5.915-1.03-11.295-3.512-15.945-8.092 0 2.464.079 4.47-.02 6.466-.139 2.781.877 5.064 2.904 6.845 1.346 1.182 2.816 2.282 4.385 3.136 5.401 2.934 11.29 4.226 17.36 4.646 2.853.197 5.729.034 8.305.034l.53-10.864zM12.81 31.506c0 2.167.088 3.891-.019 5.603-.207 3.3 1.205 5.815 3.716 7.729 1.536 1.168 3.184 2.261 4.928 3.075 7.873 3.676 16.25 4.522 24.812 4.126.455-.021 1.099-.315 1.305-.681 2.066-3.647 4.06-7.338 5.957-10.806-7.018 1.092-14.495 1.197-21.937-.18-6.837-1.265-13.333-3.365-18.762-8.866zm30.36 7.452c1.443-.062 3.484.028 5.466-.279 3.418-.532 6.896-1.012 10.167-2.074 3.194-1.038 6.121-2.877 9.241-4.184 4.392-1.841 6.464-7.693 3.389-11.261-2.06-2.386-4.844-4.499-7.729-5.753-11.441-4.974-23.337-5.108-35.335-2.268-4.78 1.132-9.297 2.931-12.905 6.427-3.552 3.441-3.703 7.61-.104 10.966 1.943 1.812 4.313 3.31 6.728 4.447 6.465 3.05 13.431 3.878 21.082 3.979zm32.029 50.587c14.762.661 27.927-11.263 28.738-25.902.892-16.143-10.964-28.858-25.768-29.89-16.331-1.137-28.701 11.169-29.814 25.557-1.313 16.954 11.92 29.933 26.844 30.235zm.263-58.368c7.013.136 13.159 1.995 18.6 6.018 9.762 7.221 14.512 19.711 11.443 31.439C102.207 81.243 94 89.114 81.126 91.449c-10.623 1.926-19.763-1.438-27.193-9.261-1.101-1.159-2.035-1.586-3.728-1.399-9.942 1.099-19.727.4-29.017-3.645-2.326-1.012-4.521-2.461-6.535-4.02-2.895-2.238-4.345-5.274-4.326-9.059.063-12.471.076-24.941-.003-37.412-.027-4.422 1.784-7.772 5.213-10.366 5.258-3.978 11.394-5.771 17.761-6.654 10.112-1.402 20.147-.992 29.776 2.796 2.553 1.004 4.993 2.443 7.249 4.021 3.53 2.466 5.301 5.977 5.146 10.371-.048 1.378-.007 2.76-.007 4.356z"/></defs><clipPath id="b"><use xlink:href="#a" overflow="visible"/></clipPath><g clip-path="url(#b)"><defs><path id="c" d="M-941.675-7369.106h1440v7951h-1440z"/></defs><clipPath id="d"><use xlink:href="#c" overflow="visible"/></clipPath><path clip-path="url(#d)" fill="#2E1D51" d="M5.325 3.894H111.43v93.087H5.325z"/></g><g><defs><path id="e" d="M57.875 63.87v-4.306c-1.025-.049-2.008.033-2.916-.189-.462-.112-1.216-.616-1.178-1.181.038-.554.931-1.054 1.285-.987 1.352.255 3.312-.017 3.312-.017s.91-2.153 1.465-3.378c5.465-12.046 21.521-13.984 30.137-3.776.659.782 1.545 1.531.493 2.597-.816.824-1.726-.433-2.247-1.024-6.412-7.277-16.6-7.876-23.223-1.108-1.689 1.726-3.172 3.656-4.035 6.506 1.306.09 1.465.133 2.048.135 5.917.009 11.834-.007 17.752.017.898.004 2.22.109 2.076 1.595-.043.456-1.384.651-2.163.664-5.915.094-11.835.052-17.75.052h-2.378v4.371h2.232c5.987 0 11.974-.042 17.959.053.759.012 2.27.273 2.259 1.122-.011.868-1.552 1.082-2.335 1.096-5.637.096-11.275.051-16.915.051h-2.782c.693 1.495 1.118 2.703 1.771 3.771 5.532 9.057 18.513 9.986 25.323 1.842.223-.268 1.358-1.903 2.492-1.121.505.349.245 1.391-.039 1.812-2.101 3.106-5.078 5.134-8.576 6.331-9.242 3.169-19.234-1.482-22.679-10.622-.597-1.58-1.305-2.279-2.963-2.031-.536.08-1.151.066-1.642-.128-.366-.146-.865-.701-.813-.982.08-.429.54-1.045.918-1.108.944-.164 1.933-.057 3.112-.057z"/></defs><clipPath id="f"><use xlink:href="#e" overflow="visible"/></clipPath><g clip-path="url(#f)"><defs><path id="g" d="M-941.675-7369.106h1440v7951h-1440z"/></defs><clipPath id="h"><use xlink:href="#g" overflow="visible"/></clipPath><path clip-path="url(#h)" fill="#2E1D51" d="M48.781 38.442h47.178v46.346H48.781z"/></g></g></svg>