<svg xmlns="http://www.w3.org/2000/svg" xmlns:xlink="http://www.w3.org/1999/xlink" width="23.392" height="31.448" viewBox="-4.5 0 23.392 31.448"><defs><path id="a" d="M7.068 2.668c-2.388 0-4.329 1.856-4.329 4.137s1.941 4.139 4.329 4.139c2.387 0 4.327-1.857 4.327-4.139 0-2.281-1.94-4.137-4.327-4.137zm0 9.511c-3.079 0-5.583-2.41-5.583-5.374 0-2.962 2.504-5.373 5.583-5.373 3.078 0 5.582 2.411 5.582 5.373 0 2.964-2.504 5.374-5.582 5.374z"/></defs><clipPath id="b"><use xlink:href="#a" overflow="visible"/></clipPath><g clip-path="url(#b)"><defs><path id="c" d="M-1268.213-53.979H237.258v8312.506h-1505.471z"/></defs><clipPath id="d"><use xlink:href="#c" overflow="visible"/></clipPath><path clip-path="url(#d)" fill="#FFF" d="M-3.743-3.795h21.62v21.201h-21.62z"/></g><g><defs><path id="e" d="M-.804 27.379h15.889c.042-.068.116-.281.077-.917a1.701 1.701 0 0 1-.007-.134c-.109-8.198-2.51-11.695-8.024-11.695-5.614 0-7.939 3.443-8.026 11.882-.005.381.042.697.091.864zm15.899 1.235H-1.008a.934.934 0 0 1-.659-.275c-.41-.409-.489-1.225-.483-1.836.043-4.145.593-7.034 1.729-9.092 1.472-2.663 4.012-4.014 7.552-4.014 8.07 0 9.198 6.902 9.279 12.916l.004.073c.025.397.083 1.324-.43 1.859a1.195 1.195 0 0 1-.889.369z"/></defs><clipPath id="f"><use xlink:href="#e" overflow="visible"/></clipPath><g clip-path="url(#f)"><defs><path id="g" d="M-1268.213-53.979H237.258v8312.506h-1505.471z"/></defs><clipPath id="h"><use xlink:href="#g" overflow="visible"/></clipPath><path clip-path="url(#h)" fill="#FFF" d="M-7.378 8.17h29.035v25.672H-7.378z"/></g></g></svg>