<svg xmlns="http://www.w3.org/2000/svg" width="100" height="100" viewBox="0 0 100 100"><path fill="none" d="M86.719 10.757c-.752-.742-1.531-.742-2.289-.005-1.365 1.328-2.725 2.664-4.014 3.929 2.148 2.158 4.223 4.238 6.361 6.384 1.301-1.308 2.682-2.672 4.033-4.064.697-.72.648-1.489-.045-2.193a482.947 482.947 0 0 0-4.046-4.051z"/><path fill="none" d="M86.719 10.757c-.752-.742-1.531-.742-2.289-.005-1.365 1.328-2.725 2.664-4.014 3.929 2.148 2.158 4.223 4.238 6.361 6.384 1.301-1.308 2.682-2.672 4.033-4.064.697-.72.648-1.489-.045-2.193a482.947 482.947 0 0 0-4.046-4.051zM85.213 26.65c-.127.149-.24.285-.342.41l.342-.331v-.079z"/><path fill="#2E1D51" d="M95.211 14.078a91.933 91.933 0 0 0-4.314-4.316c-1.895-1.775-4.512-1.714-6.377.094-1.25 1.215-7.705 7.631-7.705 7.631s-27.901 27.96-41.292 41.398c-.524.525-.938 1.26-1.152 1.973-.833 2.771-1.639 5.559-2.302 8.375-.349 1.477-.966 2.674-2.104 3.674-.917.807-.978 1.707-.331 2.365.664.676 1.605.666 2.366-.266 1.069-1.309 2.47-1.84 4.024-2.234a211.206 211.206 0 0 0 8.143-2.232c.675-.201 1.372-.594 1.867-1.088 13.104-13.062 45.424-45.44 45.588-45.585 1.23-1.109 2.398-2.299 3.527-3.516 1.777-1.914 1.808-4.409.062-6.273zM34.974 69.977l1.707-6.328 4.598 4.596c-1.967.538-4.02 1.105-6.305 1.732zm9.384-3.51c-1.892-1.9-3.934-3.951-5.866-5.895l37.725-37.728 5.881 5.885-37.74 37.738zm40.076-40.164c-1.885-1.883-3.936-3.931-5.939-5.935l1.758-1.943 6.268 6.263-2.087 1.615zm8.568-8.053c-1.35 1.392-2.73 2.756-4.031 4.064l-6.363-6.384c1.291-1.265 2.65-2.601 4.014-3.929.76-.737 1.537-.737 2.291.005a482.69 482.69 0 0 1 4.045 4.05c.694.705.741 1.473.044 2.194z"/><path fill="#2E1D51" d="M79.986 88.043H14.764c-4.136 0-7.5-3.104-7.5-6.916V21.23c0-3.814 3.364-6.917 7.5-6.917h54.65a1.5 1.5 0 1 1 0 3h-54.65c-2.481 0-4.5 1.757-4.5 3.917v59.897c0 2.158 2.019 3.916 4.5 3.916h65.223c2.482 0 4.5-1.758 4.5-3.916V39.748a1.5 1.5 0 1 1 3 0v41.379c-.001 3.812-3.364 6.916-7.501 6.916z"/></svg>