<svg xmlns="http://www.w3.org/2000/svg" xmlns:xlink="http://www.w3.org/1999/xlink" width="841.89" height="595.28" viewBox="0 0 841.89 595.28"><defs><path id="a" d="M28.051 16.342c-2.283 0-4.141 1.774-4.141 3.957 0 2.182 1.857 3.958 4.141 3.958s4.14-1.776 4.14-3.958c-.001-2.183-1.857-3.957-4.14-3.957zm0 9.096c-2.945 0-5.34-2.306-5.34-5.14 0-2.833 2.395-5.139 5.34-5.139 2.944 0 5.34 2.306 5.34 5.139 0 2.834-2.396 5.14-5.34 5.14z"/></defs><clipPath id="b"><use xlink:href="#a" overflow="visible"/></clipPath><g clip-path="url(#b)"><defs><path id="c" d="M-1191.77-37.841h1440v7950.999h-1440z"/></defs><clipPath id="d"><use xlink:href="#c" overflow="visible"/></clipPath><path clip-path="url(#d)" fill="#FFF" d="M17.711 10.159h20.68v20.279h-20.68z"/></g><g><defs><path id="e" d="M20.521 39.977h15.197c.04-.064.111-.267.074-.877a1.539 1.539 0 0 1-.007-.128c-.104-7.842-2.4-11.187-7.676-11.187-5.37 0-7.594 3.293-7.677 11.366a3.21 3.21 0 0 0 .089.826zm15.208 1.182H20.326a.893.893 0 0 1-.631-.264c-.393-.391-.468-1.171-.462-1.756.041-3.964.566-6.727 1.654-8.697 1.407-2.547 3.837-3.839 7.223-3.839 7.72 0 8.799 6.602 8.876 12.354l.004.07c.024.38.079 1.266-.411 1.778a1.142 1.142 0 0 1-.85.354z"/></defs><clipPath id="f"><use xlink:href="#e" overflow="visible"/></clipPath><g clip-path="url(#f)"><defs><path id="g" d="M-1191.77-37.841h1440v7950.999h-1440z"/></defs><clipPath id="h"><use xlink:href="#g" overflow="visible"/></clipPath><path clip-path="url(#h)" fill="#FFF" d="M14.233 21.604h27.772V46.16H14.233z"/></g></g></svg>