<svg xmlns="http://www.w3.org/2000/svg" width="110.667" height="100" viewBox="-4.5 0 110.667 100"><path fill="#2C0C52" d="M51.603 85.334l-.567-.005C33.371 85.052 17.617 72.511 9.798 65.06c-3.024-2.881-3.303-5.018-3.328-5.416a1.442 1.442 0 0 1-.002-.147c.01-.27.183-2.728 3.292-5.966 7.012-7.299 21.624-19.545 40.714-19.545l.604.004c19.255.262 34.438 12.483 41.774 19.745 3.274 3.238 3.58 5.691 3.604 5.961.012.133.006.268-.018.399-.048.263-.562 2.65-3.996 5.816-7.865 7.253-23.631 19.423-40.839 19.423zM9.484 59.528c.086.312.52 1.584 2.384 3.359 7.501 7.148 22.571 19.182 39.214 19.441l.521.005c16.188 0 31.263-11.672 38.808-18.63 2.094-1.93 2.799-3.398 3.007-3.945-.155-.516-.729-1.971-2.673-3.893-7.016-6.944-21.504-18.63-39.706-18.877l-.563-.004c-17.977 0-31.869 11.668-38.55 18.624-1.941 2.02-2.359 3.508-2.442 3.92z"/><path fill="#2C0C52" d="M50.55 75.585c-8.782 0-15.926-7.145-15.926-15.926 0-8.782 7.144-15.926 15.926-15.926 8.78 0 15.925 7.144 15.925 15.926 0 8.781-7.145 15.926-15.925 15.926zm0-28.852c-7.128 0-12.926 5.798-12.926 12.926 0 7.127 5.798 12.926 12.926 12.926 7.127 0 12.925-5.799 12.925-12.926 0-7.128-5.798-12.926-12.925-12.926zM12.263 43.564c-.377 0-.754-.141-1.046-.425L-1.09 31.165a1.5 1.5 0 1 1 2.092-2.15L13.309 40.99a1.5 1.5 0 0 1-1.046 2.574zM50.55 27.676a1.5 1.5 0 0 1-1.5-1.5V10.589a1.5 1.5 0 1 1 3 0v15.587a1.5 1.5 0 0 1-1.5 1.5zM91.934 44.64a1.5 1.5 0 0 1-1.121-2.494l10.82-12.21a1.5 1.5 0 1 1 2.244 1.989l-10.82 12.21a1.497 1.497 0 0 1-1.123.505zM71.915 32.176a1.5 1.5 0 0 1-1.371-2.106L76.9 15.674a1.5 1.5 0 0 1 2.745 1.212l-6.356 14.395a1.502 1.502 0 0 1-1.374.895zM29.107 31.752a1.5 1.5 0 0 1-1.333-.81L20.532 16.97a1.5 1.5 0 0 1 2.663-1.381l7.243 13.972a1.5 1.5 0 0 1-1.331 2.191z"/></svg>