<svg xmlns="http://www.w3.org/2000/svg" width="110.667" height="100" viewBox="-4.5 0 110.667 100"><path fill="#2C0C52" d="M80.84 80.5H10.91c-4.401 0-8.41-4.312-8.41-8.5V14c0-3.991 3.615-6.5 8.41-6.5h69.93c4.51 0 7.66 2.378 7.66 6.5v58c0 3.848-2.929 8.5-7.66 8.5zm-69.93-70c-2.623 0-5.41.902-5.41 3.5v58c0 2.57 2.629 5.5 5.41 5.5h69.93c2.879 0 4.66-3.096 4.66-5.5V14c0-2.467-1.785-3.5-4.66-3.5H10.91z"/><path fill="#FFF" d="M93.84 21.5c3.678 0 5.66 1.187 5.66 4.5v58c0 3.313-1.982 7.5-5.66 7.5H23.91c-3.678 0-7.41-4.187-7.41-7.5V26c0-3.313 3.732-4.5 7.41-4.5h69.93z"/><path fill="#2C0C52" d="M93.84 92.5H23.91c-4.401 0-8.41-4.312-8.41-8.5V26c0-3.991 3.615-6.5 8.41-6.5h69.93c4.51 0 7.66 2.378 7.66 6.5v58c0 3.848-2.929 8.5-7.66 8.5zm-69.93-70c-2.623 0-5.41.902-5.41 3.5v58c0 2.57 2.629 5.5 5.41 5.5h69.93c2.879 0 4.66-3.096 4.66-5.5V26c0-2.467-1.785-3.5-4.66-3.5H23.91z"/><path fill-rule="evenodd" clip-rule="evenodd" fill="#FFF" d="M71.621 57c0 7.246-5.873 13.121-13.118 13.121-7.25 0-13.124-5.875-13.124-13.121 0-7.247 5.874-13.122 13.124-13.122 7.245 0 13.118 5.875 13.118 13.122z"/><path fill="#2C0C52" d="M58.503 71.621c-8.063 0-14.624-6.559-14.624-14.621s6.561-14.622 14.624-14.622c8.061 0 14.618 6.559 14.618 14.622s-6.558 14.621-14.618 14.621zm0-26.243c-6.409 0-11.624 5.213-11.624 11.622s5.215 11.621 11.624 11.621c6.406 0 11.618-5.213 11.618-11.621s-5.212-11.622-11.618-11.622z"/><path fill-rule="evenodd" clip-rule="evenodd" fill="#2C0C52" d="M54.078 57.006c0-1.768.005-3.537-.002-5.305-.002-.383.105-.696.447-.895.359-.205.688-.127 1.024.083 2.808 1.768 5.618 3.53 8.435 5.288.321.201.547.441.531.844a.821.821 0 0 1-.398.703 6959.163 6959.163 0 0 0-8.64 5.42c-.31.195-.618.23-.94.053-.324-.18-.463-.469-.463-.828 0-1.394.004-2.787.006-4.182.002-.393 0-.788 0-1.181z"/></svg>