<svg xmlns="http://www.w3.org/2000/svg" width="53" height="115" viewBox="0 0 53 115"><g fill-rule="evenodd" clip-rule="evenodd" fill="#FFF"><path d="M30.042 3.614c1.531.536 3.116.956 4.586 1.628 7.224 3.303 11.514 8.881 11.695 16.879.262 11.409.254 22.833.002 34.241-.225 10.248-8.86 18.199-19.199 18.196C16.78 74.554 8.172 66.614 7.94 56.35c-.256-11.312-.201-22.637-.035-33.953.128-8.748 6.006-15.879 14.463-18.141.635-.17 1.246-.426 1.868-.643l5.806.001zM10.343 39.1c0 5.313-.058 10.628.013 15.94.127 9.596 7.576 17.073 16.869 17.021 9.182-.053 16.579-7.447 16.677-16.916.11-10.626.104-21.255.006-31.881-.09-9.688-7.468-17.008-16.87-16.952-9.408.056-16.585 7.397-16.688 17.137-.054 5.217-.009 10.434-.007 15.651zM27.12 98.189l8.357-8.354c.343-.344.644-.758 1.046-1.006.301-.186.733-.16 1.108-.229-.053.419-.068.847-.177 1.25-.049.182-.284.312-.438.465-2.898 2.9-5.825 5.773-8.68 8.717-.854.881-1.425 1.018-2.347.062-2.885-2.989-5.873-5.877-8.771-8.854-.369-.379-.438-1.051-.646-1.587.53.183 1.204.219 1.567.572 2.974 2.9 5.888 5.86 8.981 8.964z"/><path d="M27.179 108.217c2.915-2.918 5.765-5.771 8.616-8.622.305-.305.583-.661.942-.876.223-.133.762-.153.835-.03.157.262.136.651.119.985-.006.125-.196.244-.312.359-3.126 3.127-6.263 6.244-9.371 9.39-.638.645-1.116.636-1.75-.005-3.108-3.145-6.26-6.248-9.347-9.413-.264-.271-.172-.887-.246-1.343.415.121.953.117 1.226.383 2.664 2.599 5.281 5.244 7.916 7.872.413.41.843.8 1.372 1.3zM26.922 23.632c-2.094-.113-3.794-1.992-3.663-4.049.131-2.061 2.057-3.792 4.081-3.668 2.061.127 3.777 2.042 3.66 4.085-.119 2.086-1.982 3.746-4.078 3.632z"/></g></svg>