<svg xmlns="http://www.w3.org/2000/svg" width="70" height="60.5" viewBox="-4.5 0 70 60.5"><path fill="#FFF" d="M55.012 53.5H7.713c-2.126 0-4.213-2.625-4.213-5.27V11.77c0-2.645 2.087-4.27 4.213-4.27h47.299c2.126 0 4.488 1.625 4.488 4.27v36.46c0 2.645-2.362 5.27-4.488 5.27zM7.713 9.5c-1.275 0-2.213.683-2.213 2.27v36.46c0 1.588.938 3.27 2.213 3.27h47.299c1.275 0 2.488-1.682 2.488-3.27V11.77c0-1.587-1.213-2.27-2.488-2.27H7.713z"/><path fill="#FFF" d="M31.362 31.919c-3.755 0-7.971-4.439-8.148-4.629L4.938 9.995c-.339-.321-.405-.924-.147-1.345.258-.422.742-.504 1.08-.183l18.311 17.331c.073.076 3.997 4.202 7.18 4.202 2.242 0 6.908-4.073 8.518-5.643L56.855 8.464c.341-.32.824-.234 1.081.189.256.423.188 1.025-.153 1.343L40.819 25.879c-.623.608-6.283 6.04-9.457 6.04z"/></svg>