<svg xmlns="http://www.w3.org/2000/svg" width="49.158" height="47.21" viewBox="0 0 49.158 47.21"><path fill="#A52832" d="M25.288 40.372h-.158c-8.906 0-16.127-7.22-16.127-16.128v-.155c0-8.907 7.221-16.129 16.127-16.129h.158c8.904 0 16.125 7.222 16.125 16.129v.155c0 8.908-7.221 16.128-16.125 16.128z"/><path fill="#FFF" d="M33.479 19.037a6.779 6.779 0 0 1-1.949.534 3.399 3.399 0 0 0 1.492-1.878 6.744 6.744 0 0 1-2.154.824 3.395 3.395 0 0 0-5.784 3.094 9.63 9.63 0 0 1-6.996-3.546 3.397 3.397 0 0 0 1.051 4.532 3.344 3.344 0 0 1-1.535-.426v.044a3.395 3.395 0 0 0 2.721 3.327 3.38 3.38 0 0 1-1.534.058 3.395 3.395 0 0 0 3.17 2.357 6.804 6.804 0 0 1-4.215 1.453c-.273 0-.543-.016-.811-.047a9.631 9.631 0 0 0 5.205 1.523c6.24 0 9.654-5.171 9.654-9.655 0-.146-.004-.294-.008-.439a6.925 6.925 0 0 0 1.693-1.755z"/></svg>