<?xml version="1.0" encoding="utf-8"?>
<!-- Generator: Adobe Illustrator 16.0.0, SVG Export Plug-In . SVG Version: 6.00 Build 0)  -->
<!DOCTYPE svg PUBLIC "-//W3C//DTD SVG 1.1//EN" "http://www.w3.org/Graphics/SVG/1.1/DTD/svg11.dtd">
<svg version="1.1" id="Capa_1" xmlns="http://www.w3.org/2000/svg" xmlns:xlink="http://www.w3.org/1999/xlink" x="0px" y="0px"
	 width="841.89px" height="595.28px" viewBox="0 0 841.89 595.28" enable-background="new 0 0 841.89 595.28" xml:space="preserve">
<g>
	<defs>
		<path id="SVGID_1_" d="M16.435,14.492c-0.494,0-0.897,0.417-0.897,0.931V39.9c0,0.512,0.403,0.931,0.897,0.931h14.637
			c0.494,0,0.897-0.418,0.897-0.931V15.422c0-0.514-0.403-0.931-0.897-0.931H16.435z M31.071,42.161H16.435
			c-1.203,0-2.182-1.014-2.182-2.261V15.422c0-1.247,0.979-2.261,2.182-2.261h14.637c1.203,0,2.182,1.015,2.182,2.261V39.9
			C33.253,41.147,32.274,42.161,31.071,42.161z"/>
	</defs>
	<clipPath id="SVGID_2_">
		<use xlink:href="#SVGID_1_"  overflow="visible"/>
	</clipPath>
	<g clip-path="url(#SVGID_2_)">
		<defs>
			<rect id="SVGID_3_" x="-1247.747" y="-36.839" width="1440" height="7950.999"/>
		</defs>
		<clipPath id="SVGID_4_">
			<use xlink:href="#SVGID_3_"  overflow="visible"/>
		</clipPath>
		<rect x="9.253" y="8.161" clip-path="url(#SVGID_4_)" fill="#FFFFFF" width="29" height="39"/>
	</g>
</g>
<g>
	<defs>
		<path id="SVGID_5_" d="M29.144,26.702c-0.4,0-0.727,0.338-0.727,0.754c0,0.415,0.326,0.753,0.727,0.753
			c0.401,0,0.729-0.339,0.729-0.753C29.872,27.041,29.546,26.702,29.144,26.702z M27.133,27.457c0-1.149,0.902-2.084,2.011-2.084
			c1.11,0,2.013,0.935,2.013,2.084c0,1.149-0.902,2.084-2.013,2.084C28.035,29.541,27.133,28.605,27.133,27.457z"/>
	</defs>
	<clipPath id="SVGID_6_">
		<use xlink:href="#SVGID_5_"  overflow="visible"/>
	</clipPath>
	<g clip-path="url(#SVGID_6_)">
		<defs>
			<rect id="SVGID_7_" x="-1247.747" y="-36.839" width="1440" height="7950.999"/>
		</defs>
		<clipPath id="SVGID_8_">
			<use xlink:href="#SVGID_7_"  overflow="visible"/>
		</clipPath>
		<rect x="22.133" y="20.373" clip-path="url(#SVGID_8_)" fill="#FFFFFF" width="14.023" height="14.168"/>
	</g>
</g>
<g>
	<defs>
		<path id="SVGID_9_" d="M100.589,108.551l1.988,10.892c0.008,0.044,0.012,0.088,0.012,0.133c0,0.312,0.227,0.616,0.32,0.616h16.146
			c0.094,0,0.318-0.305,0.318-0.616c0-0.045,0.005-0.089,0.012-0.133l1.988-10.892c-0.019-0.16-0.122-0.241-0.312-0.241h-20.16
			C100.712,108.31,100.607,108.391,100.589,108.551z M119.059,121.676h-16.154c-1.036,0-1.768-1.053-1.804-2.025l-1.992-10.915
			c-0.008-0.044-0.012-0.089-0.012-0.133c0-1.014,0.776-1.778,1.805-1.778h20.16c1.029,0,1.805,0.764,1.805,1.778
			c0,0.044-0.004,0.089-0.012,0.133l-1.992,10.915C120.826,120.624,120.096,121.676,119.059,121.676z"/>
	</defs>
	<clipPath id="SVGID_10_">
		<use xlink:href="#SVGID_9_"  overflow="visible"/>
	</clipPath>
	<g clip-path="url(#SVGID_10_)">
		<defs>
			<rect id="SVGID_11_" x="-1214.903" y="53.667" width="1440" height="7951"/>
		</defs>
		<clipPath id="SVGID_12_">
			<use xlink:href="#SVGID_11_"  overflow="visible"/>
		</clipPath>
		<rect x="94.097" y="101.826" clip-path="url(#SVGID_12_)" fill="#FFFFFF" width="33.77" height="24.851"/>
	</g>
</g>
<g>
	<defs>
		<path id="SVGID_13_" d="M122.124,109.134c-0.046,0-0.094-0.004-0.142-0.013c-0.404-0.078-0.669-0.466-0.592-0.87l0.954-4.982
			c0.067-0.35,0.375-0.603,0.731-0.603h3.127c0.412,0,0.745,0.332,0.745,0.743c0,0.41-0.333,0.742-0.745,0.742h-2.511l-0.838,4.379
			C122.785,108.887,122.473,109.134,122.124,109.134z"/>
	</defs>
	<clipPath id="SVGID_14_">
		<use xlink:href="#SVGID_13_"  overflow="visible"/>
	</clipPath>
	<g clip-path="url(#SVGID_14_)">
		<defs>
			<rect id="SVGID_15_" x="-1214.903" y="53.667" width="1440" height="7951"/>
		</defs>
		<clipPath id="SVGID_16_">
			<use xlink:href="#SVGID_15_"  overflow="visible"/>
		</clipPath>
		<rect x="116.377" y="97.667" clip-path="url(#SVGID_16_)" fill="#FFFFFF" width="15.57" height="16.467"/>
	</g>
</g>
<g>
	<defs>
		<path id="SVGID_17_" d="M118.151,126.131h-0.003l-15.13-0.048c-0.411,0-0.744-0.354-0.744-0.762c0-0.41,0.333-0.752,0.744-0.752
			l0.001-0.005l15.131,0.006c0.1-0.001,0.411-0.023,0.646-0.114c0.021-0.026,0.062-0.165,0.066-0.208l0.518-4.953
			c0.042-0.406,0.407-0.707,0.816-0.66c0.409,0.042,0.706,0.406,0.664,0.814l-0.515,4.942c-0.009,0.103-0.124,1.144-1.011,1.486
			C118.802,126.086,118.227,126.131,118.151,126.131z"/>
	</defs>
	<clipPath id="SVGID_18_">
		<use xlink:href="#SVGID_17_"  overflow="visible"/>
	</clipPath>
	<g clip-path="url(#SVGID_18_)">
		<defs>
			<rect id="SVGID_19_" x="-1214.903" y="53.667" width="1440" height="7951"/>
		</defs>
		<clipPath id="SVGID_20_">
			<use xlink:href="#SVGID_19_"  overflow="visible"/>
		</clipPath>
		<rect x="97.274" y="113.631" clip-path="url(#SVGID_20_)" fill="#FFFFFF" width="28.59" height="17.5"/>
	</g>
</g>
<g>
	<defs>
		<path id="SVGID_21_" d="M105.24,127.692c-0.854,0-1.552,0.733-1.552,1.634c0,0.9,0.697,1.633,1.552,1.633
			c0.856,0,1.553-0.733,1.553-1.633C106.792,128.425,106.096,127.692,105.24,127.692z M105.24,132.444
			c-1.677,0-3.041-1.398-3.041-3.118s1.364-3.119,3.041-3.119c1.678,0,3.043,1.4,3.043,3.119S106.917,132.444,105.24,132.444z"/>
	</defs>
	<clipPath id="SVGID_22_">
		<use xlink:href="#SVGID_21_"  overflow="visible"/>
	</clipPath>
	<g clip-path="url(#SVGID_22_)">
		<defs>
			<rect id="SVGID_23_" x="-1214.903" y="53.667" width="1440" height="7951"/>
		</defs>
		<clipPath id="SVGID_24_">
			<use xlink:href="#SVGID_23_"  overflow="visible"/>
		</clipPath>
		<rect x="97.199" y="121.208" clip-path="url(#SVGID_24_)" fill="#FFFFFF" width="16.084" height="16.237"/>
	</g>
</g>
<g>
	<defs>
		<path id="SVGID_25_" d="M117.155,127.692c-0.855,0-1.552,0.733-1.552,1.634c0,0.9,0.696,1.633,1.552,1.633
			c0.856,0,1.553-0.733,1.553-1.633C118.708,128.425,118.011,127.692,117.155,127.692z M117.155,132.444
			c-1.677,0-3.041-1.398-3.041-3.118s1.364-3.119,3.041-3.119c1.678,0,3.041,1.4,3.041,3.119S118.833,132.444,117.155,132.444z"/>
	</defs>
	<clipPath id="SVGID_26_">
		<use xlink:href="#SVGID_25_"  overflow="visible"/>
	</clipPath>
	<g clip-path="url(#SVGID_26_)">
		<defs>
			<rect id="SVGID_27_" x="-1214.903" y="53.667" width="1440" height="7951"/>
		</defs>
		<clipPath id="SVGID_28_">
			<use xlink:href="#SVGID_27_"  overflow="visible"/>
		</clipPath>
		<rect x="109.114" y="121.208" clip-path="url(#SVGID_28_)" fill="#FFFFFF" width="16.082" height="16.237"/>
	</g>
</g>
</svg>
