<?xml version="1.0" encoding="utf-8"?>
<!-- Generator: Adobe Illustrator 16.0.0, SVG Export Plug-In . SVG Version: 6.00 Build 0)  -->
<!DOCTYPE svg PUBLIC "-//W3C//DTD SVG 1.1//EN" "http://www.w3.org/Graphics/SVG/1.1/DTD/svg11.dtd">
<svg version="1.1" id="Capa_1" xmlns="http://www.w3.org/2000/svg" xmlns:xlink="http://www.w3.org/1999/xlink" x="0px" y="0px"
	 width="29.667px" height="31.448px" viewBox="-6.5 0 29.667 31.448" enable-background="new -6.5 0 29.667 31.448"
	 xml:space="preserve">
<g>
	<g>
		<defs>
			<path id="SVGID_1_" d="M-2.441,7.932l1.822,9.979c0.007,0.041,0.011,0.081,0.011,0.122c0,0.286,0.208,0.564,0.293,0.564h14.793
				c0.086,0,0.292-0.279,0.292-0.564c0-0.041,0.004-0.081,0.011-0.122l1.822-9.979c-0.017-0.146-0.112-0.221-0.287-0.221H-2.155
				C-2.329,7.711-2.425,7.785-2.441,7.932z M14.48,19.957H-0.32c-0.949,0-1.619-0.965-1.652-1.856l-1.825-10
				C-3.805,8.061-3.809,8.02-3.809,7.979c0-0.929,0.711-1.628,1.653-1.628h18.471c0.943,0,1.653,0.7,1.653,1.628
				c0,0.041-0.003,0.082-0.011,0.122l-1.825,10C16.099,18.992,15.431,19.957,14.48,19.957z"/>
		</defs>
		<clipPath id="SVGID_2_">
			<use xlink:href="#SVGID_1_"  overflow="visible"/>
		</clipPath>
		<g clip-path="url(#SVGID_2_)">
			<defs>
				<rect id="SVGID_3_" x="-1207.69" y="-42.354" width="1319.322" height="7284.677"/>
			</defs>
			<clipPath id="SVGID_4_">
				<use xlink:href="#SVGID_3_"  overflow="visible"/>
			</clipPath>
			<rect x="-8.39" y="1.77" clip-path="url(#SVGID_4_)" fill="#FFFFFF" width="30.939" height="22.768"/>
		</g>
	</g>
	<g>
		<defs>
			<path id="SVGID_5_" d="M17.288,8.465c-0.042,0-0.086-0.003-0.13-0.011c-0.37-0.071-0.613-0.427-0.542-0.797l0.874-4.565
				c0.062-0.32,0.344-0.552,0.67-0.552h2.865c0.377,0,0.683,0.304,0.683,0.681c0,0.375-0.305,0.68-0.683,0.68h-2.3l-0.768,4.012
				C17.894,8.239,17.608,8.465,17.288,8.465z"/>
		</defs>
		<clipPath id="SVGID_6_">
			<use xlink:href="#SVGID_5_"  overflow="visible"/>
		</clipPath>
		<g clip-path="url(#SVGID_6_)">
			<defs>
				<rect id="SVGID_7_" x="-1207.69" y="-42.354" width="1319.322" height="7284.677"/>
			</defs>
			<clipPath id="SVGID_8_">
				<use xlink:href="#SVGID_7_"  overflow="visible"/>
			</clipPath>
			<rect x="12.023" y="-2.041" clip-path="url(#SVGID_8_)" fill="#FFFFFF" width="14.266" height="15.087"/>
		</g>
	</g>
	<g>
		<defs>
			<path id="SVGID_9_" d="M13.648,24.039h-0.003l-13.862-0.044c-0.376,0-0.682-0.324-0.682-0.698c0-0.375,0.305-0.689,0.682-0.689
				l0.001-0.004l13.863,0.006c0.091-0.001,0.376-0.021,0.591-0.104c0.019-0.024,0.057-0.151,0.061-0.19l0.474-4.538
				c0.039-0.372,0.373-0.647,0.748-0.604c0.375,0.038,0.647,0.372,0.608,0.746l-0.472,4.528c-0.008,0.094-0.114,1.048-0.926,1.362
				C14.245,23.997,13.718,24.039,13.648,24.039z"/>
		</defs>
		<clipPath id="SVGID_10_">
			<use xlink:href="#SVGID_9_"  overflow="visible"/>
		</clipPath>
		<g clip-path="url(#SVGID_10_)">
			<defs>
				<rect id="SVGID_11_" x="-1207.69" y="-42.354" width="1319.322" height="7284.677"/>
			</defs>
			<clipPath id="SVGID_12_">
				<use xlink:href="#SVGID_11_"  overflow="visible"/>
			</clipPath>
			<rect x="-5.479" y="12.586" clip-path="url(#SVGID_12_)" fill="#FFFFFF" width="26.194" height="16.034"/>
		</g>
	</g>
	<g>
		<defs>
			<path id="SVGID_13_" d="M1.819,25.469c-0.783,0-1.422,0.671-1.422,1.498c0,0.824,0.639,1.496,1.422,1.496
				c0.785,0,1.422-0.671,1.422-1.496C3.242,26.14,2.604,25.469,1.819,25.469z M1.819,29.823c-1.536,0-2.786-1.281-2.786-2.856
				s1.25-2.858,2.786-2.858c1.537,0,2.788,1.283,2.788,2.858S3.356,29.823,1.819,29.823z"/>
		</defs>
		<clipPath id="SVGID_14_">
			<use xlink:href="#SVGID_13_"  overflow="visible"/>
		</clipPath>
		<g clip-path="url(#SVGID_14_)">
			<defs>
				<rect id="SVGID_15_" x="-1207.69" y="-42.354" width="1319.322" height="7284.677"/>
			</defs>
			<clipPath id="SVGID_16_">
				<use xlink:href="#SVGID_15_"  overflow="visible"/>
			</clipPath>
			<rect x="-5.548" y="19.527" clip-path="url(#SVGID_16_)" fill="#FFFFFF" width="14.736" height="14.876"/>
		</g>
	</g>
	<g>
		<defs>
			<path id="SVGID_17_" d="M12.736,25.469c-0.784,0-1.422,0.671-1.422,1.498c0,0.824,0.638,1.496,1.422,1.496
				c0.785,0,1.422-0.671,1.422-1.496C14.158,26.14,13.521,25.469,12.736,25.469z M12.736,29.823c-1.536,0-2.786-1.281-2.786-2.856
				s1.25-2.858,2.786-2.858c1.537,0,2.786,1.283,2.786,2.858S14.273,29.823,12.736,29.823z"/>
		</defs>
		<clipPath id="SVGID_18_">
			<use xlink:href="#SVGID_17_"  overflow="visible"/>
		</clipPath>
		<g clip-path="url(#SVGID_18_)">
			<defs>
				<rect id="SVGID_19_" x="-1207.69" y="-42.354" width="1319.322" height="7284.677"/>
			</defs>
			<clipPath id="SVGID_20_">
				<use xlink:href="#SVGID_19_"  overflow="visible"/>
			</clipPath>
			<rect x="5.369" y="19.527" clip-path="url(#SVGID_20_)" fill="#FFFFFF" width="14.734" height="14.876"/>
		</g>
	</g>
</g>
</svg>
