<?xml version="1.0" encoding="utf-8"?>
<!-- Generator: Adobe Illustrator 16.0.0, SVG Export Plug-In . SVG Version: 6.00 Build 0)  -->
<!DOCTYPE svg PUBLIC "-//W3C//DTD SVG 1.1//EN" "http://www.w3.org/Graphics/SVG/1.1/DTD/svg11.dtd">
<svg version="1.1" id="Capa_1" xmlns="http://www.w3.org/2000/svg" xmlns:xlink="http://www.w3.org/1999/xlink" x="0px" y="0px"
	 width="102px" height="88px" viewBox="0 0 102 88" enable-background="new 0 0 102 88" xml:space="preserve">
<g>
	<g>
		<defs>
			<path id="SVGID_1_" d="M44.564,71.937c-1.461-3.403-2.84-6.613-4.004-9.322c-6.109-0.719-12.006-1.119-17.783-2.168
				c-5.889-1.07-11.312-3.492-15.898-8.149c0,1.597,0.115,2.716-0.02,3.808c-0.619,4.99,1.969,8.174,5.895,10.596
				c1.176,0.729,2.41,1.391,3.688,1.918C25.463,72.347,34.848,73.054,44.564,71.937z M40.342,48.608
				c-5.748-0.689-11.682-1.153-17.518-2.17c-5.916-1.031-11.295-3.513-15.945-8.093c0,2.464,0.078,4.47-0.02,6.466
				c-0.139,2.781,0.877,5.064,2.904,6.845c1.346,1.183,2.816,2.282,4.385,3.136c5.4,2.934,11.289,4.225,17.359,4.646
				c2.854,0.197,5.729,0.033,8.305,0.033C40.004,55.571,40.182,51.917,40.342,48.608z M6.879,25.038c0,2.167,0.088,3.892-0.02,5.604
				c-0.207,3.299,1.205,5.814,3.717,7.728c1.535,1.168,3.184,2.261,4.928,3.075c7.873,3.676,16.25,4.522,24.811,4.127
				c0.455-0.021,1.1-0.316,1.305-0.682c2.066-3.646,4.061-7.338,5.957-10.806c-7.018,1.093-14.494,1.198-21.936-0.18
				C18.803,32.64,12.307,30.54,6.879,25.038z M37.238,32.491c1.443-0.062,3.484,0.027,5.467-0.279
				c3.418-0.533,6.896-1.013,10.166-2.074c3.195-1.039,6.121-2.877,9.242-4.185c4.391-1.841,6.463-7.692,3.389-11.261
				c-2.061-2.387-4.844-4.498-7.73-5.753C46.33,3.966,34.436,3.831,22.438,6.673c-4.781,1.131-9.297,2.93-12.906,6.426
				c-3.551,3.441-3.703,7.61-0.104,10.965c1.943,1.812,4.314,3.311,6.729,4.449C22.621,31.562,29.588,32.39,37.238,32.491z
				 M69.268,83.077c14.762,0.662,27.926-11.263,28.738-25.902c0.891-16.143-10.965-28.857-25.768-29.89
				c-16.332-1.136-28.701,11.169-29.814,25.557C41.109,69.796,54.344,82.775,69.268,83.077z M69.531,24.709
				c7.012,0.136,13.158,1.995,18.6,6.017c9.762,7.222,14.512,19.713,11.443,31.441c-3.299,12.608-11.506,20.479-24.379,22.814
				c-10.623,1.926-19.764-1.438-27.193-9.26c-1.102-1.16-2.035-1.587-3.729-1.4c-9.941,1.1-19.727,0.4-29.016-3.645
				c-2.326-1.012-4.521-2.461-6.535-4.02c-2.895-2.238-4.346-5.274-4.326-9.059c0.062-12.471,0.076-24.941-0.004-37.412
				c-0.027-4.422,1.785-7.771,5.213-10.365C14.863,5.843,21,4.049,27.367,3.167c10.111-1.402,20.146-0.993,29.775,2.795
				c2.553,1.004,4.994,2.443,7.25,4.021c3.529,2.466,5.301,5.978,5.145,10.372C69.49,21.731,69.531,23.114,69.531,24.709z"/>
		</defs>
		<use xlink:href="#SVGID_1_"  overflow="visible" fill-rule="evenodd" clip-rule="evenodd" fill="#515151"/>
		<clipPath id="SVGID_2_">
			<use xlink:href="#SVGID_1_"  overflow="visible"/>
		</clipPath>
		<g clip-path="url(#SVGID_2_)">
			<defs>
				<rect id="SVGID_3_" x="-947.607" y="-7375.573" width="1440" height="7951"/>
			</defs>
			<use xlink:href="#SVGID_3_"  overflow="visible" fill="#515151"/>
			<clipPath id="SVGID_4_">
				<use xlink:href="#SVGID_3_"  overflow="visible"/>
			</clipPath>
			<rect x="-0.607" y="-2.574" clip-path="url(#SVGID_4_)" fill="#515151" width="106.105" height="93.088"/>
		</g>
	</g>
	<g>
		<defs>
			<path id="SVGID_5_" d="M51.943,57.403v-4.306c-1.025-0.05-2.008,0.032-2.916-0.19c-0.461-0.111-1.215-0.615-1.178-1.182
				c0.039-0.553,0.932-1.053,1.285-0.986c1.352,0.256,3.312-0.017,3.312-0.017s0.91-2.153,1.465-3.378
				C59.377,35.3,75.434,33.36,84.049,43.568c0.658,0.782,1.545,1.53,0.492,2.597c-0.816,0.824-1.725-0.432-2.246-1.023
				c-6.412-7.278-16.6-7.877-23.223-1.109c-1.689,1.726-3.172,3.656-4.035,6.506c1.305,0.09,1.465,0.133,2.047,0.135
				c5.918,0.009,11.834-0.007,17.752,0.018c0.898,0.004,2.221,0.108,2.076,1.594c-0.043,0.456-1.383,0.651-2.162,0.664
				C68.834,53.042,62.914,53,57,53h-2.379v4.372h2.232c5.988,0,11.975-0.043,17.959,0.053c0.76,0.011,2.27,0.273,2.26,1.121
				c-0.012,0.869-1.553,1.082-2.336,1.096c-5.637,0.096-11.275,0.051-16.914,0.051h-2.783c0.693,1.495,1.119,2.703,1.771,3.771
				c5.533,9.057,18.514,9.987,25.324,1.842c0.223-0.268,1.357-1.902,2.492-1.121c0.504,0.349,0.244,1.391-0.039,1.812
				c-2.102,3.106-5.078,5.134-8.576,6.331c-9.242,3.169-19.234-1.482-22.68-10.622c-0.596-1.58-1.305-2.279-2.963-2.031
				c-0.535,0.081-1.15,0.066-1.641-0.128c-0.367-0.146-0.865-0.701-0.814-0.982c0.08-0.429,0.541-1.045,0.918-1.108
				C49.775,57.296,50.764,57.403,51.943,57.403z"/>
		</defs>
		<use xlink:href="#SVGID_5_"  overflow="visible" fill-rule="evenodd" clip-rule="evenodd" fill="#515151"/>
		<clipPath id="SVGID_6_">
			<use xlink:href="#SVGID_5_"  overflow="visible"/>
		</clipPath>
		<g clip-path="url(#SVGID_6_)">
			<defs>
				<rect id="SVGID_7_" x="-947.607" y="-7375.573" width="1440" height="7951"/>
			</defs>
			<use xlink:href="#SVGID_7_"  overflow="visible" fill="#515151"/>
			<clipPath id="SVGID_8_">
				<use xlink:href="#SVGID_7_"  overflow="visible"/>
			</clipPath>
			<rect x="42.85" y="31.974" clip-path="url(#SVGID_8_)" fill="#515151" width="47.178" height="46.348"/>
		</g>
	</g>
</g>
</svg>
