<?xml version="1.0" encoding="utf-8"?>
<!-- Generator: Adobe Illustrator 16.0.0, SVG Export Plug-In . SVG Version: 6.00 Build 0)  -->
<!DOCTYPE svg PUBLIC "-//W3C//DTD SVG 1.1//EN" "http://www.w3.org/Graphics/SVG/1.1/DTD/svg11.dtd">
<svg version="1.1" id="Capa_1" xmlns="http://www.w3.org/2000/svg" xmlns:xlink="http://www.w3.org/1999/xlink" x="0px" y="0px"
	 width="113.73px" height="100.384px" viewBox="0 0 113.73 100.384" enable-background="new 0 0 113.73 100.384"
	 xml:space="preserve">
<g>
	<defs>
		<path id="SVGID_1_" d="M21.56,15.586c-2.111,0-3.379,2.019-3.379,4.5v57c0,2.481,1.268,4.5,3.379,4.5h78.242
			c2.11,0,3.379-2.019,3.379-4.5v-57c0-2.481-1.269-4.5-3.379-4.5H21.56z M99.802,84.586H21.56c-3.518,0-6.379-3.364-6.379-7.5v-57
			c0-4.136,2.861-7.5,6.379-7.5h78.242c3.518,0,6.379,3.364,6.379,7.5v57C106.181,81.222,103.32,84.586,99.802,84.586z"/>
	</defs>
	<clipPath id="SVGID_2_">
		<use xlink:href="#SVGID_1_"  overflow="visible"/>
	</clipPath>
	<g clip-path="url(#SVGID_2_)">
		<defs>
			<rect id="SVGID_3_" x="-373.819" y="-7379.414" width="1440" height="7951"/>
		</defs>
		<clipPath id="SVGID_4_">
			<use xlink:href="#SVGID_3_"  overflow="visible"/>
		</clipPath>
		<rect x="10.181" y="7.586" clip-path="url(#SVGID_4_)" fill="#2E1D51" width="101" height="82"/>
	</g>
</g>
<g>
	<defs>
		<path id="SVGID_5_" d="M60.396,51.557c-6.211,0-13.186-6.939-13.479-7.235L16.684,17.28c-0.561-0.501-0.669-1.443-0.242-2.102
			c0.427-0.66,1.226-0.787,1.787-0.286l30.29,27.095c0.121,0.118,6.612,6.569,11.878,6.569c3.709,0,11.428-6.367,14.089-8.822
			l28.084-24.847c0.563-0.498,1.363-0.365,1.787,0.297c0.424,0.662,0.311,1.603-0.252,2.101L76.042,42.114
			C75.009,43.064,65.647,51.557,60.396,51.557z"/>
	</defs>
	<clipPath id="SVGID_6_">
		<use xlink:href="#SVGID_5_"  overflow="visible"/>
	</clipPath>
	<g clip-path="url(#SVGID_6_)">
		<defs>
			<rect id="SVGID_7_" x="-373.819" y="-7379.414" width="1440" height="7951"/>
		</defs>
		<clipPath id="SVGID_8_">
			<use xlink:href="#SVGID_7_"  overflow="visible"/>
		</clipPath>
		<rect x="11.181" y="9.586" clip-path="url(#SVGID_8_)" fill="#2E1D51" width="98.433" height="46.971"/>
	</g>
</g>
</svg>
