<?xml version="1.0" encoding="utf-8"?>
<!-- Generator: Adobe Illustrator 16.0.0, SVG Export Plug-In . SVG Version: 6.00 Build 0)  -->
<!DOCTYPE svg PUBLIC "-//W3C//DTD SVG 1.1//EN" "http://www.w3.org/Graphics/SVG/1.1/DTD/svg11.dtd">
<svg version="1.1" id="Capa_1" xmlns="http://www.w3.org/2000/svg" xmlns:xlink="http://www.w3.org/1999/xlink" x="0px" y="0px"
	 width="85.497px" height="63px" viewBox="0 0 85.497 63" enable-background="new 0 0 85.497 63" xml:space="preserve">
<g>
	<g>
		<defs>
			<path id="SVGID_1_" d="M11.702,39.691c0.065,0.235,0.393,1.194,1.799,2.534c5.658,5.392,17.025,14.469,29.579,14.664l0.393,0.004
				c12.212,0,23.583-8.803,29.273-14.053c1.58-1.456,2.111-2.563,2.269-2.976c-0.117-0.389-0.551-1.486-2.017-2.935
				c-5.292-5.239-16.22-14.054-29.951-14.239l-0.425-0.005c-13.561,0-24.039,8.802-29.078,14.049
				C12.08,38.258,11.766,39.38,11.702,39.691z M43.473,59.157l-0.427-0.003c-13.325-0.209-25.207-9.669-31.105-15.29
				c-2.281-2.174-2.491-3.786-2.511-4.086c-0.002-0.037-0.003-0.074-0.001-0.11c0.007-0.203,0.138-2.058,2.483-4.5
				c5.288-5.506,16.312-14.743,30.71-14.743l0.456,0.004c14.525,0.196,25.978,9.415,31.512,14.892
				c2.47,2.442,2.699,4.293,2.718,4.498c0.009,0.1,0.005,0.201-0.014,0.301c-0.036,0.198-0.424,1.999-3.015,4.386
				C68.347,49.977,56.454,59.157,43.473,59.157z"/>
		</defs>
		<use xlink:href="#SVGID_1_"  overflow="visible" fill-rule="evenodd" clip-rule="evenodd" fill="#FFFFFF"/>
		<clipPath id="SVGID_2_">
			<use xlink:href="#SVGID_1_"  overflow="visible"/>
		</clipPath>
		<g clip-path="url(#SVGID_2_)">
			<defs>
				<rect id="SVGID_3_" x="-756.186" y="-1018.244" width="1086.191" height="5997.425"/>
			</defs>
			<use xlink:href="#SVGID_3_"  overflow="visible" fill="#FFFFFF"/>
			<clipPath id="SVGID_4_">
				<use xlink:href="#SVGID_3_"  overflow="visible"/>
			</clipPath>
			<rect x="5.656" y="16.652" clip-path="url(#SVGID_4_)" fill="#FFFFFF" width="75.428" height="46.276"/>
		</g>
	</g>
	<g>
		<defs>
			<path id="SVGID_5_" d="M42.562,30.23c-5.376,0-9.75,4.374-9.75,9.75c0,5.377,4.373,9.75,9.75,9.75c5.376,0,9.75-4.373,9.75-9.75
				C52.312,34.604,47.938,30.23,42.562,30.23z M42.562,51.993c-6.624,0-12.014-5.391-12.014-12.014
				c0-6.624,5.39-12.013,12.014-12.013s12.013,5.389,12.013,12.013C54.574,46.603,49.186,51.993,42.562,51.993z"/>
		</defs>
		<use xlink:href="#SVGID_5_"  overflow="visible" fill-rule="evenodd" clip-rule="evenodd" fill="#FFFFFF"/>
		<clipPath id="SVGID_6_">
			<use xlink:href="#SVGID_5_"  overflow="visible"/>
		</clipPath>
		<g clip-path="url(#SVGID_6_)">
			<defs>
				<rect id="SVGID_7_" x="-756.186" y="-1018.244" width="1086.191" height="5997.425"/>
			</defs>
			<use xlink:href="#SVGID_7_"  overflow="visible" fill="#FFFFFF"/>
			<clipPath id="SVGID_8_">
				<use xlink:href="#SVGID_7_"  overflow="visible"/>
			</clipPath>
			<rect x="26.776" y="24.195" clip-path="url(#SVGID_8_)" fill="#FFFFFF" width="31.569" height="31.57"/>
		</g>
	</g>
	<g>
		<defs>
			<path id="SVGID_9_" d="M13.808,27.949c-0.284,0-0.568-0.108-0.789-0.322l-9.282-9.033c-0.448-0.435-0.458-1.151-0.022-1.599
				c0.437-0.448,1.153-0.458,1.6-0.022l9.284,9.033c0.447,0.436,0.457,1.151,0.021,1.6C14.397,27.834,14.103,27.949,13.808,27.949z"
				/>
		</defs>
		<use xlink:href="#SVGID_9_"  overflow="visible" fill-rule="evenodd" clip-rule="evenodd" fill="#FFFFFF"/>
		<clipPath id="SVGID_10_">
			<use xlink:href="#SVGID_9_"  overflow="visible"/>
		</clipPath>
		<g clip-path="url(#SVGID_10_)">
			<defs>
				<rect id="SVGID_11_" x="-756.186" y="-1018.244" width="1086.191" height="5997.425"/>
			</defs>
			<use xlink:href="#SVGID_11_"  overflow="visible" fill="#FFFFFF"/>
			<clipPath id="SVGID_12_">
				<use xlink:href="#SVGID_11_"  overflow="visible"/>
			</clipPath>
			<rect x="-0.378" y="12.882" clip-path="url(#SVGID_12_)" fill="#FFFFFF" width="19.089" height="18.838"/>
		</g>
	</g>
	<g>
		<defs>
			<path id="SVGID_13_" d="M42.24,15.587c-0.626,0-1.132-0.506-1.132-1.133V2.699c0-0.626,0.506-1.132,1.132-1.132
				c0.625,0,1.131,0.505,1.131,1.132v11.756C43.371,15.081,42.864,15.587,42.24,15.587z"/>
		</defs>
		<use xlink:href="#SVGID_13_"  overflow="visible" fill-rule="evenodd" clip-rule="evenodd" fill="#FFFFFF"/>
		<clipPath id="SVGID_14_">
			<use xlink:href="#SVGID_13_"  overflow="visible"/>
		</clipPath>
		<g clip-path="url(#SVGID_14_)">
			<defs>
				<rect id="SVGID_15_" x="-756.186" y="-1018.244" width="1086.191" height="5997.425"/>
			</defs>
			<use xlink:href="#SVGID_15_"  overflow="visible" fill="#FFFFFF"/>
			<clipPath id="SVGID_16_">
				<use xlink:href="#SVGID_15_"  overflow="visible"/>
			</clipPath>
			<rect x="37.337" y="-2.205" clip-path="url(#SVGID_16_)" fill="#FFFFFF" width="9.806" height="21.562"/>
		</g>
	</g>
	<g>
		<defs>
			<path id="SVGID_17_" d="M73.921,28.125c-0.268,0-0.535-0.095-0.75-0.285c-0.468-0.415-0.511-1.13-0.097-1.597l8.162-9.21
				c0.414-0.467,1.131-0.51,1.597-0.096c0.467,0.414,0.511,1.13,0.097,1.598l-8.162,9.209
				C74.545,27.997,74.233,28.125,73.921,28.125z"/>
		</defs>
		<use xlink:href="#SVGID_17_"  overflow="visible" fill-rule="evenodd" clip-rule="evenodd" fill="#FFFFFF"/>
		<clipPath id="SVGID_18_">
			<use xlink:href="#SVGID_17_"  overflow="visible"/>
		</clipPath>
		<g clip-path="url(#SVGID_18_)">
			<defs>
				<rect id="SVGID_19_" x="-756.186" y="-1018.244" width="1086.191" height="5997.425"/>
			</defs>
			<use xlink:href="#SVGID_19_"  overflow="visible" fill="#FFFFFF"/>
			<clipPath id="SVGID_20_">
				<use xlink:href="#SVGID_19_"  overflow="visible"/>
			</clipPath>
			<rect x="69.019" y="12.882" clip-path="url(#SVGID_20_)" fill="#FFFFFF" width="17.967" height="19.014"/>
		</g>
	</g>
	<g>
		<defs>
			<path id="SVGID_21_" d="M58.835,19.214c-0.152,0-0.309-0.033-0.456-0.097c-0.572-0.251-0.831-0.921-0.578-1.491l4.794-10.859
				c0.252-0.57,0.92-0.831,1.492-0.578c0.571,0.253,0.83,0.921,0.578,1.492L59.87,18.539C59.684,18.962,59.27,19.214,58.835,19.214z
				"/>
		</defs>
		<use xlink:href="#SVGID_21_"  overflow="visible" fill-rule="evenodd" clip-rule="evenodd" fill="#FFFFFF"/>
		<clipPath id="SVGID_22_">
			<use xlink:href="#SVGID_21_"  overflow="visible"/>
		</clipPath>
		<g clip-path="url(#SVGID_22_)">
			<defs>
				<rect id="SVGID_23_" x="-756.186" y="-1018.244" width="1086.191" height="5997.425"/>
			</defs>
			<use xlink:href="#SVGID_23_"  overflow="visible" fill="#FFFFFF"/>
			<clipPath id="SVGID_24_">
				<use xlink:href="#SVGID_23_"  overflow="visible"/>
			</clipPath>
			<rect x="53.933" y="2.322" clip-path="url(#SVGID_24_)" fill="#FFFFFF" width="14.602" height="20.663"/>
		</g>
	</g>
	<g>
		<defs>
			<path id="SVGID_25_" d="M26.583,18.895c-0.409,0-0.805-0.222-1.006-0.609l-5.463-10.54c-0.287-0.555-0.07-1.238,0.483-1.525
				c0.556-0.287,1.238-0.07,1.526,0.483l5.462,10.54c0.288,0.554,0.071,1.237-0.483,1.524
				C26.936,18.854,26.758,18.895,26.583,18.895z"/>
		</defs>
		<use xlink:href="#SVGID_25_"  overflow="visible" fill-rule="evenodd" clip-rule="evenodd" fill="#FFFFFF"/>
		<clipPath id="SVGID_26_">
			<use xlink:href="#SVGID_25_"  overflow="visible"/>
		</clipPath>
		<g clip-path="url(#SVGID_26_)">
			<defs>
				<rect id="SVGID_27_" x="-756.186" y="-1018.244" width="1086.191" height="5997.425"/>
			</defs>
			<use xlink:href="#SVGID_27_"  overflow="visible" fill="#FFFFFF"/>
			<clipPath id="SVGID_28_">
				<use xlink:href="#SVGID_27_"  overflow="visible"/>
			</clipPath>
			<rect x="16.217" y="2.322" clip-path="url(#SVGID_28_)" fill="#FFFFFF" width="15.269" height="20.346"/>
		</g>
	</g>
</g>
</svg>
