<?xml version="1.0" encoding="utf-8"?>
<!-- Generator: Adobe Illustrator 16.0.0, SVG Export Plug-In . SVG Version: 6.00 Build 0)  -->
<!DOCTYPE svg PUBLIC "-//W3C//DTD SVG 1.1//EN" "http://www.w3.org/Graphics/SVG/1.1/DTD/svg11.dtd">
<svg version="1.1" id="Capa_1" xmlns="http://www.w3.org/2000/svg" xmlns:xlink="http://www.w3.org/1999/xlink" x="0px" y="0px"
	 width="84.5px" height="59.336px" viewBox="-12 0 84.5 59.336" enable-background="new -12 0 84.5 59.336" xml:space="preserve">
<g>
	<g>
		<defs>
			<path id="SVGID_1_" d="M-0.085,38.174c0.063,0.231,0.382,1.164,1.753,2.474c5.517,5.254,16.599,14.104,28.838,14.295l0.383,0.002
				c11.905,0,22.992-8.58,28.539-13.699c1.54-1.419,2.059-2.499,2.212-2.901c-0.114-0.378-0.537-1.448-1.966-2.861
				c-5.16-5.107-15.812-13.701-29.199-13.881l-0.415-0.007c-13.221,0-23.437,8.584-28.349,13.699
				C0.283,36.781-0.023,37.871-0.085,38.174z M30.889,57.153l-0.416-0.004c-12.99-0.204-24.576-9.426-30.326-14.903
				c-2.224-2.123-2.429-3.691-2.447-3.985c-0.002-0.037-0.003-0.072-0.002-0.107c0.008-0.198,0.135-2.006,2.422-4.39
				c5.156-5.367,15.902-14.372,29.94-14.372l0.444,0.005c14.16,0.19,25.326,9.178,30.721,14.519c2.408,2.381,2.633,4.187,2.65,4.383
				c0.008,0.099,0.004,0.197-0.014,0.293c-0.034,0.196-0.413,1.951-2.938,4.279C55.139,48.203,43.543,57.153,30.889,57.153z"/>
		</defs>
		<use xlink:href="#SVGID_1_"  overflow="visible" fill-rule="evenodd" clip-rule="evenodd" fill="#2C0C52"/>
		<clipPath id="SVGID_2_">
			<use xlink:href="#SVGID_1_"  overflow="visible"/>
		</clipPath>
		<g clip-path="url(#SVGID_2_)">
			<defs>
				<rect id="SVGID_3_" x="-748.732" y="-993.251" width="1058.975" height="5847.145"/>
			</defs>
			<use xlink:href="#SVGID_3_"  overflow="visible" fill="#2C0C52"/>
			<clipPath id="SVGID_4_">
				<use xlink:href="#SVGID_3_"  overflow="visible"/>
			</clipPath>
			<rect x="-5.98" y="15.713" clip-path="url(#SVGID_4_)" fill="#2C0C52" width="73.537" height="45.116"/>
		</g>
	</g>
	<g>
		<defs>
			<path id="SVGID_5_" d="M30,28.952c-5.241,0-9.506,4.263-9.506,9.506c0,5.24,4.264,9.505,9.506,9.505
				c5.241,0,9.505-4.265,9.505-9.505C39.505,33.214,35.241,28.952,30,28.952z M30,50.168c-6.457,0-11.712-5.254-11.712-11.711
				c0-6.46,5.255-11.712,11.712-11.712s11.711,5.252,11.711,11.712C41.711,44.915,36.457,50.168,30,50.168z"/>
		</defs>
		<use xlink:href="#SVGID_5_"  overflow="visible" fill-rule="evenodd" clip-rule="evenodd" fill="#2C0C52"/>
		<clipPath id="SVGID_6_">
			<use xlink:href="#SVGID_5_"  overflow="visible"/>
		</clipPath>
		<g clip-path="url(#SVGID_6_)">
			<defs>
				<rect id="SVGID_7_" x="-748.732" y="-993.251" width="1058.975" height="5847.145"/>
			</defs>
			<use xlink:href="#SVGID_7_"  overflow="visible" fill="#2C0C52"/>
			<clipPath id="SVGID_8_">
				<use xlink:href="#SVGID_7_"  overflow="visible"/>
			</clipPath>
			<rect x="14.611" y="23.07" clip-path="url(#SVGID_8_)" fill="#2C0C52" width="30.776" height="30.776"/>
		</g>
	</g>
	<g>
		<defs>
			<path id="SVGID_9_" d="M1.967,26.728c-0.277,0-0.554-0.105-0.769-0.314l-9.05-8.806c-0.438-0.426-0.447-1.122-0.021-1.559
				c0.424-0.437,1.123-0.447,1.559-0.023l9.052,8.81c0.437,0.421,0.446,1.12,0.021,1.558C2.542,26.616,2.254,26.728,1.967,26.728z"
				/>
		</defs>
		<use xlink:href="#SVGID_9_"  overflow="visible" fill-rule="evenodd" clip-rule="evenodd" fill="#2C0C52"/>
		<clipPath id="SVGID_10_">
			<use xlink:href="#SVGID_9_"  overflow="visible"/>
		</clipPath>
		<g clip-path="url(#SVGID_10_)">
			<defs>
				<rect id="SVGID_11_" x="-748.732" y="-993.251" width="1058.975" height="5847.145"/>
			</defs>
			<use xlink:href="#SVGID_11_"  overflow="visible" fill="#2C0C52"/>
			<clipPath id="SVGID_12_">
				<use xlink:href="#SVGID_11_"  overflow="visible"/>
			</clipPath>
			<rect x="-11.863" y="12.038" clip-path="url(#SVGID_12_)" fill="#2C0C52" width="18.611" height="18.368"/>
		</g>
	</g>
	<g>
		<defs>
			<path id="SVGID_13_" d="M29.688,14.672c-0.61,0-1.104-0.493-1.104-1.1V2.11c0-0.611,0.493-1.104,1.104-1.104
				c0.609,0,1.103,0.492,1.103,1.104v11.463C30.79,14.179,30.296,14.672,29.688,14.672z"/>
		</defs>
		<use xlink:href="#SVGID_13_"  overflow="visible" fill-rule="evenodd" clip-rule="evenodd" fill="#2C0C52"/>
		<clipPath id="SVGID_14_">
			<use xlink:href="#SVGID_13_"  overflow="visible"/>
		</clipPath>
		<g clip-path="url(#SVGID_14_)">
			<defs>
				<rect id="SVGID_15_" x="-748.732" y="-993.251" width="1058.975" height="5847.145"/>
			</defs>
			<use xlink:href="#SVGID_15_"  overflow="visible" fill="#2C0C52"/>
			<clipPath id="SVGID_16_">
				<use xlink:href="#SVGID_15_"  overflow="visible"/>
			</clipPath>
			<rect x="24.906" y="-2.67" clip-path="url(#SVGID_16_)" fill="#2C0C52" width="9.561" height="21.023"/>
		</g>
	</g>
	<g>
		<defs>
			<path id="SVGID_17_" d="M60.572,26.899c-0.26,0-0.521-0.092-0.73-0.277c-0.455-0.402-0.497-1.101-0.094-1.557l7.957-8.978
				c0.404-0.46,1.102-0.497,1.557-0.094c0.456,0.402,0.498,1.1,0.094,1.557l-7.957,8.979C61.182,26.777,60.877,26.899,60.572,26.899
				z"/>
		</defs>
		<use xlink:href="#SVGID_17_"  overflow="visible" fill-rule="evenodd" clip-rule="evenodd" fill="#2C0C52"/>
		<clipPath id="SVGID_18_">
			<use xlink:href="#SVGID_17_"  overflow="visible"/>
		</clipPath>
		<g clip-path="url(#SVGID_18_)">
			<defs>
				<rect id="SVGID_19_" x="-748.732" y="-993.251" width="1058.975" height="5847.145"/>
			</defs>
			<use xlink:href="#SVGID_19_"  overflow="visible" fill="#2C0C52"/>
			<clipPath id="SVGID_20_">
				<use xlink:href="#SVGID_19_"  overflow="visible"/>
			</clipPath>
			<rect x="55.794" y="12.038" clip-path="url(#SVGID_20_)" fill="#2C0C52" width="17.517" height="18.54"/>
		</g>
	</g>
	<g>
		<defs>
			<path id="SVGID_21_" d="M45.865,18.211c-0.148,0-0.301-0.032-0.444-0.093c-0.56-0.248-0.81-0.899-0.564-1.457l4.675-10.584
				c0.246-0.557,0.896-0.812,1.453-0.563c0.559,0.244,0.811,0.896,0.564,1.454l-4.674,10.586
				C46.693,17.966,46.289,18.211,45.865,18.211z"/>
		</defs>
		<use xlink:href="#SVGID_21_"  overflow="visible" fill-rule="evenodd" clip-rule="evenodd" fill="#2C0C52"/>
		<clipPath id="SVGID_22_">
			<use xlink:href="#SVGID_21_"  overflow="visible"/>
		</clipPath>
		<g clip-path="url(#SVGID_22_)">
			<defs>
				<rect id="SVGID_23_" x="-748.732" y="-993.251" width="1058.975" height="5847.145"/>
			</defs>
			<use xlink:href="#SVGID_23_"  overflow="visible" fill="#2C0C52"/>
			<clipPath id="SVGID_24_">
				<use xlink:href="#SVGID_23_"  overflow="visible"/>
			</clipPath>
			<rect x="41.086" y="1.743" clip-path="url(#SVGID_24_)" fill="#2C0C52" width="14.235" height="20.145"/>
		</g>
	</g>
	<g>
		<defs>
			<path id="SVGID_25_" d="M14.422,17.902c-0.398,0-0.783-0.217-0.98-0.596L8.116,7.03c-0.28-0.541-0.069-1.208,0.472-1.488
				c0.541-0.279,1.207-0.066,1.486,0.473L15.4,16.291c0.28,0.539,0.068,1.204-0.472,1.486
				C14.767,17.862,14.593,17.902,14.422,17.902z"/>
		</defs>
		<use xlink:href="#SVGID_25_"  overflow="visible" fill-rule="evenodd" clip-rule="evenodd" fill="#2C0C52"/>
		<clipPath id="SVGID_26_">
			<use xlink:href="#SVGID_25_"  overflow="visible"/>
		</clipPath>
		<g clip-path="url(#SVGID_26_)">
			<defs>
				<rect id="SVGID_27_" x="-748.732" y="-993.251" width="1058.975" height="5847.145"/>
			</defs>
			<use xlink:href="#SVGID_27_"  overflow="visible" fill="#2C0C52"/>
			<clipPath id="SVGID_28_">
				<use xlink:href="#SVGID_27_"  overflow="visible"/>
			</clipPath>
			<rect x="4.316" y="1.743" clip-path="url(#SVGID_28_)" fill="#2C0C52" width="14.885" height="19.836"/>
		</g>
	</g>
</g>
</svg>
