<?xml version="1.0" encoding="utf-8"?>
<!-- Generator: Adobe Illustrator 17.0.0, SVG Export Plug-In . SVG Version: 6.00 Build 0)  -->
<!DOCTYPE svg PUBLIC "-//W3C//DTD SVG 1.1//EN" "http://www.w3.org/Graphics/SVG/1.1/DTD/svg11.dtd">
<svg version="1.1" id="Capa_1" xmlns="http://www.w3.org/2000/svg" xmlns:xlink="http://www.w3.org/1999/xlink" x="0px" y="0px"
	 width="64px" height="59.337px" viewBox="0 0 64 59.337" enable-background="new 0 0 64 59.337" xml:space="preserve">
<path fill="#FFFFFF" d="M31.127,59.337c-2.604,0-4.415-2.665-4.726-3.155L3.358,25.907c-0.055-0.072-0.11-0.144-0.164-0.216
	l-0.518-0.68l0.026-0.013C0.93,22.356,0,19.298,0,16.08C0,7.213,7.213,0,16.08,0c6.694,0,12.74,4.204,15.074,10.47
	c0.009,0.011,0.027,0.031,0.05,0.046c0.018-0.03,0.032-0.06,0.032-0.06l0.032-0.093C33.784,4.068,39.787,0,46.563,0
	c9.081,0,16.469,7.388,16.469,16.469c0,3.847-1.357,7.591-3.819,10.544L35.664,56.46C35.362,56.904,33.59,59.337,31.127,59.337z
	 M5.823,25.737l22.308,29.315c0.383,0.616,1.672,2.219,2.996,2.219c1.242,0,2.5-1.476,2.843-1.994l0.054-0.074l23.589-29.497
	c2.167-2.599,3.354-5.874,3.354-9.238c0-7.942-6.462-14.404-14.404-14.404c-5.913,0-11.154,3.542-13.363,9.028
	c-0.192,0.588-0.793,1.511-1.929,1.511c-1.104,0-1.771-0.792-1.992-1.26l-0.036-0.085c-2.015-5.499-7.305-9.194-13.164-9.194
	c-7.728,0-14.015,6.287-14.015,14.015c0,3.171,1.037,6.163,2.997,8.655l0.781,0.992L5.823,25.737z"/>
<path fill="#FFFFFF" d="M31.03,35.48c-0.184,0-0.369-0.048-0.537-0.151c-0.487-0.297-0.641-0.933-0.344-1.419l2.952-4.84
	l-6.424-4.785c-0.266-0.198-0.421-0.512-0.415-0.845c0.005-0.332,0.169-0.641,0.442-0.831l7.097-4.949l-4.248-5.898
	c-0.333-0.463-0.229-1.109,0.234-1.442c0.464-0.333,1.109-0.228,1.441,0.234l4.861,6.75c0.162,0.225,0.227,0.505,0.18,0.777
	c-0.046,0.273-0.2,0.516-0.427,0.674l-6.782,4.729l6.03,4.492c0.428,0.319,0.542,0.911,0.264,1.366l-3.442,5.643
	C31.718,35.304,31.377,35.48,31.03,35.48z"/>
</svg>
