<?xml version="1.0" encoding="utf-8"?>
<!-- Generator: Adobe Illustrator 16.0.0, SVG Export Plug-In . SVG Version: 6.00 Build 0)  -->
<!DOCTYPE svg PUBLIC "-//W3C//DTD SVG 1.1//EN" "http://www.w3.org/Graphics/SVG/1.1/DTD/svg11.dtd">
<svg version="1.1" id="Capa_1" xmlns="http://www.w3.org/2000/svg" xmlns:xlink="http://www.w3.org/1999/xlink" x="0px" y="0px"
	 width="130px" height="130px" viewBox="0 0 130 130" enable-background="new 0 0 130 130" xml:space="preserve">
<circle fill="#116280" cx="65.526" cy="64.593" r="48.854"/>
<path fill-rule="evenodd" clip-rule="evenodd" fill="#FFFFFF" d="M55.009,59.786c0.275,0.598,0.43,1.119,0.725,1.545
	c1.117,1.611,2.184,3.268,3.44,4.764c2.712,3.223,5.503,6.379,8.317,9.516c0.698,0.779,1.604,1.371,2.559,2.17
	c0.252-0.865,0.409-1.469,0.607-2.063c0.162-0.484,0.331-0.975,0.568-1.426c1.078-2.053,2.769-2.807,4.971-2.082
	c4.09,1.346,7.742,3.5,11.035,6.262c1.991,1.67,1.881,3.707,0.814,5.545c-1.418,2.449-3.426,4.338-5.914,5.686
	c-2.027,1.096-4.211,0.992-6.382,0.613c-5.698-0.988-10.609-3.672-15.033-7.266c-7.488-6.086-13.039-13.564-15.966-22.85
	c-0.887-2.816-1.299-5.707-1.272-8.672c0.036-3.607,1.614-6.363,4.517-8.367c1.221-0.844,2.527-1.615,3.896-2.168
	c1.885-0.758,3.938-0.516,5.191,1.699c0.865,1.529,1.646,3.119,2.303,4.746c0.922,2.287,1.768,4.615,2.031,7.1
	c0.291,2.738-0.941,4.404-3.664,4.904C56.915,59.595,56.062,59.655,55.009,59.786z M77.128,88.665
	c0.805-0.02,1.648,0.107,2.412-0.084c3.426-0.85,5.659-3.18,7.187-6.217c0.432-0.861,0.181-1.789-0.683-2.486
	c-3.066-2.484-6.387-4.518-10.135-5.793c-1.672-0.568-2.508-0.174-3.188,1.459c-0.329,0.787-0.507,1.633-0.78,2.443
	c-0.454,1.34-1.503,1.852-2.771,1.207c-0.879-0.449-1.73-1.037-2.438-1.725c-4.199-4.068-7.924-8.557-11.359-13.275
	c-0.838-1.15-1.527-2.461-2.017-3.793c-0.487-1.328,0.272-2.299,1.671-2.512c0.82-0.125,1.658-0.152,2.469-0.326
	c1.758-0.377,2.34-1.174,2.047-2.932c-0.651-3.924-2.068-7.578-4.049-11.023c-0.424-0.738-1.025-1.125-1.861-1.045
	c-0.525,0.049-1.068,0.15-1.555,0.35c-1.698,0.695-3.143,1.77-4.473,3.031c-1.316,1.246-1.961,2.766-2.124,4.541
	c-0.312,3.375,0.185,6.664,1.284,9.828c3.789,10.895,10.778,19.201,20.695,25.027C70.431,87.087,73.652,88.259,77.128,88.665z"/>
</svg>
