<?xml version="1.0" encoding="utf-8"?>
<!-- Generator: Adobe Illustrator 16.0.0, SVG Export Plug-In . SVG Version: 6.00 Build 0)  -->
<!DOCTYPE svg PUBLIC "-//W3C//DTD SVG 1.1//EN" "http://www.w3.org/Graphics/SVG/1.1/DTD/svg11.dtd">
<svg version="1.1" id="Capa_1" xmlns="http://www.w3.org/2000/svg" xmlns:xlink="http://www.w3.org/1999/xlink" x="0px" y="0px"
	 width="130px" height="130px" viewBox="0 0 130 130" enable-background="new 0 0 130 130" xml:space="preserve">
<circle fill="#116280" cx="65.139" cy="65.353" r="48.854"/>
<g>
	<path fill-rule="evenodd" clip-rule="evenodd" fill="#FFFFFF" d="M84.466,57.835c-0.117,5.325-1.533,10.324-3.697,15.137
		c-2.711,6.027-6.062,11.687-10.021,16.969c-2.604,3.473-6.763,4.221-10.061,1.938c-0.581-0.402-1.156-0.875-1.577-1.437
		c-5.519-7.351-10.264-15.14-12.847-24.042c-1.332-4.593-1.91-9.296-0.558-14.029c2.583-9.039,11.973-15.164,21.308-13.914
		c9.057,1.215,15.79,7.631,17.232,16.455C84.401,55.872,84.396,56.859,84.466,57.835z M64.599,40.888
		c-0.373,0.021-0.861,0.052-1.349,0.078c-6.665,0.346-13.209,5.586-15.034,12.014c-1.151,4.055-0.689,8.079,0.367,12.036
		c2.295,8.609,6.877,16.069,12.053,23.185c2.382,3.275,5.815,3.207,8.232-0.063c3.721-5.035,6.903-10.402,9.5-16.104
		c1.803-3.961,2.924-8.091,3.401-12.447C82.919,49.144,74.359,40.9,64.599,40.888z"/>
	<path fill-rule="evenodd" clip-rule="evenodd" fill="#FFFFFF" d="M64.722,65.737c-4.409,0.018-8.058-3.611-8.081-8.037
		c-0.023-4.408,3.622-8.066,8.043-8.072c4.437-0.006,8.083,3.622,8.073,8.033C72.748,62.108,69.157,65.718,64.722,65.737z
		 M64.699,52.242c-3.052,0.003-5.457,2.404-5.451,5.441c0.005,3.004,2.474,5.477,5.46,5.47c2.994-0.01,5.462-2.489,5.453-5.48
		C70.152,54.63,67.746,52.239,64.699,52.242z"/>
</g>
</svg>
