<?xml version="1.0" encoding="utf-8"?>
<!-- Generator: Adobe Illustrator 16.0.0, SVG Export Plug-In . SVG Version: 6.00 Build 0)  -->
<!DOCTYPE svg PUBLIC "-//W3C//DTD SVG 1.1//EN" "http://www.w3.org/Graphics/SVG/1.1/DTD/svg11.dtd">
<svg version="1.1" id="Capa_1" xmlns="http://www.w3.org/2000/svg" xmlns:xlink="http://www.w3.org/1999/xlink" x="0px" y="0px"
	 width="130px" height="130px" viewBox="0 0 130 130" enable-background="new 0 0 130 130" xml:space="preserve">
<g>
	<circle fill="#9A172F" cx="64.823" cy="64.249" r="59"/>
	<path fill-rule="evenodd" clip-rule="evenodd" fill="#FFFFFF" d="M52.121,58.443c0.332,0.724,0.519,1.354,0.875,1.867
		c1.349,1.945,2.638,3.946,4.155,5.752c3.274,3.893,6.646,7.706,10.043,11.494c0.844,0.939,1.938,1.655,3.092,2.619
		c0.304-1.045,0.494-1.774,0.733-2.489c0.195-0.586,0.399-1.179,0.687-1.724c1.303-2.477,3.344-3.39,6.002-2.514
		c4.939,1.625,9.351,4.228,13.328,7.563c2.404,2.017,2.271,4.476,0.984,6.696c-1.714,2.956-4.139,5.238-7.144,6.864
		c-2.448,1.325-5.086,1.197-7.707,0.742c-6.882-1.194-12.813-4.434-18.156-8.775c-9.044-7.35-15.748-16.381-19.281-27.595
		c-1.071-3.4-1.569-6.891-1.538-10.472c0.043-4.356,1.95-7.685,5.456-10.107c1.473-1.018,3.052-1.949,4.706-2.617
		c2.276-0.917,4.755-0.624,6.269,2.053c1.045,1.846,1.988,3.765,2.782,5.731c1.113,2.762,2.134,5.575,2.453,8.575
		c0.35,3.306-1.138,5.318-4.426,5.921C54.423,58.214,53.393,58.288,52.121,58.443z M78.833,93.321c0.973-0.023,1.992,0.13,2.913-0.1
		c4.138-1.028,6.835-3.841,8.68-7.511c0.521-1.04,0.218-2.159-0.824-3.003c-3.703-2.999-7.713-5.456-12.24-6.994
		c-2.019-0.687-3.028-0.212-3.849,1.763c-0.398,0.948-0.612,1.971-0.943,2.949c-0.548,1.619-1.814,2.237-3.345,1.458
		c-1.063-0.542-2.091-1.252-2.944-2.081c-5.07-4.915-9.569-10.334-13.719-16.035c-1.013-1.388-1.844-2.971-2.436-4.581
		c-0.588-1.603,0.33-2.775,2.018-3.032c0.991-0.15,2.003-0.184,2.982-0.395c2.122-0.456,2.826-1.417,2.472-3.54
		c-0.787-4.739-2.499-9.153-4.891-13.314c-0.511-0.891-1.238-1.358-2.248-1.262c-0.633,0.062-1.291,0.184-1.877,0.423
		c-2.051,0.839-3.795,2.138-5.402,3.66c-1.59,1.506-2.367,3.34-2.564,5.486c-0.375,4.076,0.222,8.046,1.551,11.868
		c4.576,13.159,13.017,23.189,24.992,30.226C70.745,91.416,74.636,92.832,78.833,93.321z"/>
</g>
</svg>
