<?xml version="1.0" encoding="utf-8"?>
<!-- Generator: Adobe Illustrator 17.0.0, SVG Export Plug-In . SVG Version: 6.00 Build 0)  -->
<!DOCTYPE svg PUBLIC "-//W3C//DTD SVG 1.1//EN" "http://www.w3.org/Graphics/SVG/1.1/DTD/svg11.dtd">
<svg version="1.1" id="Capa_1" xmlns="http://www.w3.org/2000/svg" xmlns:xlink="http://www.w3.org/1999/xlink" x="0px" y="0px"
	 width="130px" height="130px" viewBox="0 0 130 130" enable-background="new 0 0 130 130" xml:space="preserve">
<g>
	<circle fill="#F6A827" cx="65.999" cy="65.093" r="59"/>
	<g>
		<path fill="#FFFFFF" d="M65.886,43.324c9.115,0,18.229-0.001,27.342,0c4.635,0,7.959,3.11,7.992,7.754
			c0.074,10.448,0.069,20.898,0.001,31.347c-0.026,4.348-3.34,7.549-7.701,7.556c-18.384,0.028-36.77,0.028-55.153,0
			c-4.429-0.007-7.712-3.396-7.716-7.81C30.645,71.8,30.644,61.429,30.652,51.06c0.002-4.391,3.365-7.731,7.777-7.735
			C47.581,43.321,56.734,43.324,65.886,43.324z M65.954,86.498c8.991,0,17.982,0.005,26.973-0.003
			c3.189-0.003,4.701-1.517,4.701-4.668c0.002-10.013-0.069-20.026,0.043-30.038c0.035-3.012-1.838-4.855-4.834-4.844
			c-17.903,0.067-35.809,0.032-53.714,0.033c-3.44,0.001-4.936,1.501-4.937,4.959c-0.001,9.855-0.001,19.71,0,29.566
			c0,3.51,1.493,4.992,5.028,4.993C48.126,86.5,57.04,86.498,65.954,86.498z"/>
		<path fill="#FFFFFF" d="M66.582,69.178c-0.966-0.328-1.853-0.471-2.57-0.896c-7.894-4.689-15.76-9.425-23.638-14.138
			c-0.853-0.51-1.328-1.27-0.937-2.152c0.24-0.546,0.923-1.072,1.512-1.232c0.454-0.124,1.117,0.25,1.605,0.54
			c7.655,4.549,15.305,9.111,22.936,13.703c0.696,0.42,1.183,0.43,1.882-0.01c7.238-4.559,14.5-9.08,21.756-13.608
			c0.366-0.228,0.729-0.477,1.128-0.63c0.834-0.32,1.573-0.095,2.071,0.633c0.528,0.771,0.469,1.572-0.204,2.246
			c-0.301,0.301-0.683,0.525-1.048,0.753c-7.217,4.52-14.426,9.048-21.661,13.535C68.538,68.463,67.517,68.771,66.582,69.178z"/>
	</g>
</g>
</svg>
