<?xml version="1.0" encoding="utf-8"?>
<!-- Generator: Adobe Illustrator 16.0.0, SVG Export Plug-In . SVG Version: 6.00 Build 0)  -->
<!DOCTYPE svg PUBLIC "-//W3C//DTD SVG 1.1//EN" "http://www.w3.org/Graphics/SVG/1.1/DTD/svg11.dtd">
<svg version="1.1" id="Capa_1" xmlns="http://www.w3.org/2000/svg" xmlns:xlink="http://www.w3.org/1999/xlink" x="0px" y="0px"
	 width="130px" height="130px" viewBox="0 0 130 130" enable-background="new 0 0 130 130" xml:space="preserve">
<circle fill="#116280" cx="65.24" cy="64.608" r="48.854"/>
<g>
	<path fill-rule="evenodd" clip-rule="evenodd" fill="#FFFFFF" d="M65.146,46.584c7.547,0,15.094-0.002,22.64,0
		c3.837,0,6.59,2.576,6.617,6.42c0.062,8.651,0.058,17.304,0.001,25.956c-0.022,3.6-2.766,6.25-6.377,6.256
		c-15.223,0.023-30.446,0.023-45.668,0c-3.667-0.006-6.386-2.811-6.389-6.467c-0.005-8.588-0.006-17.174,0.001-25.761
		c0.002-3.635,2.786-6.4,6.439-6.404C49.989,46.58,57.568,46.584,65.146,46.584z M65.202,82.331c7.445,0,14.891,0.004,22.335-0.002
		c2.641-0.002,3.893-1.256,3.893-3.865c0.001-8.291-0.058-16.582,0.035-24.871c0.029-2.495-1.521-4.021-4.002-4.011
		c-14.825,0.057-29.651,0.027-44.478,0.027c-2.849,0.002-4.087,1.242-4.088,4.106c-0.001,8.16-0.001,16.32,0,24.48
		c0,2.906,1.236,4.135,4.163,4.135C50.44,82.333,57.821,82.331,65.202,82.331z"/>
	<path fill-rule="evenodd" clip-rule="evenodd" fill="#FFFFFF" d="M65.723,67.991c-0.8-0.273-1.534-0.391-2.128-0.744
		c-6.536-3.883-13.05-7.803-19.573-11.705c-0.706-0.424-1.1-1.053-0.775-1.783c0.199-0.45,0.765-0.888,1.252-1.021
		c0.376-0.102,0.925,0.207,1.329,0.447c6.339,3.767,12.673,7.544,18.991,11.347c0.577,0.348,0.979,0.355,1.559-0.008
		c5.993-3.775,12.006-7.518,18.015-11.269c0.303-0.188,0.604-0.395,0.934-0.521c0.69-0.264,1.303-0.078,1.715,0.525
		c0.438,0.638,0.388,1.302-0.169,1.858c-0.249,0.25-0.565,0.436-0.868,0.625c-5.975,3.742-11.944,7.492-17.936,11.207
		C67.342,67.399,66.496,67.653,65.723,67.991z"/>
</g>
</svg>
