<?xml version="1.0" encoding="utf-8"?>
<!-- Generator: Adobe Illustrator 17.0.0, SVG Export Plug-In . SVG Version: 6.00 Build 0)  -->
<!DOCTYPE svg PUBLIC "-//W3C//DTD SVG 1.1//EN" "http://www.w3.org/Graphics/SVG/1.1/DTD/svg11.dtd">
<svg version="1.1" id="Capa_1" xmlns="http://www.w3.org/2000/svg" xmlns:xlink="http://www.w3.org/1999/xlink" x="0px" y="0px"
	 width="130px" height="130px" viewBox="0 0 130 130" enable-background="new 0 0 130 130" xml:space="preserve">
<g>
	<circle fill="#F6A827" cx="65.96" cy="64.848" r="59"/>
	<g>
		<path fill="#FFFFFF" d="M89.302,55.77c-0.143,6.431-1.852,12.469-4.466,18.281c-3.274,7.279-7.32,14.113-12.103,20.492
			c-3.145,4.193-8.167,5.097-12.15,2.34c-0.702-0.486-1.396-1.059-1.905-1.734c-6.665-8.879-12.395-18.285-15.515-29.037
			c-1.609-5.545-2.307-11.226-0.673-16.942c3.12-10.917,14.459-18.313,25.733-16.803c10.938,1.465,19.068,9.214,20.811,19.873
			C89.224,53.399,89.216,54.592,89.302,55.77z M65.308,35.303c-0.45,0.025-1.04,0.062-1.628,0.093
			c-8.049,0.417-15.953,6.746-18.157,14.51c-1.391,4.897-0.833,9.757,0.443,14.536c2.771,10.397,8.305,19.406,14.556,28
			c2.876,3.955,7.023,3.873,9.942-0.076c4.494-6.081,8.338-12.563,11.473-19.448c2.178-4.782,3.531-9.771,4.108-15.031
			C87.433,45.273,77.096,35.318,65.308,35.303z"/>
		<path fill="#FFFFFF" d="M65.456,65.312c-5.325,0.023-9.731-4.36-9.759-9.705c-0.028-5.323,4.375-9.742,9.713-9.75
			c5.358-0.006,9.763,4.375,9.75,9.702C75.149,60.93,70.813,65.289,65.456,65.312z M65.429,49.015
			c-3.685,0.003-6.59,2.903-6.583,6.571c0.006,3.628,2.988,6.615,6.595,6.605c3.615-0.01,6.596-3.005,6.585-6.617
			C72.015,51.9,69.108,49.012,65.429,49.015z"/>
	</g>
</g>
</svg>
