<?xml version="1.0" encoding="utf-8"?>
<!-- Generator: Adobe Illustrator 16.0.0, SVG Export Plug-In . SVG Version: 6.00 Build 0)  -->
<!DOCTYPE svg PUBLIC "-//W3C//DTD SVG 1.1//EN" "http://www.w3.org/Graphics/SVG/1.1/DTD/svg11.dtd">
<svg version="1.1" id="Capa_1" xmlns="http://www.w3.org/2000/svg" xmlns:xlink="http://www.w3.org/1999/xlink" x="0px" y="0px"
	 width="49.158px" height="47.21px" viewBox="0 0 49.158 47.21" enable-background="new 0 0 49.158 47.21" xml:space="preserve">
<g>
	<path fill="#A52832" d="M26.044,39.767h0.154c8.906,0,16.129-7.22,16.129-16.128v-0.155c0-8.907-7.223-16.128-16.129-16.128h-0.154
		c-8.908,0-16.129,7.221-16.129,16.128v0.155C9.915,32.547,17.136,39.767,26.044,39.767z"/>
	<path fill="#FFFFFF" d="M20.048,15.391h12.148c1.152,0,2.096,0.943,2.096,2.099v12.146c0,1.154-0.943,2.095-2.096,2.095H20.048
		c-1.154,0-2.098-0.94-2.098-2.095V17.489C17.95,16.334,18.894,15.391,20.048,15.391z M29.856,17.205
		c-0.406,0-0.736,0.332-0.736,0.737v1.761c0,0.404,0.33,0.734,0.736,0.734h1.846c0.406,0,0.736-0.33,0.736-0.734v-1.761
		c0-0.405-0.33-0.737-0.736-0.737H29.856z M32.444,22.302h-1.438c0.137,0.445,0.211,0.916,0.211,1.403
		c0,2.717-2.275,4.921-5.08,4.921c-2.807,0-5.08-2.204-5.08-4.921c0-0.487,0.074-0.958,0.209-1.403h-1.498v6.903
		c0,0.357,0.291,0.648,0.648,0.648h11.379c0.359,0,0.648-0.291,0.648-0.648V22.302z M26.138,20.346
		c-1.812,0-3.281,1.423-3.281,3.181c0,1.757,1.469,3.181,3.281,3.181s3.283-1.424,3.283-3.181
		C29.421,21.769,27.95,20.346,26.138,20.346z"/>
</g>
</svg>
