<?xml version="1.0" encoding="utf-8"?>
<!-- Generator: Adobe Illustrator 16.0.0, SVG Export Plug-In . SVG Version: 6.00 Build 0)  -->
<!DOCTYPE svg PUBLIC "-//W3C//DTD SVG 1.1//EN" "http://www.w3.org/Graphics/SVG/1.1/DTD/svg11.dtd">
<svg version="1.1" id="Capa_1" xmlns="http://www.w3.org/2000/svg" xmlns:xlink="http://www.w3.org/1999/xlink" x="0px" y="0px"
	 width="100px" height="100px" viewBox="0 0 100 100" enable-background="new 0 0 100 100" xml:space="preserve">
<path fill-rule="evenodd" clip-rule="evenodd" fill="#2C0C52" d="M33.636,38.337c0.473,1.034,0.741,1.936,1.25,2.67
	c1.928,2.781,3.771,5.642,5.94,8.224c4.682,5.568,9.503,11.019,14.362,16.433c1.205,1.345,2.77,2.368,4.418,3.746
	c0.436-1.494,0.707-2.538,1.049-3.561c0.279-0.837,0.572-1.684,0.982-2.463c1.862-3.543,4.779-4.848,8.582-3.595
	c7.062,2.325,13.369,6.046,19.055,10.813c3.44,2.885,3.249,6.401,1.408,9.574c-2.449,4.229-5.916,7.491-10.213,9.816
	c-3.5,1.895-7.272,1.713-11.021,1.062c-9.839-1.71-18.32-6.342-25.959-12.549c-12.93-10.509-22.516-23.422-27.568-39.455
	c-1.532-4.863-2.244-9.854-2.198-14.975c0.061-6.229,2.788-10.988,7.8-14.451c2.105-1.456,4.364-2.788,6.728-3.741
	c3.254-1.311,6.799-0.893,8.962,2.934c1.495,2.639,2.843,5.383,3.979,8.194c1.591,3.95,3.052,7.971,3.507,12.261
	c0.5,4.728-1.626,7.605-6.328,8.467C36.927,38.009,35.454,38.114,33.636,38.337z M71.83,88.206c1.391-0.034,2.846,0.185,4.164-0.144
	c5.916-1.471,9.773-5.49,12.41-10.737c0.746-1.487,0.312-3.088-1.178-4.294c-5.295-4.287-11.029-7.801-17.502-10.001
	c-2.887-0.981-4.328-0.303-5.504,2.519c-0.568,1.357-0.875,2.82-1.347,4.218c-0.785,2.317-2.596,3.199-4.783,2.085
	c-1.52-0.773-2.989-1.789-4.211-2.975C46.631,61.85,40.199,54.1,34.266,45.949c-1.447-1.984-2.637-4.246-3.481-6.549
	c-0.841-2.292,0.47-3.969,2.883-4.335c1.417-0.215,2.864-0.264,4.264-0.565c3.036-0.651,4.042-2.028,3.536-5.061
	c-1.125-6.777-3.572-13.088-6.993-19.038c-0.73-1.274-1.77-1.942-3.213-1.804c-0.906,0.087-1.845,0.262-2.684,0.604
	c-2.933,1.201-5.426,3.058-7.724,5.234c-2.273,2.154-3.384,4.777-3.667,7.844c-0.537,5.828,0.318,11.507,2.218,16.969
	c6.542,18.814,18.611,33.156,35.735,43.217C60.266,85.481,65.828,87.506,71.83,88.206z"/>
</svg>
