<?xml version="1.0" encoding="utf-8"?>
<!-- Generator: Adobe Illustrator 16.0.0, SVG Export Plug-In . SVG Version: 6.00 Build 0)  -->
<!DOCTYPE svg PUBLIC "-//W3C//DTD SVG 1.1//EN" "http://www.w3.org/Graphics/SVG/1.1/DTD/svg11.dtd">
<svg version="1.1" id="Capa_1" xmlns="http://www.w3.org/2000/svg" xmlns:xlink="http://www.w3.org/1999/xlink" x="0px" y="0px"
	 width="841.89px" height="595.28px" viewBox="0 0 841.89 595.28" enable-background="new 0 0 841.89 595.28" xml:space="preserve">
<g>
	<defs>
		<path id="SVGID_1_" d="M16.435,14.492c-0.494,0-0.897,0.417-0.897,0.931V39.9c0,0.512,0.403,0.931,0.897,0.931h14.637
			c0.494,0,0.897-0.418,0.897-0.931V15.422c0-0.514-0.403-0.931-0.897-0.931H16.435z M31.071,42.161H16.435
			c-1.203,0-2.182-1.014-2.182-2.261V15.422c0-1.247,0.979-2.261,2.182-2.261h14.637c1.203,0,2.182,1.015,2.182,2.261V39.9
			C33.253,41.147,32.274,42.161,31.071,42.161z"/>
	</defs>
	<clipPath id="SVGID_2_">
		<use xlink:href="#SVGID_1_"  overflow="visible"/>
	</clipPath>
	<g clip-path="url(#SVGID_2_)">
		<defs>
			<rect id="SVGID_3_" x="-1247.747" y="-36.839" width="1440" height="7950.999"/>
		</defs>
		<clipPath id="SVGID_4_">
			<use xlink:href="#SVGID_3_"  overflow="visible"/>
		</clipPath>
		<rect x="9.253" y="8.161" clip-path="url(#SVGID_4_)" fill="#FFFFFF" width="29" height="39"/>
	</g>
</g>
<g>
	<defs>
		<path id="SVGID_5_" d="M29.144,26.702c-0.4,0-0.727,0.338-0.727,0.754c0,0.415,0.326,0.753,0.727,0.753
			c0.401,0,0.729-0.339,0.729-0.753C29.872,27.041,29.546,26.702,29.144,26.702z M27.133,27.457c0-1.149,0.902-2.084,2.011-2.084
			c1.11,0,2.013,0.935,2.013,2.084c0,1.149-0.902,2.084-2.013,2.084C28.035,29.541,27.133,28.605,27.133,27.457z"/>
	</defs>
	<clipPath id="SVGID_6_">
		<use xlink:href="#SVGID_5_"  overflow="visible"/>
	</clipPath>
	<g clip-path="url(#SVGID_6_)">
		<defs>
			<rect id="SVGID_7_" x="-1247.747" y="-36.839" width="1440" height="7950.999"/>
		</defs>
		<clipPath id="SVGID_8_">
			<use xlink:href="#SVGID_7_"  overflow="visible"/>
		</clipPath>
		<rect x="22.133" y="20.373" clip-path="url(#SVGID_8_)" fill="#FFFFFF" width="14.023" height="14.168"/>
	</g>
</g>
</svg>
