<?xml version="1.0" encoding="utf-8"?>
<!-- Generator: Adobe Illustrator 16.0.0, SVG Export Plug-In . SVG Version: 6.00 Build 0)  -->
<!DOCTYPE svg PUBLIC "-//W3C//DTD SVG 1.1//EN" "http://www.w3.org/Graphics/SVG/1.1/DTD/svg11.dtd">
<svg version="1.1" id="Capa_1" xmlns="http://www.w3.org/2000/svg" xmlns:xlink="http://www.w3.org/1999/xlink" x="0px" y="0px"
	 width="164.5px" height="43px" viewBox="0 0 164.5 43" enable-background="new 0 0 164.5 43" xml:space="preserve">
<g>
	<path fill="#FFFFFF" d="M50.263,12.237c0-5.658-4.604-10.263-10.263-10.263c-3.939,0-7.364,2.23-9.084,5.494l-0.002-0.001
		l-4.696,8.645l-4.729-8.647l-0.004,0.003c-1.72-3.263-5.146-5.493-9.082-5.493c-5.66,0-10.264,4.604-10.264,10.263
		c0,2.025,0.592,3.917,1.611,5.508c0.025,0.195,0.108,0.385,0.259,0.536l0.526,0.537c0.344,0.41,0.721,0.794,1.125,1.146
		l2.265,2.309c0.256,0.434,1.422,2.674-0.583,4.372c-0.398,0.334-0.448,0.932-0.11,1.328c0.186,0.221,0.452,0.334,0.719,0.334
		c0.215,0,0.431-0.074,0.609-0.225c2.195-1.856,2.027-4.276,1.417-5.875c0.778,0.189,1.589,0.292,2.426,0.292
		c5.259,0,9.604-3.979,10.192-9.084l2.553,4.665l-5.609,10.325c-0.887,1.301-1.409,2.87-1.409,4.562
		c0,0.058,0.007,0.114,0.009,0.172l-0.62-0.717l-0.053-0.057c-0.145-0.142-1.475-1.408-3.181-1.372
		c-0.933,0.012-1.807,0.411-2.527,1.153c-0.362,0.375-0.353,0.972,0.02,1.334c0.375,0.362,0.971,0.354,1.335-0.021
		c1.242-1.282,2.679-0.082,3.008,0.229l3.524,4.077c0.059,0.067,0.127,0.122,0.2,0.169c1.485,1.907,3.797,3.142,6.397,3.142
		c2.924,0,5.482-1.562,6.91-3.887l0.001,0.002l14.458-18.074l-0.002-0.003C49.258,17.296,50.263,14.881,50.263,12.237z
		 M29.153,25.405c-0.905-0.351-1.885-0.55-2.911-0.55c-1.035,0-2.021,0.202-2.931,0.558l2.913-5.362L29.153,25.405z M32.943,28.408
		l-5.649-10.329l2.518-4.633C30.412,18.538,34.75,22.5,40,22.5c0.974,0,1.913-0.139,2.806-0.394l-8.467,10.587
		C34.285,31.108,33.783,29.637,32.943,28.408z M40,3.86c4.618,0,8.378,3.759,8.378,8.377c0,4.619-3.76,8.377-8.378,8.377
		c-4.619,0-8.378-3.758-8.378-8.377C31.622,7.619,35.381,3.86,40,3.86z M12.402,20.614c-2.075,0-3.973-0.758-5.438-2.012L5.92,17.54
		c-1.185-1.446-1.896-3.294-1.896-5.303c0-4.618,3.759-8.377,8.378-8.377c4.618,0,8.377,3.759,8.377,8.377
		C20.779,16.856,17.021,20.614,12.402,20.614z M26.242,39.191c-3.433,0-6.227-2.792-6.227-6.224c0-3.434,2.794-6.228,6.227-6.228
		c3.432,0,6.224,2.794,6.224,6.228C32.466,36.399,29.674,39.191,26.242,39.191z"/>
	<g>
		<path fill="#FFFFFF" d="M60.468,8.327c0.781,0,1.395,0.614,1.395,1.396s-0.614,1.396-1.395,1.396
			c-0.782,0-1.397-0.615-1.397-1.396S59.686,8.327,60.468,8.327z M59.49,15.419c0-0.699,0.364-1.033,1.033-1.033
			c0.699,0,1.09,0.334,1.09,1.033V29.21c0,0.698-0.364,1.033-1.063,1.033c-0.696,0-1.06-0.335-1.06-1.033V15.419z"/>
		<path fill="#FFFFFF" d="M66.386,15.725c0-0.809,0.335-1.228,1.034-1.228c0.669,0,1.032,0.391,1.032,1.146v1.088
			c0.753-1.48,2.401-2.484,4.049-2.484c1.841,0,3.517,1.173,4.215,2.933c0.894-1.76,2.82-2.933,4.914-2.933
			c2.847,0,5.221,2.01,5.221,4.941v9.995c0,0.67-0.334,1.005-1.032,1.005c-0.699,0-1.062-0.335-1.062-1.005v-9.101
			c0-2.012-1.2-3.688-3.238-3.688c-2.373,0-3.908,2.039-3.908,4.386v8.402c0,0.697-0.336,1.033-1.006,1.033
			c-0.697,0-1.033-0.336-1.033-1.033v-9.101c0-2.038-1.229-3.63-3.266-3.63c-2.373,0-3.88,1.981-3.88,4.328v8.402
			c0,0.697-0.336,1.033-1.005,1.033c-0.699,0-1.034-0.336-1.034-1.033V15.725z"/>
		<path fill="#FFFFFF" d="M90.758,15.335c0-0.727,0.336-1.089,1.034-1.089c0.696,0,1.032,0.362,1.032,1.089v2.123
			c0.615-1.761,2.709-3.212,4.606-3.212c4.328,0,6.505,4.215,6.505,8.264c0,4.048-2.177,8.068-6.505,8.068
			c-1.981,0-3.797-1.005-4.606-2.764v7.733c0,0.698-0.501,1.116-1.061,1.116c-0.669,0-1.005-0.39-1.005-1.144V15.335z
			 M101.843,22.621c0-2.763-1.116-6.31-4.215-6.31c-3.24,0-4.635,3.268-4.635,6.198c0,2.987,1.395,6.17,4.635,6.17
			C100.727,28.68,101.843,25.441,101.843,22.621z"/>
		<path fill="#FFFFFF" d="M113.54,14.358c3.714,0,5.667,2.233,5.667,5.053v10.023c0,0.529-0.363,1.032-1.032,1.032
			c-0.67,0-1.006-0.475-1.032-1.005c-0.029-0.53-0.029-0.698-0.029-0.95c-1.2,1.285-2.987,1.955-4.774,1.955
			c-2.736,0-5.36-1.535-5.36-4.662c0-3.268,2.987-4.943,5.919-4.943c1.591,0,3.294,0.476,4.215,1.397v-2.652
			c0-1.927-1.562-3.212-4.188-3.212c-1.813,0-2.986,0.671-3.853,0.671c-0.473,0-0.949-0.223-0.949-0.865
			c0-0.363,0.308-0.809,0.783-1.005C110.135,14.691,111.615,14.358,113.54,14.358z M112.703,28.512c2.121,0,4.383-1.116,4.383-3.043
			c0-1.702-2.122-2.68-4.187-2.68c-1.955,0-3.826,0.894-3.826,2.848C109.073,27.647,110.805,28.512,112.703,28.512z"/>
		<path fill="#FFFFFF" d="M122.391,15.614c0-0.727,0.334-1.088,1.005-1.088c0.698,0,1.032,0.361,1.032,1.088v1.34
			c1.033-1.841,2.988-2.708,4.887-2.708c1.48,0,2.038,0.67,2.038,1.284c0,0.558-0.446,1.09-1.09,1.09
			c-0.753,0-0.948-0.196-1.897-0.196c-1.814,0-3.938,1.898-3.938,4.048v8.768c0,0.669-0.334,1.004-1.032,1.004
			c-0.671,0-1.005-0.335-1.005-1.004V15.614z"/>
		<path fill="#FFFFFF" d="M145.954,21.198c0,1.507-0.252,2.262-1.564,2.262h-9.436c0,2.511,2.512,5.052,4.998,5.052
			c1.562,0,2.541-0.307,3.796-1.424c0.362-0.333,0.81-0.501,1.2-0.501c0.531,0,0.921,0.307,0.921,0.949
			c0,0.222-0.055,0.419-0.194,0.558c-1.313,1.647-3.238,2.484-5.724,2.484c-4.606,0-7.205-3.742-7.205-8.151
			c0-4.104,2.403-8.209,6.758-8.209C143.636,14.218,145.954,17.122,145.954,21.198z M143.887,21.45c0-2.849-1.647-5.166-4.299-5.166
			c-2.68,0-4.606,2.373-4.606,5.166H143.887z"/>
		<path fill="#FFFFFF" d="M155.417,28.485c1.509,0,3.435-0.614,3.435-2.43c0-1.368-1.732-2.15-3.21-2.681
			c-2.541-0.922-5.612-2.149-5.612-4.522c0-3.155,2.652-4.551,5.612-4.551c1.451,0,2.986,0.278,4.327,1.006
			c0.363,0.194,0.531,0.585,0.531,0.977c0,0.643-0.419,0.977-0.949,0.977c-0.196,0-0.419-0.055-0.616-0.168
			c-0.669-0.391-2.037-0.725-3.35-0.725c-1.646,0-3.35,0.586-3.35,2.233c0,1.284,2.178,1.953,4.271,2.819
			c2.289,0.949,4.634,1.925,4.634,4.439c0,3.434-3.015,4.69-5.778,4.69c-2.011,0-3.629-0.671-5.166-1.647
			c-0.25-0.166-0.362-0.502-0.362-0.838c0-0.781,0.39-1.146,0.92-1.146c0.251,0,0.531,0.113,0.81,0.309
			C152.542,27.871,153.854,28.485,155.417,28.485z"/>
	</g>
</g>
</svg>
