<?xml version="1.0" encoding="utf-8"?>
<!-- Generator: Adobe Illustrator 16.0.0, SVG Export Plug-In . SVG Version: 6.00 Build 0)  -->
<!DOCTYPE svg PUBLIC "-//W3C//DTD SVG 1.1//EN" "http://www.w3.org/Graphics/SVG/1.1/DTD/svg11.dtd">
<svg version="1.1" id="Capa_1" xmlns="http://www.w3.org/2000/svg" xmlns:xlink="http://www.w3.org/1999/xlink" x="0px" y="0px"
	 width="100px" height="100px" viewBox="0 0 100 100" enable-background="new 0 0 100 100" xml:space="preserve">
<path fill="none" d="M86.719,10.757c-0.752-0.742-1.531-0.742-2.289-0.005c-1.365,1.328-2.725,2.664-4.014,3.929
	c2.148,2.158,4.223,4.238,6.361,6.384c1.301-1.308,2.682-2.672,4.033-4.064c0.697-0.72,0.648-1.489-0.045-2.193
	C89.424,13.448,88.074,12.099,86.719,10.757z"/>
<path fill="none" d="M86.719,10.757c-0.752-0.742-1.531-0.742-2.289-0.005c-1.365,1.328-2.725,2.664-4.014,3.929
	c2.148,2.158,4.223,4.238,6.361,6.384c1.301-1.308,2.682-2.672,4.033-4.064c0.697-0.72,0.648-1.489-0.045-2.193
	C89.424,13.448,88.074,12.099,86.719,10.757z"/>
<path fill="none" d="M85.213,26.65c-0.127,0.149-0.24,0.285-0.342,0.41l0.342-0.331C85.213,26.703,85.213,26.677,85.213,26.65z"/>
<path fill="#2E1D51" d="M95.211,14.078c-1.389-1.484-2.828-2.926-4.314-4.316c-1.895-1.775-4.512-1.714-6.377,0.094
	c-1.25,1.215-7.705,7.631-7.705,7.631s-27.901,27.96-41.292,41.398c-0.524,0.525-0.938,1.26-1.152,1.973
	c-0.833,2.771-1.639,5.559-2.302,8.375c-0.349,1.477-0.966,2.674-2.104,3.674c-0.917,0.807-0.978,1.707-0.331,2.365
	c0.664,0.676,1.605,0.666,2.366-0.266c1.069-1.309,2.47-1.84,4.024-2.234c2.728-0.691,5.443-1.432,8.143-2.232
	c0.675-0.201,1.372-0.594,1.867-1.088c13.104-13.062,45.424-45.44,45.588-45.585c1.23-1.109,2.398-2.299,3.527-3.516
	C96.926,18.437,96.957,15.942,95.211,14.078z M34.974,69.977c0.604-2.24,1.165-4.32,1.707-6.328
	c1.537,1.537,3.049,3.047,4.598,4.596C39.312,68.783,37.259,69.35,34.974,69.977z M44.358,66.467
	c-1.892-1.9-3.934-3.951-5.866-5.895C51.02,48.044,63.652,35.409,76.217,22.844c1.898,1.9,3.943,3.947,5.881,5.885
	C69.568,41.259,56.934,53.893,44.358,66.467z M84.434,26.303c-1.885-1.883-3.936-3.931-5.939-5.935
	c0.582-0.644,1.209-1.336,1.758-1.943c2.088,2.087,4.133,4.13,6.268,6.263C85.904,25.165,85.16,25.74,84.434,26.303z M93.002,18.25
	c-1.35,1.392-2.73,2.756-4.031,4.064c-2.139-2.146-4.213-4.226-6.363-6.384c1.291-1.265,2.65-2.601,4.014-3.929
	c0.76-0.737,1.537-0.737,2.291,0.005c1.355,1.342,2.705,2.691,4.045,4.05C93.652,16.761,93.699,17.529,93.002,18.25z"/>
<path fill="#2E1D51" d="M79.986,88.043H14.764c-4.136,0-7.5-3.104-7.5-6.916V21.23c0-3.814,3.364-6.917,7.5-6.917h54.65
	c0.828,0,1.5,0.671,1.5,1.5s-0.672,1.5-1.5,1.5h-54.65c-2.481,0-4.5,1.757-4.5,3.917v59.897c0,2.158,2.019,3.916,4.5,3.916h65.223
	c2.482,0,4.5-1.758,4.5-3.916V39.748c0-0.829,0.672-1.5,1.5-1.5s1.5,0.671,1.5,1.5v41.379
	C87.486,84.939,84.123,88.043,79.986,88.043z"/>
</svg>
