<?xml version="1.0" encoding="utf-8"?>
<!-- Generator: Adobe Illustrator 16.0.0, SVG Export Plug-In . SVG Version: 6.00 Build 0)  -->
<!DOCTYPE svg PUBLIC "-//W3C//DTD SVG 1.1//EN" "http://www.w3.org/Graphics/SVG/1.1/DTD/svg11.dtd">
<svg version="1.1" id="Capa_1" xmlns="http://www.w3.org/2000/svg" xmlns:xlink="http://www.w3.org/1999/xlink" x="0px" y="0px"
	 width="841.89px" height="595.28px" viewBox="0 0 841.89 595.28" enable-background="new 0 0 841.89 595.28" xml:space="preserve">
<g>
	<defs>
		<path id="SVGID_1_" d="M28.051,16.342c-2.283,0-4.141,1.774-4.141,3.957c0,2.182,1.857,3.958,4.141,3.958s4.14-1.776,4.14-3.958
			C32.19,18.116,30.334,16.342,28.051,16.342z M28.051,25.438c-2.945,0-5.34-2.306-5.34-5.14c0-2.833,2.395-5.139,5.34-5.139
			c2.944,0,5.34,2.306,5.34,5.139C33.391,23.132,30.995,25.438,28.051,25.438z"/>
	</defs>
	<clipPath id="SVGID_2_">
		<use xlink:href="#SVGID_1_"  overflow="visible"/>
	</clipPath>
	<g clip-path="url(#SVGID_2_)">
		<defs>
			<rect id="SVGID_3_" x="-1191.77" y="-37.841" width="1440" height="7950.999"/>
		</defs>
		<clipPath id="SVGID_4_">
			<use xlink:href="#SVGID_3_"  overflow="visible"/>
		</clipPath>
		<rect x="17.711" y="10.159" clip-path="url(#SVGID_4_)" fill="#FFFFFF" width="20.68" height="20.279"/>
	</g>
</g>
<g>
	<defs>
		<path id="SVGID_5_" d="M20.521,39.977h15.197c0.04-0.064,0.111-0.267,0.074-0.877c-0.005-0.056-0.007-0.1-0.007-0.128
			c-0.104-7.842-2.4-11.187-7.676-11.187c-5.37,0-7.594,3.293-7.677,11.366C20.43,39.515,20.475,39.818,20.521,39.977z
			 M35.729,41.159H20.326c-0.235,0-0.46-0.094-0.631-0.264c-0.393-0.391-0.468-1.171-0.462-1.756
			c0.041-3.964,0.566-6.727,1.654-8.697c1.407-2.547,3.837-3.839,7.223-3.839c7.72,0,8.799,6.602,8.876,12.354
			c0,0.015,0.002,0.04,0.004,0.07c0.024,0.38,0.079,1.266-0.411,1.778C36.358,41.037,36.065,41.159,35.729,41.159z"/>
	</defs>
	<clipPath id="SVGID_6_">
		<use xlink:href="#SVGID_5_"  overflow="visible"/>
	</clipPath>
	<g clip-path="url(#SVGID_6_)">
		<defs>
			<rect id="SVGID_7_" x="-1191.77" y="-37.841" width="1440" height="7950.999"/>
		</defs>
		<clipPath id="SVGID_8_">
			<use xlink:href="#SVGID_7_"  overflow="visible"/>
		</clipPath>
		<rect x="14.233" y="21.604" clip-path="url(#SVGID_8_)" fill="#FFFFFF" width="27.772" height="24.556"/>
	</g>
</g>
</svg>
