<?xml version="1.0" encoding="utf-8"?>
<!-- Generator: Adobe Illustrator 16.0.0, SVG Export Plug-In . SVG Version: 6.00 Build 0)  -->
<!DOCTYPE svg PUBLIC "-//W3C//DTD SVG 1.1//EN" "http://www.w3.org/Graphics/SVG/1.1/DTD/svg11.dtd">
<svg version="1.1" id="Capa_1" xmlns="http://www.w3.org/2000/svg" xmlns:xlink="http://www.w3.org/1999/xlink" x="0px" y="0px"
	 width="110.667px" height="100px" viewBox="-4.5 0 110.667 100" enable-background="new -4.5 0 110.667 100" xml:space="preserve">
<path fill="#2C0C52" d="M51.603,85.334l-0.567-0.005C33.371,85.052,17.617,72.511,9.798,65.06c-3.024-2.881-3.303-5.018-3.328-5.416
	c-0.003-0.049-0.004-0.098-0.002-0.147c0.01-0.27,0.183-2.728,3.292-5.966c7.012-7.299,21.624-19.545,40.714-19.545l0.604,0.004
	c19.255,0.262,34.438,12.483,41.774,19.745c3.274,3.238,3.58,5.691,3.604,5.961c0.012,0.133,0.006,0.268-0.018,0.399
	c-0.048,0.263-0.562,2.65-3.996,5.816C84.577,73.164,68.811,85.334,51.603,85.334z M9.484,59.528
	c0.086,0.312,0.52,1.584,2.384,3.359c7.501,7.148,22.571,19.182,39.214,19.441l0.521,0.005c16.188,0,31.263-11.672,38.808-18.63
	c2.094-1.93,2.799-3.398,3.007-3.945c-0.155-0.516-0.729-1.971-2.673-3.893c-7.016-6.944-21.504-18.63-39.706-18.877l-0.563-0.004
	c-17.977,0-31.869,11.668-38.55,18.624C9.985,57.628,9.567,59.116,9.484,59.528z"/>
<path fill="#2C0C52" d="M50.55,75.585c-8.782,0-15.926-7.145-15.926-15.926c0-8.782,7.144-15.926,15.926-15.926
	c8.78,0,15.925,7.144,15.925,15.926C66.475,68.44,59.33,75.585,50.55,75.585z M50.55,46.733c-7.128,0-12.926,5.798-12.926,12.926
	c0,7.127,5.798,12.926,12.926,12.926c7.127,0,12.925-5.799,12.925-12.926C63.475,52.531,57.677,46.733,50.55,46.733z"/>
<path fill="#2C0C52" d="M12.263,43.564c-0.377,0-0.754-0.141-1.046-0.425L-1.09,31.165c-0.594-0.578-0.607-1.527-0.029-2.121
	c0.578-0.594,1.528-0.606,2.121-0.029l12.307,11.975c0.594,0.578,0.607,1.527,0.029,2.121
	C13.044,43.412,12.653,43.564,12.263,43.564z"/>
<path fill="#2C0C52" d="M50.55,27.676c-0.829,0-1.5-0.671-1.5-1.5V10.589c0-0.829,0.671-1.5,1.5-1.5s1.5,0.671,1.5,1.5v15.587
	C52.05,27.005,51.379,27.676,50.55,27.676z"/>
<path fill="#2C0C52" d="M91.934,44.64c-0.354,0-0.709-0.125-0.994-0.377c-0.619-0.549-0.677-1.498-0.127-2.117l10.82-12.21
	c0.549-0.62,1.498-0.677,2.117-0.128s0.677,1.498,0.127,2.117l-10.82,12.21C92.761,44.469,92.348,44.64,91.934,44.64z"/>
<path fill="#2C0C52" d="M71.915,32.176c-0.202,0-0.407-0.042-0.604-0.128c-0.758-0.334-1.102-1.22-0.767-1.978L76.9,15.674
	c0.334-0.757,1.219-1.101,1.979-0.766c0.758,0.334,1.101,1.22,0.766,1.978l-6.356,14.395C73.041,31.842,72.491,32.176,71.915,32.176
	z"/>
<path fill="#2C0C52" d="M29.107,31.752c-0.542,0-1.066-0.295-1.333-0.81l-7.242-13.972c-0.381-0.736-0.094-1.641,0.641-2.022
	c0.736-0.382,1.641-0.093,2.022,0.641l7.243,13.972c0.381,0.736,0.094,1.641-0.642,2.022C29.575,31.698,29.34,31.752,29.107,31.752z
	"/>
</svg>
