<?xml version="1.0" encoding="utf-8"?>
<!-- Generator: Adobe Illustrator 16.0.0, SVG Export Plug-In . SVG Version: 6.00 Build 0)  -->
<!DOCTYPE svg PUBLIC "-//W3C//DTD SVG 1.1//EN" "http://www.w3.org/Graphics/SVG/1.1/DTD/svg11.dtd">
<svg version="1.1" id="Capa_1" xmlns="http://www.w3.org/2000/svg" xmlns:xlink="http://www.w3.org/1999/xlink" x="0px" y="0px"
	 width="53px" height="115px" viewBox="0 0 53 115" enable-background="new 0 0 53 115" xml:space="preserve">
<g>
	<path fill-rule="evenodd" clip-rule="evenodd" fill="#FFFFFF" d="M30.042,3.614c1.531,0.536,3.116,0.956,4.586,1.628
		c7.224,3.303,11.514,8.881,11.695,16.879c0.262,11.409,0.254,22.833,0.002,34.241C46.1,66.61,37.465,74.561,27.126,74.558
		C16.78,74.554,8.172,66.614,7.94,56.35C7.684,45.038,7.739,33.713,7.905,22.397c0.128-8.748,6.006-15.879,14.463-18.141
		c0.635-0.17,1.246-0.426,1.868-0.643C26.172,3.614,28.106,3.614,30.042,3.614z M10.343,39.1c0,5.313-0.058,10.628,0.013,15.94
		c0.127,9.596,7.576,17.073,16.869,17.021c9.182-0.053,16.579-7.447,16.677-16.916c0.11-10.626,0.104-21.255,0.006-31.881
		C43.818,13.576,36.44,6.256,27.038,6.312c-9.408,0.056-16.585,7.397-16.688,17.137C10.296,28.666,10.341,33.883,10.343,39.1z"/>
	<path fill-rule="evenodd" clip-rule="evenodd" fill="#FFFFFF" d="M27.12,98.189c2.875-2.874,5.616-5.615,8.357-8.354
		c0.343-0.344,0.644-0.758,1.046-1.006c0.301-0.186,0.733-0.16,1.108-0.229c-0.053,0.419-0.068,0.847-0.177,1.25
		c-0.049,0.182-0.284,0.312-0.438,0.465c-2.898,2.9-5.825,5.773-8.68,8.717c-0.854,0.881-1.425,1.018-2.347,0.062
		c-2.885-2.989-5.873-5.877-8.771-8.854c-0.369-0.379-0.438-1.051-0.646-1.587c0.53,0.183,1.204,0.219,1.567,0.572
		C21.113,92.125,24.027,95.085,27.12,98.189z"/>
	<path fill-rule="evenodd" clip-rule="evenodd" fill="#FFFFFF" d="M27.179,108.217c2.915-2.918,5.765-5.771,8.616-8.622
		c0.305-0.305,0.583-0.661,0.942-0.876c0.223-0.133,0.762-0.153,0.835-0.03c0.157,0.262,0.136,0.651,0.119,0.985
		c-0.006,0.125-0.196,0.244-0.312,0.359c-3.126,3.127-6.263,6.244-9.371,9.39c-0.638,0.645-1.116,0.636-1.75-0.005
		c-3.108-3.145-6.26-6.248-9.347-9.413c-0.264-0.271-0.172-0.887-0.246-1.343c0.415,0.121,0.953,0.117,1.226,0.383
		c2.664,2.599,5.281,5.244,7.916,7.872C26.22,107.327,26.65,107.717,27.179,108.217z"/>
	<path fill-rule="evenodd" clip-rule="evenodd" fill="#FFFFFF" d="M26.922,23.632c-2.094-0.113-3.794-1.992-3.663-4.049
		c0.131-2.061,2.057-3.792,4.081-3.668C29.401,16.042,31.117,17.957,31,20C30.881,22.086,29.018,23.746,26.922,23.632z"/>
</g>
</svg>
