<?xml version="1.0" encoding="utf-8"?>
<!-- Generator: Adobe Illustrator 16.0.0, SVG Export Plug-In . SVG Version: 6.00 Build 0)  -->
<!DOCTYPE svg PUBLIC "-//W3C//DTD SVG 1.1//EN" "http://www.w3.org/Graphics/SVG/1.1/DTD/svg11.dtd">
<svg version="1.1" id="Capa_1" xmlns="http://www.w3.org/2000/svg" xmlns:xlink="http://www.w3.org/1999/xlink" x="0px" y="0px"
	 width="49.158px" height="47.21px" viewBox="0 0 49.158 47.21" enable-background="new 0 0 49.158 47.21" xml:space="preserve">
<g>
	<path fill="#A52832" d="M26.215,40.257L26.215,40.257c-8.906,0-16.129-7.22-16.129-16.128l0,0C10.086,15.221,17.309,8,26.215,8l0,0
		c8.908,0,16.129,7.221,16.129,16.129l0,0C42.344,33.037,35.124,40.257,26.215,40.257z"/>
	<path fill="#FFFFFF" d="M21.276,20.895h2.117v-1.92c0-0.846,0.021-2.15,0.682-2.959c0.693-0.855,1.646-1.438,3.287-1.438
		c2.668,0,3.793,0.354,3.793,0.354l-0.529,2.926c0,0-0.881-0.237-1.703-0.237c-0.824,0-1.561,0.275-1.561,1.043v2.231h3.375
		L30.5,23.753h-3.139v9.928h-3.969v-9.928h-2.117V20.895z"/>
</g>
</svg>
