<?xml version="1.0" encoding="utf-8"?>
<!-- Generator: Adobe Illustrator 16.0.0, SVG Export Plug-In . SVG Version: 6.00 Build 0)  -->
<!DOCTYPE svg PUBLIC "-//W3C//DTD SVG 1.1//EN" "http://www.w3.org/Graphics/SVG/1.1/DTD/svg11.dtd">
<svg version="1.1" id="Capa_1" xmlns="http://www.w3.org/2000/svg" xmlns:xlink="http://www.w3.org/1999/xlink" x="0px" y="0px"
	 width="841.89px" height="595.28px" viewBox="0 0 841.89 595.28" enable-background="new 0 0 841.89 595.28" xml:space="preserve">
<g>
	<defs>
		<path id="SVGID_1_" d="M44.391,30.316c-1.135,0-2.235,0.211-2.823,0.422c-7.805,2.789-10.619,11.447-9.931,18.312
			c1.897,18.926,18.118,40.909,36.924,50.047c5.209,2.531,10.301,4.801,15.341,4.801c1.669,0,3.259-0.264,4.724-0.785
			c4.021-1.428,7.511-5.209,9.106-9.871c1.587-4.635-3.731-8.629-7.043-10.6c-3.957-2.354-7.765-3.65-10.723-3.65
			c-4.428,0-6.88,2.799-7.498,8.561c-0.051,0.469-0.338,0.883-0.763,1.09c-0.426,0.209-0.929,0.184-1.331-0.066
			c-0.626-0.387-15.478-9.736-25.771-31.186c-0.205-0.428-0.174-0.931,0.078-1.331s0.693-0.644,1.166-0.644h0.004
			c1.742,0,6.626-0.447,8.285-2.492c0.516-0.638,0.664-1.377,0.463-2.326c-0.012-0.055-0.02-0.111-0.023-0.166
			c-0.01-0.102-0.982-10.418-7.544-19.381C46.771,30.694,45.94,30.316,44.391,30.316z M83.9,106.652
			c-5.625,0-11.037-2.402-16.545-5.078c-19.583-9.516-36.478-32.465-38.46-52.249c-0.792-7.896,2.544-17.896,11.745-21.183
			c1.006-0.358,2.442-0.581,3.75-0.581c2.289,0,3.971,0.643,4.861,1.858c6.789,9.273,7.951,19.577,8.059,20.689
			c0.34,1.72-0.018,3.29-1.037,4.548c-1.918,2.363-5.805,3.139-8.272,3.393c7.82,15.338,18.051,23.967,22.081,26.967
			c1.632-7.58,6.784-8.782,9.883-8.782c4.417,0,9.035,2.198,12.131,4.038c6.957,4.141,9.885,9.062,8.241,13.863
			c-1.861,5.436-5.997,9.871-10.791,11.572C87.784,106.334,85.885,106.652,83.9,106.652z"/>
	</defs>
	<clipPath id="SVGID_2_">
		<use xlink:href="#SVGID_1_"  overflow="visible"/>
	</clipPath>
	<g clip-path="url(#SVGID_2_)">
		<defs>
			<rect id="SVGID_3_" x="-655.218" y="-1324.438" width="1440.001" height="7951.001"/>
		</defs>
		<clipPath id="SVGID_4_">
			<use xlink:href="#SVGID_3_"  overflow="visible"/>
		</clipPath>
		<rect x="23.782" y="22.562" clip-path="url(#SVGID_4_)" fill="#2E1D51" width="82" height="89.09"/>
	</g>
</g>
</svg>
