<?xml version="1.0" encoding="utf-8"?>
<!-- Generator: Adobe Illustrator 16.0.0, SVG Export Plug-In . SVG Version: 6.00 Build 0)  -->
<!DOCTYPE svg PUBLIC "-//W3C//DTD SVG 1.1//EN" "http://www.w3.org/Graphics/SVG/1.1/DTD/svg11.dtd">
<svg version="1.1" id="Capa_1" xmlns="http://www.w3.org/2000/svg" xmlns:xlink="http://www.w3.org/1999/xlink" x="0px" y="0px"
	 width="201.79px" height="65.631px" viewBox="0 0 201.79 65.631" enable-background="new 0 0 201.79 65.631" xml:space="preserve">
<g>
	<path fill="#FFFFFF" d="M66.666,25.008c0-6.134-4.992-11.128-11.128-11.128c-4.271,0-7.984,2.419-9.851,5.958l-0.002-0.002
		l-5.092,9.374l-5.128-9.377l-0.005,0.004c-1.865-3.538-5.58-5.957-9.848-5.957c-6.137,0-11.129,4.994-11.129,11.128
		c0,2.197,0.642,4.248,1.747,5.973c0.028,0.212,0.118,0.418,0.281,0.583l0.57,0.582c0.373,0.445,0.782,0.861,1.22,1.243l2.456,2.504
		c0.278,0.469,1.542,2.899-0.632,4.739c-0.431,0.363-0.485,1.013-0.12,1.44c0.201,0.24,0.49,0.363,0.78,0.363
		c0.234,0,0.467-0.08,0.66-0.244c2.38-2.014,2.198-4.638,1.537-6.369c0.843,0.204,1.723,0.314,2.63,0.314
		c5.703,0,10.414-4.313,11.052-9.85l2.768,5.058l-6.081,11.198c-0.962,1.409-1.528,3.111-1.528,4.945
		c0,0.062,0.008,0.123,0.01,0.186l-0.672-0.776l-0.058-0.062c-0.157-0.152-1.6-1.527-3.449-1.488
		c-1.012,0.014-1.959,0.445-2.74,1.252c-0.393,0.405-0.382,1.053,0.021,1.445c0.406,0.394,1.054,0.384,1.448-0.022
		c1.347-1.391,2.905-0.088,3.262,0.249l3.822,4.42c0.063,0.072,0.137,0.132,0.217,0.184c1.61,2.068,4.117,3.406,6.936,3.406
		c3.17,0,5.944-1.693,7.493-4.216l0.001,0.003L63.79,32.471l-0.002-0.004C65.576,30.494,66.666,27.875,66.666,25.008z
		 M43.775,39.287c-0.981-0.38-2.044-0.596-3.156-0.596c-1.122,0-2.19,0.219-3.178,0.604l3.159-5.813L43.775,39.287z M47.885,42.542
		l-6.126-11.199l2.73-5.023c0.651,5.52,5.354,9.816,11.048,9.816c1.056,0,2.074-0.15,3.042-0.426L49.397,47.19
		C49.34,45.472,48.796,43.875,47.885,42.542z M55.537,15.926c5.007,0,9.084,4.075,9.084,9.083c0,5.01-4.077,9.083-9.084,9.083
		c-5.008,0-9.085-4.073-9.085-9.083C46.452,20.001,50.529,15.926,55.537,15.926z M25.612,34.091c-2.25,0-4.308-0.821-5.896-2.181
		l-1.133-1.152c-1.284-1.567-2.057-3.571-2.057-5.75c0-5.007,4.077-9.083,9.085-9.083c5.007,0,9.083,4.075,9.083,9.083
		C34.695,30.019,30.62,34.091,25.612,34.091z M40.619,54.236c-3.722,0-6.751-3.027-6.751-6.748c0-3.724,3.029-6.752,6.751-6.752
		c3.722,0,6.749,3.028,6.749,6.752C47.368,51.208,44.341,54.236,40.619,54.236z"/>
	<g>
		<path fill="#FFFFFF" d="M77.731,20.769c0.847,0,1.513,0.666,1.513,1.514c0,0.847-0.666,1.514-1.513,1.514
			c-0.848,0-1.515-0.667-1.515-1.514C76.217,21.435,76.883,20.769,77.731,20.769z M76.671,28.458c0-0.758,0.395-1.119,1.12-1.119
			c0.757,0,1.182,0.361,1.182,1.119v14.956c0,0.757-0.395,1.119-1.153,1.119c-0.754,0-1.149-0.362-1.149-1.119V28.458z"/>
		<path fill="#FFFFFF" d="M84.149,28.791c0-0.876,0.362-1.332,1.121-1.332c0.726,0,1.12,0.424,1.12,1.242v1.179
			c0.817-1.605,2.604-2.693,4.39-2.693c1.996,0,3.813,1.271,4.57,3.18c0.969-1.91,3.059-3.18,5.328-3.18
			c3.087,0,5.661,2.179,5.661,5.357v10.838c0,0.726-0.363,1.09-1.119,1.09c-0.758,0-1.152-0.364-1.152-1.09v-9.868
			c0-2.183-1.301-3.999-3.511-3.999c-2.573,0-4.238,2.21-4.238,4.756v9.11c0,0.757-0.364,1.118-1.09,1.118
			c-0.756,0-1.121-0.361-1.121-1.118v-9.868c0-2.21-1.333-3.937-3.541-3.937c-2.573,0-4.208,2.149-4.208,4.694v9.11
			c0,0.757-0.364,1.118-1.09,1.118c-0.758,0-1.121-0.361-1.121-1.118V28.791z"/>
		<path fill="#FFFFFF" d="M110.576,28.369c0-0.79,0.364-1.182,1.121-1.182c0.755,0,1.119,0.392,1.119,1.182v2.3
			c0.667-1.909,2.938-3.481,4.995-3.481c4.693,0,7.053,4.569,7.053,8.96c0,4.389-2.359,8.749-7.053,8.749
			c-2.148,0-4.117-1.091-4.995-2.997v8.386c0,0.757-0.544,1.212-1.15,1.212c-0.726,0-1.09-0.424-1.09-1.241V28.369z M122.595,36.268
			c0-2.995-1.209-6.841-4.569-6.841c-3.514,0-5.026,3.544-5.026,6.721c0,3.239,1.513,6.689,5.026,6.689
			C121.386,42.837,122.595,39.327,122.595,36.268z"/>
		<path fill="#FFFFFF" d="M135.278,27.309c4.027,0,6.146,2.422,6.146,5.479v10.868c0,0.574-0.395,1.121-1.12,1.121
			s-1.091-0.516-1.119-1.091c-0.032-0.575-0.032-0.758-0.032-1.031c-1.301,1.394-3.238,2.122-5.176,2.122
			c-2.968,0-5.812-1.666-5.812-5.057c0-3.543,3.239-5.359,6.419-5.359c1.726,0,3.572,0.515,4.569,1.514V33
			c0-2.09-1.693-3.482-4.541-3.482c-1.967,0-3.238,0.728-4.178,0.728c-0.513,0-1.029-0.243-1.029-0.938
			c0-0.395,0.334-0.877,0.85-1.091C131.587,27.67,133.191,27.309,135.278,27.309z M134.372,42.655c2.299,0,4.752-1.209,4.752-3.298
			c0-1.848-2.301-2.906-4.54-2.906c-2.12,0-4.149,0.969-4.149,3.088C130.435,41.718,132.312,42.655,134.372,42.655z"/>
		<path fill="#FFFFFF" d="M144.876,28.67c0-0.788,0.361-1.18,1.09-1.18c0.757,0,1.119,0.392,1.119,1.18v1.452
			c1.12-1.996,3.24-2.935,5.299-2.935c1.604,0,2.21,0.727,2.21,1.392c0,0.604-0.484,1.182-1.182,1.182
			c-0.817,0-1.028-0.214-2.058-0.214c-1.968,0-4.27,2.06-4.27,4.39v9.508c0,0.726-0.362,1.088-1.119,1.088
			c-0.729,0-1.09-0.362-1.09-1.088V28.67z"/>
		<path fill="#FFFFFF" d="M170.426,34.726c0,1.635-0.272,2.453-1.695,2.453h-10.231c0,2.721,2.725,5.476,5.418,5.476
			c1.695,0,2.756-0.331,4.117-1.542c0.393-0.362,0.879-0.545,1.302-0.545c0.576,0,0.999,0.333,0.999,1.029
			c0,0.242-0.06,0.455-0.211,0.604c-1.424,1.788-3.512,2.695-6.207,2.695c-4.994,0-7.811-4.058-7.811-8.84
			c0-4.45,2.605-8.9,7.328-8.9C167.913,27.157,170.426,30.305,170.426,34.726z M168.186,34.998c0-3.088-1.786-5.602-4.662-5.602
			c-2.905,0-4.994,2.574-4.994,5.602H168.186z"/>
		<path fill="#FFFFFF" d="M180.688,42.626c1.636,0,3.725-0.666,3.725-2.633c0-1.484-1.878-2.332-3.481-2.908
			c-2.756-1-6.086-2.331-6.086-4.904c0-3.421,2.877-4.935,6.086-4.935c1.573,0,3.238,0.302,4.691,1.09
			c0.395,0.211,0.576,0.635,0.576,1.06c0,0.697-0.454,1.059-1.029,1.059c-0.212,0-0.454-0.059-0.667-0.182
			c-0.727-0.425-2.209-0.785-3.632-0.785c-1.785,0-3.633,0.633-3.633,2.42c0,1.392,2.361,2.119,4.632,3.057
			c2.481,1.029,5.024,2.087,5.024,4.814c0,3.723-3.27,5.086-6.266,5.086c-2.18,0-3.936-0.727-5.6-1.787
			c-0.272-0.18-0.394-0.543-0.394-0.909c0-0.847,0.423-1.241,0.997-1.241c0.273,0,0.576,0.123,0.879,0.336
			C177.571,41.96,178.993,42.626,180.688,42.626z"/>
	</g>
</g>
</svg>
