<?xml version="1.0" encoding="utf-8"?>
<!-- Generator: Adobe Illustrator 16.0.0, SVG Export Plug-In . SVG Version: 6.00 Build 0)  -->
<!DOCTYPE svg PUBLIC "-//W3C//DTD SVG 1.1//EN" "http://www.w3.org/Graphics/SVG/1.1/DTD/svg11.dtd">
<svg version="1.1" id="Capa_1" xmlns="http://www.w3.org/2000/svg" xmlns:xlink="http://www.w3.org/1999/xlink" x="0px" y="0px"
	 width="113.73px" height="100.384px" viewBox="0 0 113.73 100.384" enable-background="new 0 0 113.73 100.384"
	 xml:space="preserve">
<g>
	<defs>
		<path id="SVGID_1_" d="M50.497,78.404c-1.461-3.403-2.841-6.614-4.004-9.322c-6.11-0.719-12.007-1.119-17.784-2.169
			c-5.888-1.07-11.312-3.491-15.897-8.148c0,1.596,0.115,2.716-0.02,3.807c-0.619,4.991,1.969,8.174,5.894,10.597
			c1.176,0.728,2.411,1.391,3.688,1.918C31.394,78.814,40.78,79.521,50.497,78.404z M46.274,55.076
			c-5.748-0.69-11.682-1.153-17.519-2.171c-5.915-1.03-11.295-3.512-15.945-8.092c0,2.464,0.079,4.47-0.02,6.466
			c-0.139,2.781,0.877,5.064,2.904,6.845c1.346,1.182,2.816,2.282,4.385,3.136c5.401,2.934,11.29,4.226,17.36,4.646
			c2.853,0.197,5.729,0.034,8.305,0.034C45.935,62.038,46.113,58.385,46.274,55.076z M12.81,31.506c0,2.167,0.088,3.891-0.019,5.603
			c-0.207,3.3,1.205,5.815,3.716,7.729c1.536,1.168,3.184,2.261,4.928,3.075c7.873,3.676,16.25,4.522,24.812,4.126
			c0.455-0.021,1.099-0.315,1.305-0.681c2.066-3.647,4.06-7.338,5.957-10.806c-7.018,1.092-14.495,1.197-21.937-0.18
			C24.735,39.107,18.239,37.007,12.81,31.506z M43.17,38.958c1.443-0.062,3.484,0.028,5.466-0.279
			c3.418-0.532,6.896-1.012,10.167-2.074c3.194-1.038,6.121-2.877,9.241-4.184c4.392-1.841,6.464-7.693,3.389-11.261
			c-2.06-2.386-4.844-4.499-7.729-5.753c-11.441-4.974-23.337-5.108-35.335-2.268c-4.78,1.132-9.297,2.931-12.905,6.427
			c-3.552,3.441-3.703,7.61-0.104,10.966c1.943,1.812,4.313,3.31,6.728,4.447C28.553,38.029,35.519,38.857,43.17,38.958z
			 M75.199,89.545c14.762,0.661,27.927-11.263,28.738-25.902c0.892-16.143-10.964-28.858-25.768-29.89
			C61.838,32.616,49.468,44.922,48.355,59.31C47.042,76.264,60.275,89.243,75.199,89.545z M75.462,31.177
			c7.013,0.136,13.159,1.995,18.6,6.018c9.762,7.221,14.512,19.711,11.443,31.439C102.207,81.243,94,89.114,81.126,91.449
			c-10.623,1.926-19.763-1.438-27.193-9.261c-1.101-1.159-2.035-1.586-3.728-1.399c-9.942,1.099-19.727,0.4-29.017-3.645
			c-2.326-1.012-4.521-2.461-6.535-4.02c-2.895-2.238-4.345-5.274-4.326-9.059c0.063-12.471,0.076-24.941-0.003-37.412
			c-0.027-4.422,1.784-7.772,5.213-10.366c5.258-3.978,11.394-5.771,17.761-6.654c10.112-1.402,20.147-0.992,29.776,2.796
			c2.553,1.004,4.993,2.443,7.249,4.021c3.53,2.466,5.301,5.977,5.146,10.371C75.421,28.199,75.462,29.581,75.462,31.177z"/>
	</defs>
	<clipPath id="SVGID_2_">
		<use xlink:href="#SVGID_1_"  overflow="visible"/>
	</clipPath>
	<g clip-path="url(#SVGID_2_)">
		<defs>
			<rect id="SVGID_3_" x="-941.675" y="-7369.106" width="1440" height="7951"/>
		</defs>
		<clipPath id="SVGID_4_">
			<use xlink:href="#SVGID_3_"  overflow="visible"/>
		</clipPath>
		<rect x="5.325" y="3.894" clip-path="url(#SVGID_4_)" fill="#2E1D51" width="106.105" height="93.087"/>
	</g>
</g>
<g>
	<defs>
		<path id="SVGID_5_" d="M57.875,63.87v-4.306c-1.025-0.049-2.008,0.033-2.916-0.189c-0.462-0.112-1.216-0.616-1.178-1.181
			c0.038-0.554,0.931-1.054,1.285-0.987c1.352,0.255,3.312-0.017,3.312-0.017s0.91-2.153,1.465-3.378
			c5.465-12.046,21.521-13.984,30.137-3.776c0.659,0.782,1.545,1.531,0.493,2.597c-0.816,0.824-1.726-0.433-2.247-1.024
			c-6.412-7.277-16.6-7.876-23.223-1.108c-1.689,1.726-3.172,3.656-4.035,6.506c1.306,0.09,1.465,0.133,2.048,0.135
			c5.917,0.009,11.834-0.007,17.752,0.017c0.898,0.004,2.22,0.109,2.076,1.595c-0.043,0.456-1.384,0.651-2.163,0.664
			c-5.915,0.094-11.835,0.052-17.75,0.052h-2.378v4.371h2.232c5.987,0,11.974-0.042,17.959,0.053
			c0.759,0.012,2.27,0.273,2.259,1.122c-0.011,0.868-1.552,1.082-2.335,1.096c-5.637,0.096-11.275,0.051-16.915,0.051h-2.782
			c0.693,1.495,1.118,2.703,1.771,3.771c5.532,9.057,18.513,9.986,25.323,1.842c0.223-0.268,1.358-1.903,2.492-1.121
			c0.505,0.349,0.245,1.391-0.039,1.812c-2.101,3.106-5.078,5.134-8.576,6.331c-9.242,3.169-19.234-1.482-22.679-10.622
			c-0.597-1.58-1.305-2.279-2.963-2.031c-0.536,0.08-1.151,0.066-1.642-0.128c-0.366-0.146-0.865-0.701-0.813-0.982
			c0.08-0.429,0.54-1.045,0.918-1.108C55.707,63.763,56.696,63.87,57.875,63.87z"/>
	</defs>
	<clipPath id="SVGID_6_">
		<use xlink:href="#SVGID_5_"  overflow="visible"/>
	</clipPath>
	<g clip-path="url(#SVGID_6_)">
		<defs>
			<rect id="SVGID_7_" x="-941.675" y="-7369.106" width="1440" height="7951"/>
		</defs>
		<clipPath id="SVGID_8_">
			<use xlink:href="#SVGID_7_"  overflow="visible"/>
		</clipPath>
		<rect x="48.781" y="38.442" clip-path="url(#SVGID_8_)" fill="#2E1D51" width="47.178" height="46.346"/>
	</g>
</g>
</svg>
