<?xml version="1.0" encoding="utf-8"?>
<!-- Generator: Adobe Illustrator 16.0.0, SVG Export Plug-In . SVG Version: 6.00 Build 0)  -->
<!DOCTYPE svg PUBLIC "-//W3C//DTD SVG 1.1//EN" "http://www.w3.org/Graphics/SVG/1.1/DTD/svg11.dtd">
<svg version="1.1" id="Capa_1" xmlns="http://www.w3.org/2000/svg" xmlns:xlink="http://www.w3.org/1999/xlink" x="0px" y="0px"
	 width="23.392px" height="31.448px" viewBox="-4.5 0 23.392 31.448" enable-background="new -4.5 0 23.392 31.448"
	 xml:space="preserve">
<g>
	<g>
		<defs>
			<path id="SVGID_1_" d="M7.068,2.668c-2.388,0-4.329,1.856-4.329,4.137s1.941,4.139,4.329,4.139c2.387,0,4.327-1.857,4.327-4.139
				C11.395,4.524,9.455,2.668,7.068,2.668z M7.068,12.179c-3.079,0-5.583-2.41-5.583-5.374c0-2.962,2.504-5.373,5.583-5.373
				c3.078,0,5.582,2.411,5.582,5.373C12.65,9.769,10.146,12.179,7.068,12.179z"/>
		</defs>
		<clipPath id="SVGID_2_">
			<use xlink:href="#SVGID_1_"  overflow="visible"/>
		</clipPath>
		<g clip-path="url(#SVGID_2_)">
			<defs>
				<rect id="SVGID_3_" x="-1268.213" y="-53.979" width="1505.471" height="8312.506"/>
			</defs>
			<clipPath id="SVGID_4_">
				<use xlink:href="#SVGID_3_"  overflow="visible"/>
			</clipPath>
			<rect x="-3.743" y="-3.795" clip-path="url(#SVGID_4_)" fill="#FFFFFF" width="21.62" height="21.201"/>
		</g>
	</g>
	<g>
		<defs>
			<path id="SVGID_5_" d="M-0.804,27.379h15.889c0.042-0.068,0.116-0.281,0.077-0.917c-0.005-0.059-0.007-0.105-0.007-0.134
				c-0.109-8.198-2.51-11.695-8.024-11.695c-5.614,0-7.939,3.443-8.026,11.882C-0.9,26.896-0.853,27.212-0.804,27.379z
				 M15.095,28.614H-1.008c-0.246,0-0.48-0.098-0.659-0.275c-0.41-0.409-0.489-1.225-0.483-1.836
				c0.043-4.145,0.593-7.034,1.729-9.092c1.472-2.663,4.012-4.014,7.552-4.014c8.07,0,9.198,6.902,9.279,12.916
				c0,0.015,0.002,0.042,0.004,0.073c0.025,0.397,0.083,1.324-0.43,1.859C15.753,28.487,15.447,28.614,15.095,28.614z"/>
		</defs>
		<clipPath id="SVGID_6_">
			<use xlink:href="#SVGID_5_"  overflow="visible"/>
		</clipPath>
		<g clip-path="url(#SVGID_6_)">
			<defs>
				<rect id="SVGID_7_" x="-1268.213" y="-53.979" width="1505.471" height="8312.506"/>
			</defs>
			<clipPath id="SVGID_8_">
				<use xlink:href="#SVGID_7_"  overflow="visible"/>
			</clipPath>
			<rect x="-7.378" y="8.17" clip-path="url(#SVGID_8_)" fill="#FFFFFF" width="29.035" height="25.672"/>
		</g>
	</g>
</g>
</svg>
