<?xml version="1.0" encoding="utf-8"?>
<!-- Generator: Adobe Illustrator 16.0.0, SVG Export Plug-In . SVG Version: 6.00 Build 0)  -->
<!DOCTYPE svg PUBLIC "-//W3C//DTD SVG 1.1//EN" "http://www.w3.org/Graphics/SVG/1.1/DTD/svg11.dtd">
<svg version="1.1" id="Capa_1" xmlns="http://www.w3.org/2000/svg" xmlns:xlink="http://www.w3.org/1999/xlink" x="0px" y="0px"
	 width="841.89px" height="595.28px" viewBox="0 0 841.89 595.28" enable-background="new 0 0 841.89 595.28" xml:space="preserve">
<g>
	<defs>
		<path id="SVGID_1_" d="M120.904,29.719c-1.351,1.393-2.731,2.756-4.032,4.064c-2.139-2.146-4.213-4.226-6.362-6.384
			c1.29-1.265,2.649-2.602,4.014-3.929c0.759-0.737,1.537-0.737,2.29,0.005c1.355,1.342,2.705,2.69,4.046,4.05
			C121.553,28.229,121.601,28.999,120.904,29.719z M112.335,37.773c-1.885-1.883-3.936-3.931-5.939-5.936
			c0.583-0.644,1.209-1.336,1.758-1.943c2.089,2.087,4.134,4.13,6.269,6.263C113.806,36.634,113.062,37.209,112.335,37.773z
			 M72.259,77.937c-1.892-1.9-3.934-3.952-5.866-5.895c12.528-12.527,25.161-25.164,37.726-37.729
			c1.897,1.9,3.942,3.947,5.881,5.885C97.469,52.729,84.835,65.363,72.259,77.937z M62.876,81.446
			c0.604-2.239,1.165-4.32,1.707-6.327c1.537,1.536,3.049,3.046,4.598,4.595C67.213,80.253,65.161,80.819,62.876,81.446z
			 M123.112,25.547c-1.388-1.484-2.828-2.926-4.313-4.316c-1.895-1.775-4.512-1.714-6.377,0.095
			c-1.251,1.214-2.506,2.429-3.686,3.71c-0.179,0.195-0.361,0.349-0.553,0.473l-3.468,3.447h0.031
			c-0.445,0.46-0.766,0.803-1.098,1.134C90.234,43.508,76.814,56.917,63.422,70.354c-0.524,0.525-0.938,1.26-1.152,1.974
			c-0.833,2.771-1.639,5.559-2.302,8.375c-0.349,1.477-0.966,2.673-2.104,3.674c-0.917,0.806-0.978,1.706-0.331,2.364
			c0.664,0.676,1.605,0.666,2.366-0.265c1.069-1.309,2.47-1.84,4.024-2.235c2.728-0.691,5.443-1.433,8.143-2.232
			c0.675-0.202,1.372-0.593,1.867-1.088c13.104-13.062,26.185-26.148,39.263-39.236V41.49l1.768-1.708
			c0.103-0.124,0.215-0.261,0.343-0.411v0.08l3.792-3.669c0.125-0.15,0.26-0.299,0.423-0.444c1.231-1.109,2.398-2.299,3.527-3.516
			C124.827,29.906,124.859,27.411,123.112,25.547z"/>
	</defs>
	<clipPath id="SVGID_2_">
		<use xlink:href="#SVGID_1_"  overflow="visible"/>
	</clipPath>
	<g clip-path="url(#SVGID_2_)">
		<defs>
			<rect id="SVGID_3_" x="-299.897" y="-1332.065" width="1440" height="7951.001"/>
		</defs>
		<clipPath id="SVGID_4_">
			<use xlink:href="#SVGID_3_"  overflow="visible"/>
		</clipPath>
		<rect x="52.103" y="14.935" clip-path="url(#SVGID_4_)" fill="#2E1D51" width="77.3" height="77.284"/>
	</g>
</g>
<g>
	<defs>
		<path id="SVGID_5_" d="M107.826,99.664H42.603c-4.137,0-7.5-3.104-7.5-6.916V32.851c0-3.814,3.363-6.917,7.5-6.917h54.65
			c0.828,0,1.5,0.671,1.5,1.5c0,0.83-0.672,1.5-1.5,1.5h-54.65c-2.482,0-4.5,1.757-4.5,3.917v59.896c0,2.159,2.018,3.916,4.5,3.916
			h65.223c2.481,0,4.5-1.757,4.5-3.916V51.369c0-0.828,0.672-1.5,1.5-1.5c0.828,0,1.5,0.672,1.5,1.5v41.379
			C115.326,96.56,111.961,99.664,107.826,99.664z"/>
	</defs>
	<clipPath id="SVGID_6_">
		<use xlink:href="#SVGID_5_"  overflow="visible"/>
	</clipPath>
	<g clip-path="url(#SVGID_6_)">
		<defs>
			<rect id="SVGID_7_" x="-299.897" y="-1332.065" width="1440" height="7951.001"/>
		</defs>
		<clipPath id="SVGID_8_">
			<use xlink:href="#SVGID_7_"  overflow="visible"/>
		</clipPath>
		<rect x="30.103" y="20.935" clip-path="url(#SVGID_8_)" fill="#2E1D51" width="90.223" height="83.729"/>
	</g>
</g>
</svg>
