<?xml version="1.0" encoding="utf-8"?>
<!-- Generator: Adobe Illustrator 16.0.0, SVG Export Plug-In . SVG Version: 6.00 Build 0)  -->
<!DOCTYPE svg PUBLIC "-//W3C//DTD SVG 1.1//EN" "http://www.w3.org/Graphics/SVG/1.1/DTD/svg11.dtd">
<svg version="1.1" id="Capa_1" xmlns="http://www.w3.org/2000/svg" xmlns:xlink="http://www.w3.org/1999/xlink" x="0px" y="0px"
	 width="841.89px" height="595.28px" viewBox="0 0 841.89 595.28" enable-background="new 0 0 841.89 595.28" xml:space="preserve">
<g>
	<defs>
		<path id="SVGID_1_" d="M44.535,67.523c0.086,0.312,0.521,1.584,2.385,3.36c7.501,7.147,22.57,19.182,39.214,19.44l0.521,0.005
			c16.188,0,31.264-11.671,38.808-18.63c2.094-1.93,2.799-3.397,3.007-3.945c-0.155-0.516-0.729-1.971-2.673-3.893
			c-7.017-6.945-21.503-18.63-39.706-18.877l-0.563-0.004c-17.978,0-31.87,11.668-38.55,18.624
			C45.036,65.624,44.618,67.111,44.535,67.523z M86.654,93.33l-0.566-0.005C68.423,93.047,52.67,80.507,44.851,73.056
			c-3.024-2.882-3.303-5.019-3.328-5.416c-0.003-0.05-0.004-0.099-0.002-0.148c0.01-0.27,0.183-2.728,3.292-5.966
			c7.012-7.299,21.625-19.545,40.714-19.545l0.604,0.004c19.255,0.262,34.438,12.482,41.774,19.744
			c3.274,3.238,3.579,5.691,3.604,5.961c0.012,0.133,0.006,0.268-0.019,0.399c-0.047,0.263-0.562,2.65-3.996,5.816
			C119.629,81.16,103.862,93.33,86.654,93.33z"/>
	</defs>
	<clipPath id="SVGID_2_">
		<use xlink:href="#SVGID_1_"  overflow="visible"/>
	</clipPath>
	<g clip-path="url(#SVGID_2_)">
		<defs>
			<rect id="SVGID_3_" x="-973.48" y="-1335.02" width="1440" height="7951"/>
		</defs>
		<clipPath id="SVGID_4_">
			<use xlink:href="#SVGID_3_"  overflow="visible"/>
		</clipPath>
		<rect x="36.52" y="36.98" clip-path="url(#SVGID_4_)" fill="#2E1D51" width="99.995" height="61.349"/>
	</g>
</g>
<g>
	<defs>
		<path id="SVGID_5_" d="M85.445,54.98c-7.127,0-12.926,5.798-12.926,12.926s5.798,12.926,12.926,12.926
			c7.127,0,12.925-5.799,12.925-12.926S92.572,54.98,85.445,54.98z M85.445,83.833c-8.781,0-15.926-7.146-15.926-15.926
			c0-8.782,7.145-15.926,15.926-15.926s15.925,7.144,15.925,15.926C101.37,76.687,94.227,83.833,85.445,83.833z"/>
	</defs>
	<clipPath id="SVGID_6_">
		<use xlink:href="#SVGID_5_"  overflow="visible"/>
	</clipPath>
	<g clip-path="url(#SVGID_6_)">
		<defs>
			<rect id="SVGID_7_" x="-973.48" y="-1335.02" width="1440" height="7951"/>
		</defs>
		<clipPath id="SVGID_8_">
			<use xlink:href="#SVGID_7_"  overflow="visible"/>
		</clipPath>
		<rect x="64.52" y="46.98" clip-path="url(#SVGID_8_)" fill="#2E1D51" width="41.851" height="41.852"/>
	</g>
</g>
<g>
	<defs>
		<path id="SVGID_9_" d="M47.326,51.956c-0.377,0-0.754-0.142-1.046-0.426L33.974,39.556c-0.594-0.578-0.607-1.527-0.029-2.121
			c0.578-0.594,1.528-0.606,2.121-0.029l12.308,11.976c0.594,0.577,0.606,1.526,0.028,2.12
			C48.107,51.804,47.717,51.956,47.326,51.956z"/>
	</defs>
	<clipPath id="SVGID_10_">
		<use xlink:href="#SVGID_9_"  overflow="visible"/>
	</clipPath>
	<g clip-path="url(#SVGID_10_)">
		<defs>
			<rect id="SVGID_11_" x="-973.48" y="-1335.02" width="1440" height="7951"/>
		</defs>
		<clipPath id="SVGID_12_">
			<use xlink:href="#SVGID_11_"  overflow="visible"/>
		</clipPath>
		<rect x="28.52" y="31.98" clip-path="url(#SVGID_12_)" fill="#2E1D51" width="25.307" height="24.976"/>
	</g>
</g>
<g>
	<defs>
		<path id="SVGID_13_" d="M85.02,35.567c-0.829,0-1.5-0.671-1.5-1.5V18.48c0-0.829,0.671-1.5,1.5-1.5s1.5,0.671,1.5,1.5v15.587
			C86.52,34.896,85.848,35.567,85.02,35.567z"/>
	</defs>
	<clipPath id="SVGID_14_">
		<use xlink:href="#SVGID_13_"  overflow="visible"/>
	</clipPath>
	<g clip-path="url(#SVGID_14_)">
		<defs>
			<rect id="SVGID_15_" x="-973.48" y="-1335.02" width="1440" height="7951"/>
		</defs>
		<clipPath id="SVGID_16_">
			<use xlink:href="#SVGID_15_"  overflow="visible"/>
		</clipPath>
		<rect x="78.52" y="11.98" clip-path="url(#SVGID_16_)" fill="#2E1D51" width="13" height="28.587"/>
	</g>
</g>
<g>
	<defs>
		<path id="SVGID_17_" d="M127.019,52.189c-0.354,0-0.709-0.124-0.994-0.377c-0.62-0.548-0.677-1.498-0.128-2.117l10.82-12.21
			c0.55-0.62,1.499-0.677,2.117-0.128c0.619,0.549,0.677,1.498,0.128,2.118l-10.82,12.21
			C127.846,52.02,127.433,52.189,127.019,52.189z"/>
	</defs>
	<clipPath id="SVGID_18_">
		<use xlink:href="#SVGID_17_"  overflow="visible"/>
	</clipPath>
	<g clip-path="url(#SVGID_18_)">
		<defs>
			<rect id="SVGID_19_" x="-973.48" y="-1335.02" width="1440" height="7951"/>
		</defs>
		<clipPath id="SVGID_20_">
			<use xlink:href="#SVGID_19_"  overflow="visible"/>
		</clipPath>
		<rect x="120.52" y="31.98" clip-path="url(#SVGID_20_)" fill="#2E1D51" width="23.819" height="25.208"/>
	</g>
</g>
<g>
	<defs>
		<path id="SVGID_21_" d="M107.019,40.375c-0.202,0-0.408-0.042-0.604-0.127c-0.759-0.334-1.102-1.221-0.767-1.978l6.356-14.396
			c0.334-0.756,1.219-1.101,1.978-0.766c0.758,0.334,1.101,1.22,0.767,1.978l-6.356,14.395
			C108.145,40.041,107.595,40.375,107.019,40.375z"/>
	</defs>
	<clipPath id="SVGID_22_">
		<use xlink:href="#SVGID_21_"  overflow="visible"/>
	</clipPath>
	<g clip-path="url(#SVGID_22_)">
		<defs>
			<rect id="SVGID_23_" x="-973.48" y="-1335.02" width="1440" height="7951"/>
		</defs>
		<clipPath id="SVGID_24_">
			<use xlink:href="#SVGID_23_"  overflow="visible"/>
		</clipPath>
		<rect x="100.52" y="17.98" clip-path="url(#SVGID_24_)" fill="#2E1D51" width="19.357" height="27.395"/>
	</g>
</g>
<g>
	<defs>
		<path id="SVGID_25_" d="M64.263,39.954c-0.542,0-1.066-0.294-1.333-0.81l-7.242-13.973c-0.381-0.735-0.094-1.641,0.641-2.022
			c0.736-0.381,1.642-0.093,2.022,0.641l7.242,13.973c0.381,0.735,0.094,1.64-0.642,2.021C64.73,39.899,64.494,39.954,64.263,39.954
			z"/>
	</defs>
	<clipPath id="SVGID_26_">
		<use xlink:href="#SVGID_25_"  overflow="visible"/>
	</clipPath>
	<g clip-path="url(#SVGID_26_)">
		<defs>
			<rect id="SVGID_27_" x="-973.48" y="-1335.02" width="1440" height="7951"/>
		</defs>
		<clipPath id="SVGID_28_">
			<use xlink:href="#SVGID_27_"  overflow="visible"/>
		</clipPath>
		<rect x="50.52" y="17.98" clip-path="url(#SVGID_28_)" fill="#2E1D51" width="20.242" height="26.973"/>
	</g>
</g>
</svg>
