<?xml version="1.0" encoding="utf-8"?>
<!-- Generator: Adobe Illustrator 16.0.0, SVG Export Plug-In . SVG Version: 6.00 Build 0)  -->
<!DOCTYPE svg PUBLIC "-//W3C//DTD SVG 1.1//EN" "http://www.w3.org/Graphics/SVG/1.1/DTD/svg11.dtd">
<svg version="1.1" id="Capa_1" xmlns="http://www.w3.org/2000/svg" xmlns:xlink="http://www.w3.org/1999/xlink" x="0px" y="0px"
	 width="110.667px" height="100px" viewBox="-4.5 0 110.667 100" enable-background="new -4.5 0 110.667 100" xml:space="preserve">
<path fill="#2C0C52" d="M80.84,80.5H10.91c-4.401,0-8.41-4.312-8.41-8.5V14c0-3.991,3.615-6.5,8.41-6.5h69.93
	c4.51,0,7.66,2.378,7.66,6.5v58C88.5,75.848,85.571,80.5,80.84,80.5z M10.91,10.5c-2.623,0-5.41,0.902-5.41,3.5v58
	c0,2.57,2.629,5.5,5.41,5.5h69.93c2.879,0,4.66-3.096,4.66-5.5V14c0-2.467-1.785-3.5-4.66-3.5H10.91z"/>
<path fill="#FFFFFF" d="M93.84,21.5c3.678,0,5.66,1.187,5.66,4.5v58c0,3.313-1.982,7.5-5.66,7.5H23.91c-3.678,0-7.41-4.187-7.41-7.5
	V26c0-3.313,3.732-4.5,7.41-4.5H93.84z"/>
<path fill="#2C0C52" d="M93.84,92.5H23.91c-4.401,0-8.41-4.312-8.41-8.5V26c0-3.991,3.615-6.5,8.41-6.5h69.93
	c4.51,0,7.66,2.378,7.66,6.5v58C101.5,87.848,98.571,92.5,93.84,92.5z M23.91,22.5c-2.623,0-5.41,0.902-5.41,3.5v58
	c0,2.57,2.629,5.5,5.41,5.5h69.93c2.879,0,4.66-3.096,4.66-5.5V26c0-2.467-1.785-3.5-4.66-3.5H23.91z"/>
<path fill-rule="evenodd" clip-rule="evenodd" fill="#FFFFFF" d="M71.621,57c0,7.246-5.873,13.121-13.118,13.121
	c-7.25,0-13.124-5.875-13.124-13.121c0-7.247,5.874-13.122,13.124-13.122C65.748,43.878,71.621,49.753,71.621,57z"/>
<path fill="#2C0C52" d="M58.503,71.621c-8.063,0-14.624-6.559-14.624-14.621s6.561-14.622,14.624-14.622
	c8.061,0,14.618,6.559,14.618,14.622S66.563,71.621,58.503,71.621z M58.503,45.378c-6.409,0-11.624,5.213-11.624,11.622
	s5.215,11.621,11.624,11.621c6.406,0,11.618-5.213,11.618-11.621S64.909,45.378,58.503,45.378z"/>
<path fill-rule="evenodd" clip-rule="evenodd" fill="#2C0C52" d="M54.078,57.006c0-1.768,0.005-3.537-0.002-5.305
	c-0.002-0.383,0.105-0.696,0.447-0.895c0.359-0.205,0.688-0.127,1.024,0.083c2.808,1.768,5.618,3.53,8.435,5.288
	c0.321,0.201,0.547,0.441,0.531,0.844c-0.013,0.303-0.137,0.537-0.398,0.703c-2.882,1.805-5.761,3.611-8.64,5.42
	c-0.31,0.195-0.618,0.23-0.94,0.053c-0.324-0.18-0.463-0.469-0.463-0.828c0-1.394,0.004-2.787,0.006-4.182
	C54.08,57.794,54.078,57.399,54.078,57.006z"/>
</svg>
