<?xml version="1.0" encoding="utf-8"?>
<!-- Generator: Adobe Illustrator 16.0.0, SVG Export Plug-In . SVG Version: 6.00 Build 0)  -->
<!DOCTYPE svg PUBLIC "-//W3C//DTD SVG 1.1//EN" "http://www.w3.org/Graphics/SVG/1.1/DTD/svg11.dtd">
<svg version="1.1" id="Capa_1" xmlns="http://www.w3.org/2000/svg" xmlns:xlink="http://www.w3.org/1999/xlink" x="0px" y="0px"
	 width="841.89px" height="595.28px" viewBox="0 0 841.89 595.28" enable-background="new 0 0 841.89 595.28" xml:space="preserve">
<g>
	<defs>
		<path id="SVGID_1_" d="M31.925,23.167c-2.357,0-4.863,1.219-4.863,3.482v50.494c0,2.239,2.363,4.353,4.863,4.353H94.79
			c2.588,0,4.189-2.26,4.189-4.353V26.649c0-2.149-1.605-3.482-4.189-3.482H31.925z M94.79,84.108H31.925
			c-3.957,0-7.561-3.319-7.561-6.965V26.649c0-3.475,3.25-6.095,7.561-6.095H94.79c4.055,0,6.887,2.506,6.887,6.095v50.494
			C101.677,80.493,99.044,84.108,94.79,84.108z"/>
	</defs>
	<clipPath id="SVGID_2_">
		<use xlink:href="#SVGID_1_"  overflow="visible"/>
	</clipPath>
	<g clip-path="url(#SVGID_2_)">
		<defs>
			<rect id="SVGID_3_" x="-652.636" y="-1695.445" width="1440" height="7951"/>
		</defs>
		<clipPath id="SVGID_4_">
			<use xlink:href="#SVGID_3_"  overflow="visible"/>
		</clipPath>
		<rect x="19.364" y="15.555" clip-path="url(#SVGID_4_)" fill="#2E1D51" width="87.312" height="73.553"/>
	</g>
</g>
<g>
	<defs>
		<path id="SVGID_5_" d="M106.79,32.296c3.307,0,5.09,1.469,5.09,4.354v50.494c0,2.884-1.783,6.094-5.09,6.094H43.925
			c-3.307,0-6.662-3.21-6.662-6.094V36.649c0-2.885,3.355-4.354,6.662-4.354H106.79z"/>
	</defs>
	<clipPath id="SVGID_6_">
		<use xlink:href="#SVGID_5_"  overflow="visible"/>
	</clipPath>
	<g clip-path="url(#SVGID_6_)">
		<defs>
			<rect id="SVGID_7_" x="-652.636" y="-1695.445" width="1440" height="7951"/>
		</defs>
		<clipPath id="SVGID_8_">
			<use xlink:href="#SVGID_7_"  overflow="visible"/>
		</clipPath>
		<rect x="32.263" y="27.296" clip-path="url(#SVGID_8_)" fill="#FFFFFF" width="84.617" height="70.941"/>
	</g>
</g>
<g>
	<defs>
		<path id="SVGID_9_" d="M43.925,33.167c-2.357,0-4.863,1.219-4.863,3.482v50.494c0,2.239,2.363,4.353,4.863,4.353h62.865
			c2.588,0,4.189-2.26,4.189-4.353V36.649c0-2.149-1.605-3.482-4.189-3.482H43.925z M106.79,94.108H43.925
			c-3.957,0-7.561-3.319-7.561-6.965V36.649c0-3.475,3.25-6.095,7.561-6.095h62.865c4.055,0,6.887,2.506,6.887,6.095v50.494
			C113.677,90.493,111.044,94.108,106.79,94.108z"/>
	</defs>
	<clipPath id="SVGID_10_">
		<use xlink:href="#SVGID_9_"  overflow="visible"/>
	</clipPath>
	<g clip-path="url(#SVGID_10_)">
		<defs>
			<rect id="SVGID_11_" x="-652.636" y="-1695.445" width="1440" height="7951"/>
		</defs>
		<clipPath id="SVGID_12_">
			<use xlink:href="#SVGID_11_"  overflow="visible"/>
		</clipPath>
		<rect x="31.364" y="25.555" clip-path="url(#SVGID_12_)" fill="#2E1D51" width="87.312" height="73.553"/>
	</g>
</g>
<g>
	<defs>
		<path id="SVGID_13_" d="M86.644,63.615c0,6.307-5.279,11.422-11.793,11.422c-6.518,0-11.799-5.115-11.799-11.422
			c0-6.311,5.281-11.424,11.799-11.424C81.364,52.191,86.644,57.304,86.644,63.615z"/>
	</defs>
	<clipPath id="SVGID_14_">
		<use xlink:href="#SVGID_13_"  overflow="visible"/>
	</clipPath>
	<g clip-path="url(#SVGID_14_)">
		<defs>
			<rect id="SVGID_15_" x="-652.636" y="-1695.445" width="1440" height="7951"/>
		</defs>
		<clipPath id="SVGID_16_">
			<use xlink:href="#SVGID_15_"  overflow="visible"/>
		</clipPath>
		<rect x="58.052" y="47.191" clip-path="url(#SVGID_16_)" fill="#FFFFFF" width="33.592" height="32.846"/>
	</g>
</g>
<g>
	<defs>
		<path id="SVGID_17_" d="M74.851,53.498c-5.762,0-10.449,4.537-10.449,10.117c0,5.579,4.688,10.117,10.449,10.117
			c5.76,0,10.445-4.538,10.445-10.117C85.296,58.035,80.61,53.498,74.851,53.498z M74.851,76.343
			c-7.248,0-13.146-5.711-13.146-12.729c0-7.02,5.898-12.73,13.146-12.73s13.143,5.711,13.143,12.73
			C87.993,70.632,82.097,76.343,74.851,76.343z"/>
	</defs>
	<clipPath id="SVGID_18_">
		<use xlink:href="#SVGID_17_"  overflow="visible"/>
	</clipPath>
	<g clip-path="url(#SVGID_18_)">
		<defs>
			<rect id="SVGID_19_" x="-652.636" y="-1695.445" width="1440" height="7951"/>
		</defs>
		<clipPath id="SVGID_20_">
			<use xlink:href="#SVGID_19_"  overflow="visible"/>
		</clipPath>
		<rect x="56.704" y="45.884" clip-path="url(#SVGID_20_)" fill="#2E1D51" width="36.289" height="35.459"/>
	</g>
</g>
<g>
	<defs>
		<path id="SVGID_21_" d="M70.366,59.439c0-0.334,0.094-0.606,0.402-0.781c0.322-0.178,0.619-0.109,0.922,0.074
			c2.523,1.539,5.051,3.072,7.582,4.604c0.289,0.175,0.49,0.383,0.479,0.734c-0.012,0.264-0.123,0.468-0.359,0.611
			c-2.59,1.572-5.178,3.145-7.766,4.721c-0.279,0.168-0.557,0.199-0.846,0.045c-0.293-0.157-0.416-0.409-0.416-0.721
			c0-1.215,0.002-2.426,0.006-3.642c0-0.342-0.002-0.686-0.002-1.028C70.368,62.517,70.372,60.978,70.366,59.439z"/>
	</defs>
	<clipPath id="SVGID_22_">
		<use xlink:href="#SVGID_21_"  overflow="visible"/>
	</clipPath>
	<g clip-path="url(#SVGID_22_)">
		<defs>
			<rect id="SVGID_23_" x="-652.636" y="-1695.445" width="1440" height="7951"/>
		</defs>
		<clipPath id="SVGID_24_">
			<use xlink:href="#SVGID_23_"  overflow="visible"/>
		</clipPath>
		<rect x="65.364" y="53.554" clip-path="url(#SVGID_24_)" fill="#2E1D51" width="19.387" height="20.992"/>
	</g>
</g>
</svg>
