<?xml version="1.0" encoding="utf-8"?>
<!-- Generator: Adobe Illustrator 16.0.0, SVG Export Plug-In . SVG Version: 6.00 Build 0)  -->
<!DOCTYPE svg PUBLIC "-//W3C//DTD SVG 1.1//EN" "http://www.w3.org/Graphics/SVG/1.1/DTD/svg11.dtd">
<svg version="1.1" id="Capa_1" xmlns="http://www.w3.org/2000/svg" xmlns:xlink="http://www.w3.org/1999/xlink" x="0px" y="0px"
	 width="70px" height="60.5px" viewBox="-4.5 0 70 60.5" enable-background="new -4.5 0 70 60.5" xml:space="preserve">
<path fill="#FFFFFF" d="M55.012,53.5H7.713c-2.126,0-4.213-2.625-4.213-5.27V11.77c0-2.645,2.087-4.27,4.213-4.27h47.299
	c2.126,0,4.488,1.625,4.488,4.27v36.46C59.5,50.875,57.138,53.5,55.012,53.5z M7.713,9.5C6.438,9.5,5.5,10.183,5.5,11.77v36.46
	c0,1.588,0.938,3.27,2.213,3.27h47.299c1.275,0,2.488-1.682,2.488-3.27V11.77c0-1.587-1.213-2.27-2.488-2.27H7.713z"/>
<path fill="#FFFFFF" d="M31.362,31.919c-3.755,0-7.971-4.439-8.148-4.629L4.938,9.995C4.599,9.674,4.533,9.071,4.791,8.65
	c0.258-0.422,0.742-0.504,1.08-0.183l18.311,17.331C24.255,25.874,28.179,30,31.362,30c2.242,0,6.908-4.073,8.518-5.643
	L56.855,8.464c0.341-0.32,0.824-0.234,1.081,0.189c0.256,0.423,0.188,1.025-0.153,1.343L40.819,25.879
	C40.196,26.487,34.536,31.919,31.362,31.919z"/>
</svg>
