<?xml version="1.0" encoding="utf-8"?>
<!-- Generator: Adobe Illustrator 16.0.0, SVG Export Plug-In . SVG Version: 6.00 Build 0)  -->
<!DOCTYPE svg PUBLIC "-//W3C//DTD SVG 1.1//EN" "http://www.w3.org/Graphics/SVG/1.1/DTD/svg11.dtd">
<svg version="1.1" id="Capa_1" xmlns="http://www.w3.org/2000/svg" xmlns:xlink="http://www.w3.org/1999/xlink" x="0px" y="0px"
	 width="49.158px" height="47.21px" viewBox="0 0 49.158 47.21" enable-background="new 0 0 49.158 47.21" xml:space="preserve">
<g>
	<path fill="#A52832" d="M25.288,40.372h-0.158c-8.906,0-16.127-7.22-16.127-16.128v-0.155c0-8.907,7.221-16.129,16.127-16.129
		h0.158c8.904,0,16.125,7.222,16.125,16.129v0.155C41.413,33.152,34.192,40.372,25.288,40.372z"/>
	<path fill="#FFFFFF" d="M33.479,19.037c-0.607,0.27-1.264,0.452-1.949,0.534c0.701-0.421,1.24-1.085,1.492-1.878
		c-0.654,0.39-1.381,0.672-2.154,0.824c-0.621-0.66-1.502-1.072-2.477-1.072c-1.875,0-3.395,1.52-3.395,3.394
		c0,0.267,0.031,0.524,0.088,0.772c-2.82-0.14-5.32-1.491-6.996-3.546c-0.291,0.503-0.459,1.085-0.459,1.707
		c0,1.178,0.6,2.218,1.51,2.825c-0.557-0.018-1.08-0.17-1.535-0.426v0.044c0,1.645,1.17,3.015,2.721,3.327
		c-0.285,0.078-0.584,0.121-0.895,0.121c-0.219,0-0.432-0.023-0.639-0.063c0.432,1.349,1.684,2.33,3.17,2.357
		c-1.16,0.91-2.623,1.453-4.215,1.453c-0.273,0-0.543-0.016-0.811-0.047c1.504,0.961,3.287,1.523,5.205,1.523
		c6.24,0,9.654-5.171,9.654-9.655c0-0.146-0.004-0.294-0.008-0.439C32.448,20.316,33.022,19.716,33.479,19.037z"/>
</g>
</svg>
